<?xml version='1.0' encoding='UTF-8' standalone='no'?>
<!-- Created with Fritzing (http://www.fritzing.org/) -->
<svg xmlns="http://www.w3.org/2000/svg" width="6.74655in" x="0in" version="1.2" y="0in"  height="6.93409in" viewBox="0 0 485.752 499.254" baseProfile="tiny" xmlns:svg="http://www.w3.org/2000/svg">
 <g  id="watermark">
  <g >
   <path fill="#8C8C8C"  d="M377.935,496.926L376.01,491.362L375.975,491.362c0.017,0.214,0.032,0.427,0.044,0.64c0.012,0.183,0.021,0.375,0.028,0.574c0.007,0.203,0.011,0.385,0.011,0.551l0,3.8L375.31,496.927L375.31,490.571l1.199,0l1.791,5.181l0.025,0l1.8,-5.181L381.325,490.571l0,6.354L380.516,496.925l0,-3.854c0,-0.15,0.003,-0.324,0.009,-0.518s0.013,-0.38,0.021,-0.557c0.012,-0.207,0.021,-0.416,0.029,-0.625L380.543,491.371L378.599,496.926L377.935,496.926z"/>
   <path fill="#8C8C8C"  d="M385.635,496.926l-0.16,-0.661l-0.035,0c-0.095,0.131,-0.19,0.243,-0.286,0.338c-0.095,0.095,-0.2,0.172,-0.313,0.231c-0.113,0.062,-0.239,0.106,-0.378,0.136c-0.141,0.028,-0.3,0.042,-0.482,0.042c-0.2,0,-0.384,-0.026,-0.552,-0.084c-0.168,-0.057,-0.314,-0.144,-0.438,-0.261c-0.122,-0.116,-0.219,-0.265,-0.288,-0.443S382.599,495.836,382.599,495.591c0,-0.475,0.167,-0.841,0.501,-1.095c0.335,-0.256,0.845,-0.394,1.528,-0.418l0.799,-0.029l0,-0.301c0,-0.193,-0.021,-0.356,-0.063,-0.486s-0.103,-0.234,-0.183,-0.314s-0.178,-0.138,-0.295,-0.172c-0.117,-0.035,-0.251,-0.052,-0.402,-0.052c-0.241,0,-0.464,0.034,-0.671,0.104c-0.207,0.068,-0.407,0.152,-0.597,0.25L382.937,492.485c0.214,-0.117,0.453,-0.217,0.717,-0.298c0.264,-0.079,0.54,-0.12,0.83,-0.12c0.296,0,0.551,0.029,0.768,0.09c0.216,0.059,0.395,0.151,0.534,0.28c0.141,0.13,0.247,0.294,0.316,0.494c0.07,0.199,0.104,0.44,0.104,0.726l0,3.269L385.635,496.926L385.635,496.926zM384.184,496.375c0.178,0,0.341,-0.028,0.491,-0.084c0.149,-0.055,0.282,-0.138,0.391,-0.249c0.11,-0.111,0.196,-0.252,0.258,-0.422c0.063,-0.17,0.094,-0.369,0.094,-0.599l0,-0.43l-0.621,0.03c-0.262,0.012,-0.48,0.041,-0.656,0.086c-0.175,0.047,-0.317,0.113,-0.423,0.193c-0.105,0.084,-0.183,0.185,-0.229,0.301c-0.046,0.117,-0.068,0.25,-0.068,0.398c0,0.268,0.069,0.462,0.211,0.586C383.771,496.312,383.955,496.375,384.184,496.375z"/>
   <path fill="#8C8C8C"  d="M390.617,496.287l-0.034,0c-0.063,0.099,-0.139,0.191,-0.224,0.281c-0.085,0.088,-0.184,0.165,-0.296,0.231c-0.111,0.066,-0.237,0.118,-0.376,0.156c-0.139,0.037,-0.295,0.056,-0.47,0.056c-0.271,0,-0.517,-0.051,-0.738,-0.154c-0.223,-0.105,-0.416,-0.262,-0.575,-0.469s-0.282,-0.464,-0.369,-0.771c-0.087,-0.309,-0.13,-0.664,-0.13,-1.069c0,-0.408,0.043,-0.767,0.13,-1.076c0.086,-0.31,0.209,-0.567,0.369,-0.774c0.159,-0.209,0.352,-0.367,0.575,-0.473c0.222,-0.105,0.469,-0.158,0.738,-0.158c0.171,0,0.327,0.02,0.466,0.057s0.264,0.088,0.376,0.152c0.112,0.063,0.211,0.137,0.297,0.221s0.163,0.172,0.227,0.266l0.052,0c-0.009,-0.1,-0.018,-0.191,-0.026,-0.283c-0.006,-0.074,-0.012,-0.152,-0.018,-0.232c-0.005,-0.078,-0.009,-0.143,-0.009,-0.188L390.582,490.163l0.792,0l0,6.763l-0.641,0L390.617,496.287zM389.369,496.358c0.221,0,0.407,-0.033,0.56,-0.102c0.151,-0.065,0.274,-0.168,0.37,-0.304c0.094,-0.136,0.163,-0.308,0.209,-0.512c0.044,-0.204,0.069,-0.442,0.076,-0.716l0,-0.177c0,-0.292,-0.02,-0.552,-0.059,-0.78c-0.04,-0.229,-0.105,-0.418,-0.2,-0.574c-0.094,-0.154,-0.219,-0.271,-0.376,-0.351c-0.156,-0.08,-0.352,-0.119,-0.586,-0.119c-0.391,0,-0.679,0.157,-0.861,0.474c-0.185,0.315,-0.277,0.771,-0.277,1.359c0,0.605,0.092,1.058,0.277,1.354C388.682,496.208,388.972,496.358,389.369,496.358z"/>
   <path fill="#8C8C8C"  d="M394.771,497.012c-0.318,0,-0.609,-0.053,-0.874,-0.16c-0.263,-0.106,-0.49,-0.264,-0.68,-0.469c-0.19,-0.207,-0.338,-0.461,-0.442,-0.766c-0.104,-0.306,-0.156,-0.651,-0.156,-1.045s0.049,-0.744,0.144,-1.055c0.096,-0.311,0.229,-0.574,0.405,-0.789c0.174,-0.216,0.382,-0.381,0.623,-0.492c0.241,-0.113,0.51,-0.17,0.802,-0.17c0.287,0,0.545,0.051,0.772,0.153c0.229,0.104,0.423,0.248,0.583,0.435c0.159,0.188,0.282,0.412,0.367,0.674c0.087,0.263,0.13,0.554,0.13,0.873l0,0.49l-3.008,0c0.015,0.559,0.133,0.971,0.354,1.234c0.222,0.263,0.551,0.396,0.987,0.396c0.149,0,0.285,-0.008,0.411,-0.021s0.248,-0.035,0.365,-0.063c0.118,-0.026,0.23,-0.063,0.342,-0.104s0.222,-0.089,0.334,-0.142l0,0.704c-0.116,0.055,-0.229,0.104,-0.341,0.144c-0.112,0.041,-0.226,0.074,-0.343,0.102c-0.117,0.024,-0.239,0.045,-0.365,0.056S394.92,497.012,394.771,497.012zM394.576,492.724c-0.331,0,-0.592,0.112,-0.783,0.339c-0.193,0.227,-0.307,0.555,-0.338,0.985l2.14,0c0,-0.196,-0.021,-0.378,-0.06,-0.541c-0.039,-0.164,-0.1,-0.304,-0.183,-0.419s-0.187,-0.205,-0.315,-0.27C394.909,492.754,394.756,492.724,394.576,492.724z"/>
   <path fill="#8C8C8C"  d="M403.585,496.926l-0.729,-2.678c-0.012,-0.053,-0.026,-0.111,-0.044,-0.176c-0.017,-0.065,-0.034,-0.136,-0.051,-0.207c-0.019,-0.072,-0.036,-0.146,-0.055,-0.223c-0.02,-0.074,-0.037,-0.148,-0.055,-0.222c-0.041,-0.169,-0.083,-0.341,-0.126,-0.521l-0.024,0c-0.041,0.182,-0.08,0.356,-0.117,0.524c-0.032,0.146,-0.066,0.294,-0.104,0.448c-0.037,0.152,-0.069,0.283,-0.103,0.391l-0.75,2.66l-0.917,0l-1.221,-4.771l0.83,0l0.57,2.539c0.029,0.129,0.059,0.27,0.086,0.423c0.028,0.151,0.057,0.303,0.082,0.452c0.026,0.148,0.05,0.288,0.07,0.421c0.02,0.132,0.037,0.238,0.049,0.322l0.025,0c0.015,-0.074,0.034,-0.177,0.059,-0.302c0.025,-0.126,0.052,-0.26,0.083,-0.399c0.031,-0.141,0.063,-0.28,0.093,-0.417c0.032,-0.139,0.063,-0.254,0.091,-0.351l0.778,-2.69l0.853,0l0.748,2.69c0.025,0.098,0.056,0.215,0.089,0.348c0.033,0.135,0.065,0.27,0.098,0.407c0.032,0.139,0.061,0.271,0.087,0.397c0.025,0.127,0.045,0.231,0.056,0.315l0.026,0c0.01,-0.074,0.022,-0.177,0.042,-0.302c0.02,-0.126,0.042,-0.265,0.067,-0.415c0.025,-0.149,0.054,-0.306,0.084,-0.464c0.03,-0.157,0.062,-0.306,0.094,-0.44L404.945,492.153l0.809,0l-1.234,4.771L403.585,496.924L403.585,496.926z"/>
   <path fill="#8C8C8C"  d="M406.54,490.863c0,-0.175,0.045,-0.3,0.133,-0.379c0.088,-0.078,0.197,-0.117,0.328,-0.117c0.063,0,0.123,0.011,0.181,0.028c0.056,0.019,0.104,0.049,0.147,0.089c0.042,0.041,0.075,0.092,0.101,0.154c0.023,0.063,0.037,0.137,0.037,0.224c0,0.168,-0.045,0.293,-0.138,0.376c-0.092,0.083,-0.2,0.123,-0.327,0.123c-0.131,0,-0.24,-0.04,-0.328,-0.12C406.586,491.16,406.54,491.033,406.54,490.863zM407.392,496.926l-0.791,0L406.601,492.153l0.791,0L407.392,496.926z"/>
   <path fill="#8C8C8C"  d="M410.348,496.365c0.052,0,0.111,-0.003,0.176,-0.01c0.066,-0.006,0.128,-0.013,0.189,-0.021c0.061,-0.009,0.116,-0.019,0.167,-0.031c0.051,-0.011,0.089,-0.021,0.115,-0.028l0,0.6c-0.037,0.017,-0.085,0.035,-0.144,0.052c-0.059,0.018,-0.122,0.033,-0.191,0.046c-0.068,0.015,-0.142,0.022,-0.217,0.03s-0.148,0.011,-0.221,0.011c-0.18,0,-0.347,-0.021,-0.5,-0.068c-0.153,-0.048,-0.286,-0.126,-0.397,-0.239c-0.111,-0.112,-0.198,-0.267,-0.263,-0.458c-0.063,-0.192,-0.095,-0.437,-0.095,-0.729L408.967,492.749l-0.674,0L408.293,492.397l0.673,-0.339l0.339,-0.999l0.456,0l0,1.096l1.199,0l0,0.596l-1.199,0l0,2.769c0,0.281,0.045,0.492,0.137,0.636C409.99,496.294,410.139,496.365,410.348,496.365z"/>
   <path fill="#8C8C8C"  d="M414.903,496.926l0,-3.073c0,-0.377,-0.076,-0.659,-0.228,-0.848c-0.152,-0.188,-0.391,-0.282,-0.715,-0.282c-0.234,0,-0.433,0.037,-0.592,0.111c-0.158,0.076,-0.286,0.188,-0.384,0.336c-0.097,0.148,-0.166,0.328,-0.208,0.544c-0.042,0.214,-0.063,0.461,-0.063,0.739l0,2.473l-0.791,0L411.922,490.163l0.791,0l0,2.008l-0.034,0.626l0.044,0c0.072,-0.124,0.158,-0.232,0.258,-0.323s0.209,-0.167,0.328,-0.229c0.118,-0.061,0.245,-0.104,0.378,-0.135c0.133,-0.027,0.27,-0.043,0.408,-0.043c0.531,0,0.93,0.139,1.198,0.416c0.268,0.275,0.401,0.719,0.401,1.326l0,3.117L414.903,496.926L414.903,496.926z"/>
  </g>
  <g >
   <path fill="#8C8C8C"  d="M436.663,496.91l-1.324,0L435.339,490.556l3.642,0l0,1.104l-2.316,0l0,1.639l2.156,0l0,1.1l-2.156,0L436.663,496.91L436.663,496.91z"/>
   <path fill="#8C8C8C"  d="M442.696,491.96c0.035,0,0.074,0.002,0.116,0.002c0.042,0.002,0.083,0.006,0.12,0.01c0.041,0.005,0.076,0.009,0.11,0.014c0.031,0.004,0.059,0.01,0.075,0.016l0,1.244c-0.022,-0.008,-0.056,-0.012,-0.095,-0.018c-0.04,-0.007,-0.083,-0.012,-0.128,-0.018c-0.045,-0.004,-0.09,-0.006,-0.133,-0.008c-0.044,-0.002,-0.08,-0.002,-0.108,-0.002c-0.171,0,-0.328,0.021,-0.472,0.064c-0.146,0.043,-0.269,0.113,-0.37,0.211s-0.183,0.225,-0.239,0.383c-0.057,0.157,-0.084,0.352,-0.084,0.581l0,2.474l-1.326,0L440.162,492.051l1.005,0l0.194,0.73l0.066,0c0.068,-0.125,0.145,-0.238,0.226,-0.34c0.081,-0.103,0.172,-0.189,0.272,-0.259c0.1,-0.071,0.212,-0.126,0.338,-0.165C442.389,491.98,442.535,491.96,442.696,491.96z"/>
   <path fill="#8C8C8C"  d="M444.014,490.795c0,-0.125,0.018,-0.228,0.056,-0.311c0.038,-0.084,0.089,-0.15,0.154,-0.2c0.065,-0.051,0.142,-0.086,0.229,-0.106c0.088,-0.02,0.184,-0.03,0.281,-0.03c0.099,0,0.191,0.01,0.277,0.03c0.088,0.02,0.164,0.055,0.229,0.106c0.066,0.05,0.117,0.116,0.156,0.2c0.04,0.083,0.059,0.186,0.059,0.311c0,0.122,-0.019,0.225,-0.059,0.309c-0.039,0.084,-0.09,0.151,-0.156,0.203c-0.063,0.05,-0.142,0.086,-0.229,0.108c-0.086,0.021,-0.18,0.032,-0.277,0.032c-0.099,0,-0.191,-0.012,-0.281,-0.032c-0.088,-0.021,-0.164,-0.059,-0.229,-0.108c-0.065,-0.051,-0.116,-0.119,-0.154,-0.203C444.033,491.02,444.014,490.917,444.014,490.795zM445.396,496.91l-1.325,0L444.071,492.051l1.325,0L445.396,496.91z"/>
   <path fill="#8C8C8C"  d="M448.805,495.941c0.13,0,0.254,-0.016,0.371,-0.045c0.117,-0.027,0.235,-0.064,0.357,-0.107l0,0.986c-0.124,0.063,-0.278,0.116,-0.463,0.157c-0.184,0.042,-0.385,0.063,-0.603,0.063c-0.211,0,-0.408,-0.024,-0.59,-0.073c-0.185,-0.05,-0.342,-0.137,-0.476,-0.259c-0.133,-0.123,-0.237,-0.288,-0.313,-0.495c-0.077,-0.208,-0.114,-0.468,-0.114,-0.781L446.974,493.046l-0.636,0L446.338,492.485l0.729,-0.443l0.383,-1.024l0.848,0l0,1.034l1.184,0l0,0.995l-1.184,0l0,2.343c0,0.188,0.048,0.327,0.141,0.417C448.532,495.896,448.654,495.941,448.805,495.941z"/>
   <path fill="#8C8C8C"  d="M453.678,496.91L450.105,496.91l0,-0.781l1.985,-3.064l-1.853,0L450.237,492.051l3.355,0l0,0.859l-1.92,2.985l2.004,0L453.678,496.91L453.678,496.91z"/>
   <path fill="#8C8C8C"  d="M454.617,490.795c0,-0.125,0.02,-0.228,0.057,-0.311c0.038,-0.084,0.09,-0.15,0.153,-0.2c0.065,-0.051,0.144,-0.086,0.23,-0.106s0.182,-0.03,0.28,-0.03c0.098,0,0.19,0.01,0.277,0.03c0.088,0.02,0.164,0.055,0.229,0.106c0.064,0.05,0.117,0.116,0.156,0.2c0.038,0.083,0.059,0.186,0.059,0.311c0,0.122,-0.021,0.225,-0.059,0.309c-0.039,0.084,-0.092,0.151,-0.156,0.203c-0.064,0.05,-0.143,0.086,-0.229,0.108c-0.086,0.021,-0.18,0.032,-0.277,0.032c-0.099,0,-0.192,-0.012,-0.28,-0.032c-0.088,-0.021,-0.165,-0.059,-0.23,-0.108c-0.063,-0.051,-0.115,-0.119,-0.153,-0.203C454.636,491.02,454.617,490.917,454.617,490.795zM455.999,496.91L454.675,496.91L454.675,492.051l1.324,0L455.999,496.91z"/>
   <path fill="#8C8C8C"  d="M461.649,496.91L460.325,496.91l0,-2.839c0,-0.351,-0.053,-0.613,-0.158,-0.787c-0.105,-0.176,-0.274,-0.265,-0.508,-0.265c-0.173,0,-0.317,0.035,-0.434,0.104c-0.116,0.07,-0.209,0.173,-0.276,0.31c-0.066,0.136,-0.115,0.304,-0.146,0.504c-0.029,0.2,-0.043,0.429,-0.043,0.687l0,2.286L457.435,496.91L457.435,492.051l1.012,0l0.181,0.621l0.073,0c0.069,-0.124,0.153,-0.23,0.253,-0.321c0.102,-0.089,0.21,-0.163,0.328,-0.221s0.245,-0.103,0.378,-0.128c0.136,-0.028,0.271,-0.043,0.409,-0.043c0.237,0,0.454,0.033,0.647,0.104c0.194,0.067,0.36,0.174,0.5,0.318c0.141,0.146,0.247,0.328,0.321,0.555c0.075,0.225,0.113,0.492,0.113,0.807l0,3.168L461.649,496.91L461.649,496.91z"/>
   <path fill="#8C8C8C"  d="M467.079,492.06l0,0.722l-0.708,0.221c0.059,0.1,0.1,0.201,0.122,0.308c0.021,0.106,0.033,0.22,0.033,0.343c0,0.246,-0.039,0.471,-0.116,0.676c-0.078,0.203,-0.193,0.379,-0.349,0.522c-0.152,0.146,-0.346,0.258,-0.578,0.337c-0.23,0.08,-0.5,0.119,-0.808,0.119c-0.067,0,-0.141,-0.003,-0.218,-0.012c-0.078,-0.007,-0.137,-0.015,-0.175,-0.021c-0.057,0.049,-0.104,0.101,-0.137,0.152c-0.033,0.054,-0.049,0.117,-0.049,0.193c0,0.061,0.018,0.108,0.056,0.146s0.087,0.065,0.147,0.087c0.06,0.022,0.133,0.036,0.214,0.044s0.165,0.012,0.251,0.012l0.756,0c0.236,0,0.446,0.025,0.631,0.081c0.186,0.055,0.342,0.135,0.472,0.246c0.129,0.109,0.229,0.249,0.299,0.419c0.069,0.169,0.104,0.372,0.104,0.605c0,0.275,-0.054,0.523,-0.164,0.745c-0.109,0.224,-0.274,0.41,-0.494,0.565c-0.219,0.154,-0.488,0.273,-0.813,0.355c-0.324,0.082,-0.699,0.123,-1.126,0.123c-0.329,0,-0.618,-0.031,-0.864,-0.094c-0.247,-0.063,-0.451,-0.15,-0.617,-0.27c-0.165,-0.116,-0.288,-0.258,-0.371,-0.424c-0.084,-0.164,-0.125,-0.353,-0.125,-0.561c0,-0.177,0.031,-0.33,0.093,-0.46c0.061,-0.131,0.143,-0.243,0.243,-0.336c0.102,-0.093,0.218,-0.168,0.347,-0.227c0.129,-0.058,0.262,-0.103,0.396,-0.134c-0.061,-0.026,-0.12,-0.063,-0.181,-0.109c-0.059,-0.047,-0.113,-0.1,-0.161,-0.159c-0.047,-0.063,-0.086,-0.129,-0.116,-0.203c-0.031,-0.072,-0.047,-0.15,-0.047,-0.23c0,-0.093,0.015,-0.178,0.04,-0.252c0.029,-0.076,0.068,-0.146,0.12,-0.212c0.052,-0.064,0.117,-0.126,0.196,-0.184c0.078,-0.06,0.166,-0.117,0.264,-0.18c-0.254,-0.11,-0.456,-0.287,-0.604,-0.53c-0.15,-0.244,-0.225,-0.529,-0.225,-0.859c0,-0.26,0.04,-0.494,0.121,-0.699c0.081,-0.207,0.2,-0.381,0.356,-0.523c0.155,-0.144,0.35,-0.252,0.582,-0.328c0.231,-0.076,0.499,-0.113,0.801,-0.113c0.057,0,0.122,0.004,0.194,0.012s0.145,0.018,0.216,0.025c0.07,0.01,0.137,0.021,0.196,0.033c0.061,0.01,0.109,0.021,0.146,0.029L467.079,492.06L467.079,492.06zM463.602,497.597c0,0.073,0.017,0.145,0.047,0.211c0.03,0.068,0.08,0.129,0.15,0.182c0.068,0.052,0.16,0.094,0.272,0.124c0.113,0.03,0.252,0.046,0.417,0.046c0.452,0,0.792,-0.063,1.021,-0.191c0.229,-0.127,0.343,-0.298,0.343,-0.514c0,-0.183,-0.07,-0.304,-0.213,-0.364c-0.143,-0.06,-0.361,-0.091,-0.66,-0.091l-0.613,0c-0.077,0,-0.162,0.009,-0.252,0.027c-0.09,0.018,-0.172,0.052,-0.248,0.099c-0.075,0.046,-0.139,0.108,-0.188,0.184S463.602,497.482,463.602,497.597zM464.081,493.642c0,0.263,0.049,0.468,0.147,0.612c0.098,0.146,0.248,0.217,0.447,0.217c0.209,0,0.358,-0.07,0.451,-0.217c0.094,-0.145,0.14,-0.35,0.14,-0.612c0,-0.261,-0.046,-0.468,-0.137,-0.622c-0.092,-0.152,-0.243,-0.229,-0.454,-0.229C464.278,492.79,464.081,493.073,464.081,493.642z"/>
   <path fill="#8C8C8C"  d="M467.829,496.289c0,-0.136,0.02,-0.251,0.059,-0.346c0.04,-0.095,0.094,-0.172,0.163,-0.229c0.069,-0.058,0.149,-0.101,0.244,-0.126c0.092,-0.026,0.191,-0.039,0.299,-0.039c0.102,0,0.198,0.013,0.289,0.039c0.092,0.025,0.172,0.068,0.242,0.126c0.068,0.057,0.123,0.134,0.163,0.229c0.041,0.095,0.062,0.21,0.062,0.346c0,0.13,-0.021,0.242,-0.062,0.335c-0.04,0.093,-0.095,0.17,-0.163,0.229c-0.07,0.062,-0.15,0.104,-0.242,0.133c-0.091,0.027,-0.188,0.042,-0.289,0.042c-0.106,0,-0.207,-0.015,-0.299,-0.042c-0.095,-0.027,-0.175,-0.071,-0.244,-0.133c-0.069,-0.061,-0.123,-0.138,-0.163,-0.229C467.847,496.531,467.829,496.419,467.829,496.289z"/>
   <path fill="#8C8C8C"  d="M474.788,494.471c0,0.406,-0.052,0.767,-0.153,1.079c-0.104,0.313,-0.251,0.576,-0.443,0.79c-0.192,0.215,-0.428,0.378,-0.704,0.489c-0.277,0.111,-0.587,0.167,-0.933,0.167c-0.321,0,-0.617,-0.056,-0.886,-0.167c-0.271,-0.112,-0.503,-0.274,-0.698,-0.489c-0.195,-0.214,-0.35,-0.479,-0.458,-0.79c-0.11,-0.313,-0.165,-0.673,-0.165,-1.079c0,-0.402,0.051,-0.76,0.154,-1.072c0.103,-0.314,0.25,-0.576,0.442,-0.789C471.136,492.396,471.37,492.235,471.645,492.126s0.587,-0.164,0.937,-0.164c0.319,0,0.615,0.055,0.886,0.164c0.27,0.111,0.502,0.271,0.695,0.484c0.197,0.213,0.351,0.477,0.459,0.789C474.732,493.711,474.788,494.069,474.788,494.471zM471.702,494.471c0,0.484,0.068,0.851,0.205,1.093c0.137,0.246,0.357,0.368,0.664,0.368c0.306,0,0.524,-0.123,0.66,-0.37c0.137,-0.245,0.205,-0.608,0.205,-1.091s-0.068,-0.846,-0.205,-1.084c-0.136,-0.238,-0.358,-0.357,-0.668,-0.357c-0.305,0,-0.523,0.119,-0.659,0.357C471.769,493.626,471.702,493.989,471.702,494.471z"/>
   <path fill="#8C8C8C"  d="M478.508,491.96c0.035,0,0.073,0.002,0.115,0.002c0.042,0.002,0.083,0.006,0.12,0.01c0.04,0.005,0.076,0.009,0.109,0.014c0.033,0.004,0.059,0.01,0.076,0.016l0,1.244c-0.023,-0.008,-0.055,-0.012,-0.095,-0.018c-0.041,-0.007,-0.083,-0.012,-0.13,-0.018c-0.045,-0.004,-0.089,-0.006,-0.132,-0.008c-0.045,-0.002,-0.08,-0.002,-0.108,-0.002c-0.171,0,-0.328,0.021,-0.473,0.064c-0.144,0.043,-0.267,0.113,-0.37,0.211c-0.102,0.098,-0.182,0.225,-0.237,0.383c-0.058,0.157,-0.084,0.352,-0.084,0.581l0,2.474l-1.326,0L475.973,492.051l1.004,0l0.195,0.73l0.065,0c0.068,-0.125,0.146,-0.238,0.226,-0.34c0.081,-0.103,0.172,-0.189,0.271,-0.259c0.101,-0.071,0.213,-0.126,0.339,-0.165C478.202,491.98,478.346,491.96,478.508,491.96z"/>
   <path fill="#8C8C8C"  d="M483.816,492.06l0,0.722l-0.708,0.221c0.058,0.1,0.099,0.201,0.121,0.308s0.034,0.22,0.034,0.343c0,0.246,-0.039,0.471,-0.116,0.676c-0.079,0.203,-0.194,0.379,-0.349,0.522c-0.153,0.146,-0.348,0.258,-0.578,0.337c-0.232,0.08,-0.501,0.119,-0.809,0.119c-0.067,0,-0.141,-0.003,-0.219,-0.012c-0.078,-0.007,-0.135,-0.015,-0.173,-0.021c-0.058,0.049,-0.104,0.101,-0.137,0.152c-0.034,0.054,-0.05,0.117,-0.05,0.193c0,0.061,0.019,0.108,0.057,0.146c0.037,0.037,0.086,0.065,0.146,0.087c0.062,0.021,0.133,0.036,0.215,0.044c0.08,0.008,0.164,0.012,0.251,0.012l0.756,0c0.234,0,0.445,0.025,0.63,0.081c0.186,0.055,0.343,0.135,0.472,0.246c0.129,0.109,0.229,0.249,0.298,0.419c0.07,0.169,0.104,0.372,0.104,0.605c0,0.275,-0.054,0.523,-0.165,0.745c-0.109,0.224,-0.275,0.41,-0.493,0.565c-0.219,0.154,-0.489,0.273,-0.815,0.355c-0.323,0.082,-0.698,0.123,-1.125,0.123c-0.329,0,-0.617,-0.031,-0.864,-0.094c-0.246,-0.063,-0.451,-0.15,-0.617,-0.27c-0.164,-0.116,-0.287,-0.258,-0.371,-0.424c-0.083,-0.164,-0.124,-0.353,-0.124,-0.561c0,-0.177,0.03,-0.33,0.091,-0.46c0.063,-0.131,0.144,-0.243,0.244,-0.336c0.103,-0.093,0.217,-0.168,0.346,-0.227c0.129,-0.058,0.263,-0.103,0.398,-0.134c-0.062,-0.026,-0.121,-0.063,-0.182,-0.109c-0.06,-0.047,-0.113,-0.1,-0.16,-0.159c-0.047,-0.063,-0.087,-0.129,-0.117,-0.203c-0.03,-0.073,-0.045,-0.151,-0.045,-0.231c0,-0.093,0.014,-0.178,0.04,-0.252c0.027,-0.076,0.067,-0.146,0.12,-0.212c0.051,-0.064,0.117,-0.126,0.194,-0.184c0.078,-0.06,0.166,-0.117,0.266,-0.18c-0.255,-0.109,-0.456,-0.287,-0.606,-0.529c-0.148,-0.244,-0.223,-0.531,-0.223,-0.861c0,-0.26,0.039,-0.493,0.121,-0.698c0.081,-0.207,0.199,-0.382,0.354,-0.524c0.156,-0.143,0.351,-0.252,0.583,-0.328c0.231,-0.074,0.499,-0.111,0.8,-0.111c0.059,0,0.123,0.003,0.195,0.011s0.146,0.017,0.215,0.026c0.072,0.009,0.138,0.021,0.198,0.031c0.062,0.012,0.108,0.021,0.145,0.03L483.816,492.059L483.816,492.06zM480.34,497.597c0,0.073,0.017,0.145,0.046,0.211c0.031,0.068,0.081,0.129,0.149,0.182c0.07,0.052,0.161,0.094,0.273,0.124c0.114,0.03,0.252,0.046,0.418,0.046c0.451,0,0.792,-0.063,1.021,-0.191c0.229,-0.127,0.343,-0.298,0.343,-0.514c0,-0.183,-0.071,-0.304,-0.214,-0.364s-0.361,-0.091,-0.66,-0.091l-0.612,0c-0.079,0,-0.163,0.009,-0.252,0.027c-0.09,0.019,-0.173,0.052,-0.248,0.099c-0.076,0.046,-0.139,0.108,-0.188,0.184C480.366,497.384,480.34,497.482,480.34,497.597zM480.817,493.642c0,0.263,0.049,0.468,0.148,0.612c0.099,0.146,0.248,0.217,0.447,0.217c0.209,0,0.358,-0.07,0.451,-0.217c0.094,-0.145,0.141,-0.35,0.141,-0.612c0,-0.261,-0.046,-0.468,-0.138,-0.622c-0.092,-0.152,-0.243,-0.229,-0.454,-0.229C481.015,492.79,480.817,493.073,480.817,493.642z"/>
  </g>
  <g >
   <path fill="#8C8C8C"  d="M429.41,489.18l-8.146,0c-0.532,0,-0.965,0.432,-0.965,0.964l0,8.146c0,0.531,0.433,0.964,0.965,0.964l5.55,0l3.557,-3.558L430.371,490.144C430.374,489.611,429.942,489.18,429.41,489.18zM427.733,492.909l-1.075,0l0,0.401l1.075,0l0,1.601l-2.196,0l0,2.058l-2.572,0l0,-4.67l0.988,-0.99l3.779,0l0,1.603l0.001,0L427.733,492.909z"/>
  </g>
 </g>
 <g partID="27030">
  <g transform="translate(459.352,268.348)">
   <g transform="matrix(-1,0,0,-1,0,0)">
    <g  id="schematic">
     <rect width="1.893" x="5.474" y="1.089"  height="9.783" id="connector0pin"/>
     <g width="0.866" x="5.952" y="0.406"  height="0.686" id="connector0terminal"/>
     <rect width="1.894" x="5.477" y="54.369"  height="9.783" id="connector1pin"/>
     <g width="0.866" x="5.956" y="64.082"  height="0.688" id="connector1terminal"/>
     <g >
      <polyline fill="#FFFFFF" points="6.405,1.132,6.405,20.392,9.905,22.255,2.655,26.291,9.905,30.324,2.655,34.359,9.905,38.392,2.655,42.427,6.405,44.599,6.405,63.861"  stroke="#000000" stroke-linecap="round" stroke-width="2.2284"/>
     </g>
    </g>
   </g>
  </g>
 </g>
 <g partID="24050">
  <g transform="translate(346.029,193.312)">
   <g transform="matrix(0,-1,1,0,0,0)">
    <g  id="schematic">
     <g width="0.208" x="10.632" y="0.525"  height="0.208" id="connector1terminal"/>
     <g width="0.208" x="10.648" y="64.314"  height="0.207" id="connector0terminal"/>
     <rect width="1.375" x="10.028" y="0.421"  height="10.339" id="connector1pin"/>
     <rect width="1.375" x="10.028" y="53"  height="11.767" id="connector0pin"/>
     <line fill="none"  stroke="#000000" stroke-linecap="round" y1="41.171" stroke-width="2.4" x1="10.752" y2="64.123" x2="10.752"/>
     <line fill="none"  stroke="#000000" stroke-linecap="round" y1="41.683" stroke-width="2.4" x1="21.171" y2="41.683" x2="0.333"/>
     <line fill="none"  stroke="#000000" stroke-linecap="round" y1="0.731" stroke-width="2.4" x1="10.752" y2="22.393" x2="10.752"/>
     <polygon fill="none" points="10.752,41.638,5.486,32.515,0.218,23.393,10.752,23.393,21.285,23.393,16.02,32.515"  stroke="#000000" stroke-linejoin="round" stroke-linecap="round" stroke-width="2.4"/>
     <path  d="M27.775,47.148l2.558,-2.037l1.465,-1.169l1.091,-0.871l3.461,9.58L27.775,47.148L27.775,47.148z"/>
     <path  d="M21.226,52.138l2.556,-2.039l1.464,-1.168l1.09,-0.87l3.469,9.581L21.226,52.138L21.226,52.138z"/>
     <line fill="none"  stroke="#000000" stroke-linecap="round" y1="37.577" stroke-width="2.4" x1="24.281" y2="48.061" x2="32.948"/>
     <line fill="none"  stroke="#000000" stroke-linecap="round" y1="45.54" stroke-width="2.4" x1="19.948" y2="52.274" x2="25.515"/>
    </g>
   </g>
  </g>
 </g>
 <g partID="19340">
  <g transform="translate(132.989,11.2)">
   <g  id="schematic">
    <rect width="84.96" x="22.68" y="1.08" fill="none"  height="318.6" stroke="#000000" stroke-linejoin="round" stroke-linecap="round" stroke-width="2.16"/>
    <text x="64.8" y="33.48" font-family="Droid Sans" fill="#000000"  text-anchor="middle" stroke="none" id="label" font-size="16.92">PIC16F886</text>
    <line fill="none"  stroke="#000000" stroke-linejoin="round" stroke-linecap="round" y1="22.68" stroke-width="2.16" x1="1.08" y2="22.68" x2="21.6"/>
    <rect width="21.6" x="0" y="21.6" fill="none"  height="2.16" stroke="none" id="connector0pin" stroke-width="0"/>
    <g width="2.16" x="0" y="21.6" fill="none"  height="2.16" stroke="none" id="connector0terminal" stroke-width="0"/>
    <text x="28.08" y="25.2" font-family="Droid Sans" fill="#000000"  text-anchor="start" stroke="none" id="label0" font-size="9.36">1</text>
    <line fill="none"  stroke="#000000" stroke-linejoin="round" stroke-linecap="round" y1="22.68" stroke-width="2.16" x1="108" y2="22.68" x2="128.52"/>
    <rect width="21.6" x="108" y="21.6" fill="none"  height="2.16" stroke="none" id="connector27pin" stroke-width="0"/>
    <g width="2.16" x="127.44" y="21.6" fill="none"  height="2.16" stroke="none" id="connector27terminal" stroke-width="0"/>
    <text x="101.52" y="25.2" font-family="Droid Sans" fill="#000000"  text-anchor="end" stroke="none" id="label27" font-size="9.36">28</text>
    <line fill="none"  stroke="#000000" stroke-linejoin="round" stroke-linecap="round" y1="43.92" stroke-width="2.16" x1="1.08" y2="43.92" x2="21.6"/>
    <rect width="21.6" x="0" y="42.84" fill="none"  height="2.16" stroke="none" id="connector1pin" stroke-width="0"/>
    <g width="2.16" x="0" y="42.84" fill="none"  height="2.16" stroke="none" id="connector1terminal" stroke-width="0"/>
    <text x="28.08" y="46.44" font-family="Droid Sans" fill="#000000"  text-anchor="start" stroke="none" id="label1" font-size="9.36">2</text>
    <line fill="none"  stroke="#000000" stroke-linejoin="round" stroke-linecap="round" y1="43.92" stroke-width="2.16" x1="108" y2="43.92" x2="128.52"/>
    <rect width="21.6" x="108" y="42.84" fill="none"  height="2.16" stroke="none" id="connector26pin" stroke-width="0"/>
    <g width="2.16" x="127.44" y="42.84" fill="none"  height="2.16" stroke="none" id="connector26terminal" stroke-width="0"/>
    <text x="101.52" y="46.44" font-family="Droid Sans" fill="#000000"  text-anchor="end" stroke="none" id="label26" font-size="9.36">27</text>
    <line fill="none"  stroke="#000000" stroke-linejoin="round" stroke-linecap="round" y1="65.16" stroke-width="2.16" x1="1.08" y2="65.16" x2="21.6"/>
    <rect width="21.6" x="0" y="64.08" fill="none"  height="2.16" stroke="none" id="connector2pin" stroke-width="0"/>
    <g width="2.16" x="0" y="64.08" fill="none"  height="2.16" stroke="none" id="connector2terminal" stroke-width="0"/>
    <text x="28.08" y="67.68" font-family="Droid Sans" fill="#000000"  text-anchor="start" stroke="none" id="label2" font-size="9.36">3</text>
    <line fill="none"  stroke="#000000" stroke-linejoin="round" stroke-linecap="round" y1="65.16" stroke-width="2.16" x1="108" y2="65.16" x2="128.52"/>
    <rect width="21.6" x="108" y="64.08" fill="none"  height="2.16" stroke="none" id="connector25pin" stroke-width="0"/>
    <g width="2.16" x="127.44" y="64.08" fill="none"  height="2.16" stroke="none" id="connector25terminal" stroke-width="0"/>
    <text x="101.52" y="67.68" font-family="Droid Sans" fill="#000000"  text-anchor="end" stroke="none" id="label25" font-size="9.36">26</text>
    <line fill="none"  stroke="#000000" stroke-linejoin="round" stroke-linecap="round" y1="86.4" stroke-width="2.16" x1="1.08" y2="86.4" x2="21.6"/>
    <rect width="21.6" x="0" y="85.32" fill="none"  height="2.16" stroke="none" id="connector3pin" stroke-width="0"/>
    <g width="2.16" x="0" y="85.32" fill="none"  height="2.16" stroke="none" id="connector3terminal" stroke-width="0"/>
    <text x="28.08" y="88.92" font-family="Droid Sans" fill="#000000"  text-anchor="start" stroke="none" id="label3" font-size="9.36">4</text>
    <line fill="none"  stroke="#000000" stroke-linejoin="round" stroke-linecap="round" y1="86.4" stroke-width="2.16" x1="108" y2="86.4" x2="128.52"/>
    <rect width="21.6" x="108" y="85.32" fill="none"  height="2.16" stroke="none" id="connector24pin" stroke-width="0"/>
    <g width="2.16" x="127.44" y="85.32" fill="none"  height="2.16" stroke="none" id="connector24terminal" stroke-width="0"/>
    <text x="101.52" y="88.92" font-family="Droid Sans" fill="#000000"  text-anchor="end" stroke="none" id="label24" font-size="9.36">25</text>
    <line fill="none"  stroke="#000000" stroke-linejoin="round" stroke-linecap="round" y1="107.64" stroke-width="2.16" x1="1.08" y2="107.64" x2="21.6"/>
    <rect width="21.6" x="0" y="106.56" fill="none"  height="2.16" stroke="none" id="connector4pin" stroke-width="0"/>
    <g width="2.16" x="0" y="106.56" fill="none"  height="2.16" stroke="none" id="connector4terminal" stroke-width="0"/>
    <text x="28.08" y="110.16" font-family="Droid Sans" fill="#000000"  text-anchor="start" stroke="none" id="label4" font-size="9.36">5</text>
    <line fill="none"  stroke="#000000" stroke-linejoin="round" stroke-linecap="round" y1="107.64" stroke-width="2.16" x1="108" y2="107.64" x2="128.52"/>
    <rect width="21.6" x="108" y="106.56" fill="none"  height="2.16" stroke="none" id="connector23pin" stroke-width="0"/>
    <g width="2.16" x="127.44" y="106.56" fill="none"  height="2.16" stroke="none" id="connector23terminal" stroke-width="0"/>
    <text x="101.52" y="110.16" font-family="Droid Sans" fill="#000000"  text-anchor="end" stroke="none" id="label23" font-size="9.36">24</text>
    <line fill="none"  stroke="#000000" stroke-linejoin="round" stroke-linecap="round" y1="128.88" stroke-width="2.16" x1="1.08" y2="128.88" x2="21.6"/>
    <rect width="21.6" x="0" y="127.8" fill="none"  height="2.16" stroke="none" id="connector5pin" stroke-width="0"/>
    <g width="2.16" x="0" y="127.8" fill="none"  height="2.16" stroke="none" id="connector5terminal" stroke-width="0"/>
    <text x="28.08" y="131.4" font-family="Droid Sans" fill="#000000"  text-anchor="start" stroke="none" id="label5" font-size="9.36">6</text>
    <line fill="none"  stroke="#000000" stroke-linejoin="round" stroke-linecap="round" y1="128.88" stroke-width="2.16" x1="108" y2="128.88" x2="128.52"/>
    <rect width="21.6" x="108" y="127.8" fill="none"  height="2.16" stroke="none" id="connector22pin" stroke-width="0"/>
    <g width="2.16" x="127.44" y="127.8" fill="none"  height="2.16" stroke="none" id="connector22terminal" stroke-width="0"/>
    <text x="101.52" y="131.4" font-family="Droid Sans" fill="#000000"  text-anchor="end" stroke="none" id="label22" font-size="9.36">23</text>
    <line fill="none"  stroke="#000000" stroke-linejoin="round" stroke-linecap="round" y1="150.12" stroke-width="2.16" x1="1.08" y2="150.12" x2="21.6"/>
    <rect width="21.6" x="0" y="149.04" fill="none"  height="2.16" stroke="none" id="connector6pin" stroke-width="0"/>
    <g width="2.16" x="0" y="149.04" fill="none"  height="2.16" stroke="none" id="connector6terminal" stroke-width="0"/>
    <text x="28.08" y="152.64" font-family="Droid Sans" fill="#000000"  text-anchor="start" stroke="none" id="label6" font-size="9.36">7</text>
    <line fill="none"  stroke="#000000" stroke-linejoin="round" stroke-linecap="round" y1="150.12" stroke-width="2.16" x1="108" y2="150.12" x2="128.52"/>
    <rect width="21.6" x="108" y="149.04" fill="none"  height="2.16" stroke="none" id="connector21pin" stroke-width="0"/>
    <g width="2.16" x="127.44" y="149.04" fill="none"  height="2.16" stroke="none" id="connector21terminal" stroke-width="0"/>
    <text x="101.52" y="152.64" font-family="Droid Sans" fill="#000000"  text-anchor="end" stroke="none" id="label21" font-size="9.36">22</text>
    <line fill="none"  stroke="#000000" stroke-linejoin="round" stroke-linecap="round" y1="171.36" stroke-width="2.16" x1="1.08" y2="171.36" x2="21.6"/>
    <rect width="21.6" x="0" y="170.28" fill="none"  height="2.16" stroke="none" id="connector7pin" stroke-width="0"/>
    <g width="2.16" x="0" y="170.28" fill="none"  height="2.16" stroke="none" id="connector7terminal" stroke-width="0"/>
    <text x="28.08" y="173.88" font-family="Droid Sans" fill="#000000"  text-anchor="start" stroke="none" id="label7" font-size="9.36">8</text>
    <line fill="none"  stroke="#000000" stroke-linejoin="round" stroke-linecap="round" y1="171.36" stroke-width="2.16" x1="108" y2="171.36" x2="128.52"/>
    <rect width="21.6" x="108" y="170.28" fill="none"  height="2.16" stroke="none" id="connector20pin" stroke-width="0"/>
    <g width="2.16" x="127.44" y="170.28" fill="none"  height="2.16" stroke="none" id="connector20terminal" stroke-width="0"/>
    <text x="101.52" y="173.88" font-family="Droid Sans" fill="#000000"  text-anchor="end" stroke="none" id="label20" font-size="9.36">21</text>
    <line fill="none"  stroke="#000000" stroke-linejoin="round" stroke-linecap="round" y1="192.6" stroke-width="2.16" x1="1.08" y2="192.6" x2="21.6"/>
    <rect width="21.6" x="0" y="191.52" fill="none"  height="2.16" stroke="none" id="connector8pin" stroke-width="0"/>
    <g width="2.16" x="0" y="191.52" fill="none"  height="2.16" stroke="none" id="connector8terminal" stroke-width="0"/>
    <text x="28.08" y="195.12" font-family="Droid Sans" fill="#000000"  text-anchor="start" stroke="none" id="label8" font-size="9.36">9</text>
    <line fill="none"  stroke="#000000" stroke-linejoin="round" stroke-linecap="round" y1="192.6" stroke-width="2.16" x1="108" y2="192.6" x2="128.52"/>
    <rect width="21.6" x="108" y="191.52" fill="none"  height="2.16" stroke="none" id="connector19pin" stroke-width="0"/>
    <g width="2.16" x="127.44" y="191.52" fill="none"  height="2.16" stroke="none" id="connector19terminal" stroke-width="0"/>
    <text x="101.52" y="195.12" font-family="Droid Sans" fill="#000000"  text-anchor="end" stroke="none" id="label19" font-size="9.36">20</text>
    <line fill="none"  stroke="#000000" stroke-linejoin="round" stroke-linecap="round" y1="213.84" stroke-width="2.16" x1="1.08" y2="213.84" x2="21.6"/>
    <rect width="21.6" x="0" y="212.76" fill="none"  height="2.16" stroke="none" id="connector9pin" stroke-width="0"/>
    <g width="2.16" x="0" y="212.76" fill="none"  height="2.16" stroke="none" id="connector9terminal" stroke-width="0"/>
    <text x="28.08" y="216.36" font-family="Droid Sans" fill="#000000"  text-anchor="start" stroke="none" id="label9" font-size="9.36">10</text>
    <line fill="none"  stroke="#000000" stroke-linejoin="round" stroke-linecap="round" y1="213.84" stroke-width="2.16" x1="108" y2="213.84" x2="128.52"/>
    <rect width="21.6" x="108" y="212.76" fill="none"  height="2.16" stroke="none" id="connector18pin" stroke-width="0"/>
    <g width="2.16" x="127.44" y="212.76" fill="none"  height="2.16" stroke="none" id="connector18terminal" stroke-width="0"/>
    <text x="101.52" y="216.36" font-family="Droid Sans" fill="#000000"  text-anchor="end" stroke="none" id="label18" font-size="9.36">19</text>
    <line fill="none"  stroke="#000000" stroke-linejoin="round" stroke-linecap="round" y1="235.08" stroke-width="2.16" x1="1.08" y2="235.08" x2="21.6"/>
    <rect width="21.6" x="0" y="234" fill="none"  height="2.16" stroke="none" id="connector10pin" stroke-width="0"/>
    <g width="2.16" x="0" y="234" fill="none"  height="2.16" stroke="none" id="connector10terminal" stroke-width="0"/>
    <text x="28.08" y="237.6" font-family="Droid Sans" fill="#000000"  text-anchor="start" stroke="none" id="label10" font-size="9.36">11</text>
    <line fill="none"  stroke="#000000" stroke-linejoin="round" stroke-linecap="round" y1="235.08" stroke-width="2.16" x1="108" y2="235.08" x2="128.52"/>
    <rect width="21.6" x="108" y="234" fill="none"  height="2.16" stroke="none" id="connector17pin" stroke-width="0"/>
    <g width="2.16" x="127.44" y="234" fill="none"  height="2.16" stroke="none" id="connector17terminal" stroke-width="0"/>
    <text x="101.52" y="237.6" font-family="Droid Sans" fill="#000000"  text-anchor="end" stroke="none" id="label17" font-size="9.36">18</text>
    <line fill="none"  stroke="#000000" stroke-linejoin="round" stroke-linecap="round" y1="256.32" stroke-width="2.16" x1="1.08" y2="256.32" x2="21.6"/>
    <rect width="21.6" x="0" y="255.24" fill="none"  height="2.16" stroke="none" id="connector11pin" stroke-width="0"/>
    <g width="2.16" x="0" y="255.24" fill="none"  height="2.16" stroke="none" id="connector11terminal" stroke-width="0"/>
    <text x="28.08" y="258.84" font-family="Droid Sans" fill="#000000"  text-anchor="start" stroke="none" id="label11" font-size="9.36">12</text>
    <line fill="none"  stroke="#000000" stroke-linejoin="round" stroke-linecap="round" y1="256.32" stroke-width="2.16" x1="108" y2="256.32" x2="128.52"/>
    <rect width="21.6" x="108" y="255.24" fill="none"  height="2.16" stroke="none" id="connector16pin" stroke-width="0"/>
    <g width="2.16" x="127.44" y="255.24" fill="none"  height="2.16" stroke="none" id="connector16terminal" stroke-width="0"/>
    <text x="101.52" y="258.84" font-family="Droid Sans" fill="#000000"  text-anchor="end" stroke="none" id="label16" font-size="9.36">17</text>
    <line fill="none"  stroke="#000000" stroke-linejoin="round" stroke-linecap="round" y1="277.56" stroke-width="2.16" x1="1.08" y2="277.56" x2="21.6"/>
    <rect width="21.6" x="0" y="276.48" fill="none"  height="2.16" stroke="none" id="connector12pin" stroke-width="0"/>
    <g width="2.16" x="0" y="276.48" fill="none"  height="2.16" stroke="none" id="connector12terminal" stroke-width="0"/>
    <text x="28.08" y="280.08" font-family="Droid Sans" fill="#000000"  text-anchor="start" stroke="none" id="label12" font-size="9.36">13</text>
    <line fill="none"  stroke="#000000" stroke-linejoin="round" stroke-linecap="round" y1="277.56" stroke-width="2.16" x1="108" y2="277.56" x2="128.52"/>
    <rect width="21.6" x="108" y="276.48" fill="none"  height="2.16" stroke="none" id="connector15pin" stroke-width="0"/>
    <g width="2.16" x="127.44" y="276.48" fill="none"  height="2.16" stroke="none" id="connector15terminal" stroke-width="0"/>
    <text x="101.52" y="280.08" font-family="Droid Sans" fill="#000000"  text-anchor="end" stroke="none" id="label15" font-size="9.36">16</text>
    <line fill="none"  stroke="#000000" stroke-linejoin="round" stroke-linecap="round" y1="298.8" stroke-width="2.16" x1="1.08" y2="298.8" x2="21.6"/>
    <rect width="21.6" x="0" y="297.72" fill="none"  height="2.16" stroke="none" id="connector13pin" stroke-width="0"/>
    <g width="2.16" x="0" y="297.72" fill="none"  height="2.16" stroke="none" id="connector13terminal" stroke-width="0"/>
    <text x="28.08" y="301.32" font-family="Droid Sans" fill="#000000"  text-anchor="start" stroke="none" id="label13" font-size="9.36">14</text>
    <line fill="none"  stroke="#000000" stroke-linejoin="round" stroke-linecap="round" y1="298.8" stroke-width="2.16" x1="108" y2="298.8" x2="128.52"/>
    <rect width="21.6" x="108" y="297.72" fill="none"  height="2.16" stroke="none" id="connector14pin" stroke-width="0"/>
    <g width="2.16" x="127.44" y="297.72" fill="none"  height="2.16" stroke="none" id="connector14terminal" stroke-width="0"/>
    <text x="101.52" y="301.32" font-family="Droid Sans" fill="#000000"  text-anchor="end" stroke="none" id="label14" font-size="9.36">15</text>
   </g>
  </g>
 </g>
 <g partID="24080">
  <g transform="translate(154.827,367.77)">
   <g  id="schematic">
    <line fill="none"  stroke="#000000" stroke-linejoin="round" id="connector0pin" stroke-linecap="round" y1="27.546" stroke-width="2" x1="23.313" y2="27.546" x2="1.003"/>
    <g width="1.003" y="26.386" fill="none"  height="2.006" id="connector0terminal"/>
    <line fill="none"  stroke="#000000" stroke-linejoin="round" id="connector1pin" stroke-linecap="round" y1="71.832" stroke-width="2" x1="46.036" y2="48.769" x2="46.036"/>
    <g width="2.005" x="45.033" y="71.437" fill="none"  height="1.003" id="connector1terminal"/>
    <line fill="none"  stroke="#000000" stroke-linejoin="round" id="connector2pin" stroke-linecap="round" y1="27.546" stroke-width="2" x1="91.571" y2="27.546" x2="68.508"/>
    <g width="1.004" x="91.249" y="26.386" fill="none"  height="2.006" id="connector2terminal"/>
    <rect width="44.078" x="24.135" y="9.095" fill="none"  height="39.063" stroke="#000000" stroke-linejoin="round" id="rect17" stroke-linecap="round" stroke-width="2"/>
   </g>
  </g>
 </g>
 <g partID="24160">
  <g transform="translate(0,349.989)">
   <g  id="schematic">
    <rect width="2" x="26.65" y="78.6499" fill="none"  height="9.99998" id="connector0pin"/>
    <rect width="2" x="26.65" y="1.15" fill="none"  height="9.99998" id="connector1pin"/>
    <g width="2" x="26.65" y="86.6498" fill="none"  height="2" id="connector0terminal"/>
    <g width="2" x="26.65" y="1.15" fill="none"  height="2" id="connector1terminal"/>
    <g  id="text">
     <g >
      <path  d="M19.31,52.6169l1.114,0l0,6.59699L19.31,59.2139L19.31,52.6169z"/>
     </g>
     <g >
      <path  d="M19.333,32.1849l-2.34,0l0,-1.211l2.34,0l0,-2.195L20.4,28.7789l0,2.195l2.326,0l0,1.211L20.4,32.1849l0,2.207l-1.066,0L19.333,32.1849L19.333,32.1849z"/>
     </g>
    </g>
    <g  id="diagram">
     <line fill="none"  stroke="#000000" stroke-linejoin="round" stroke-linecap="round" y1="1.15" stroke-width="2.3" x1="27.65" y2="38.7879" x2="27.65"/>
     <line fill="none"  stroke="#000000" stroke-linejoin="round" stroke-linecap="round" y1="47.2859" stroke-width="2.3" x1="27.65" y2="88.6498" x2="27.65"/>
     <line fill="none"  stroke="#000000" stroke-linejoin="round" stroke-linecap="round" y1="38.7879" stroke-width="2.3" x1="53.15" y2="38.7879" x2="1.15"/>
     <line fill="none"  stroke="#000000" stroke-linejoin="round" stroke-linecap="round" y1="47.2859" stroke-width="2.3" x1="41.817" y2="47.2859" x2="12.483"/>
     <path fill="none"  stroke="#000000" stroke-linejoin="round" stroke-linecap="round" stroke-width="2.3" d="M12.483,47.2859"/>
     <path fill="none"  stroke="#000000" stroke-linejoin="round" stroke-linecap="round" stroke-width="2.3" d="M41.817,47.2859"/>
    </g>
   </g>
  </g>
 </g>
 <g partID="30880">
  <g transform="translate(188.878,458.557)">
   <g  id="schematic">
    <path fill="none"  stroke="#000000" id="connector0pin" stroke-width="1.92" d="M8.9712,17.008L8.9712,0"/>
    <g width="0.756" x="8.592" fill="none"  height="0.7624" id="connector0terminal"/>
    <path fill="none"  stroke="#000000" id="path4098" stroke-width="1.92" d="M0,17.008l17.9408,0"/>
    <path fill="none"  stroke="#000000" id="path4100" stroke-width="1.92" d="M2.9888,20.164l11.9616,0"/>
    <path fill="none"  stroke="#000000" id="path4102" stroke-width="1.92" d="M11.956,23.3184L5.9808,23.3184"/>
   </g>
  </g>
 </g>
 <g partID="31440">
  <g transform="translate(18.68,458.517)">
   <g  id="schematic">
    <path fill="none"  stroke="#000000" id="connector0pin" stroke-width="1.92" d="M8.9712,17.008L8.9712,0"/>
    <g width="0.756" x="8.592" fill="none"  height="0.7624" id="connector0terminal"/>
    <path fill="none"  stroke="#000000" id="path4098" stroke-width="1.92" d="M0,17.008l17.9408,0"/>
    <path fill="none"  stroke="#000000" id="path4100" stroke-width="1.92" d="M2.9888,20.164l11.9616,0"/>
    <path fill="none"  stroke="#000000" id="path4102" stroke-width="1.92" d="M11.956,23.3184L5.9808,23.3184"/>
   </g>
  </g>
 </g>
 <g partID="31470">
  <g transform="translate(443.877,288.438)">
   <g  id="schematic">
    <path fill="none"  stroke="#000000" id="connector0pin" stroke-width="1.92" d="M8.9712,17.008L8.9712,0"/>
    <g width="0.756" x="8.592" fill="none"  height="0.7624" id="connector0terminal"/>
    <path fill="none"  stroke="#000000" id="path4098" stroke-width="1.92" d="M0,17.008l17.9408,0"/>
    <path fill="none"  stroke="#000000" id="path4100" stroke-width="1.92" d="M2.9888,20.164l11.9616,0"/>
    <path fill="none"  stroke="#000000" id="path4102" stroke-width="1.92" d="M11.956,23.3184L5.9808,23.3184"/>
   </g>
  </g>
 </g>
 <g partID="32140">
  <g transform="translate(273.918,224.699)">
   <g  id="schematic">
    <path fill="none"  stroke="#000000" id="connector0pin" stroke-width="1.92" d="M8.9712,17.008L8.9712,0"/>
    <g width="0.756" x="8.592" fill="none"  height="0.7624" id="connector0terminal"/>
    <path fill="none"  stroke="#000000" id="path4098" stroke-width="1.92" d="M0,17.008l17.9408,0"/>
    <path fill="none"  stroke="#000000" id="path4100" stroke-width="1.92" d="M2.9888,20.164l11.9616,0"/>
    <path fill="none"  stroke="#000000" id="path4102" stroke-width="1.92" d="M11.956,23.3184L5.9808,23.3184"/>
   </g>
  </g>
 </g>
 <g partID="32360">
  <g transform="translate(103.839,182.179)">
   <g  id="schematic">
    <path fill="none"  stroke="#000000" id="connector0pin" stroke-width="1.92" d="M8.9712,17.008L8.9712,0"/>
    <g width="0.756" x="8.592" fill="none"  height="0.7624" id="connector0terminal"/>
    <path fill="none"  stroke="#000000" id="path4098" stroke-width="1.92" d="M0,17.008l17.9408,0"/>
    <path fill="none"  stroke="#000000" id="path4100" stroke-width="1.92" d="M2.9888,20.164l11.9616,0"/>
    <path fill="none"  stroke="#000000" id="path4102" stroke-width="1.92" d="M11.956,23.3184L5.9808,23.3184"/>
   </g>
  </g>
 </g>
 <g partID="31090">
  <line stroke="#404040" stroke-linecap="round" y1="439.708" x1="200.862" y2="458.938" stroke-width="2.4" x2="197.848"/>
 </g>
 <g partID="32190">
  <line stroke="#404040" stroke-linecap="round" y1="225.04" x1="261.509" y2="225.08" stroke-width="2.4" x2="282.888"/>
 </g>
 <g partID="33110">
  <line stroke="#404040" stroke-linecap="round" y1="182.522" x1="134.069" y2="182.56" stroke-width="2.4" x2="112.809"/>
 </g>
 <g partID="33120">
  <line stroke="#404040" stroke-linecap="round" y1="182.56" x1="134.069" y2="182.522" stroke-width="2.4" x2="134.069"/>
 </g>
 <g partID="33270">
  <line stroke="#404040" stroke-linecap="round" y1="182.576" x1="346.658" y2="182.56" stroke-width="2.4" x2="261.509"/>
 </g>
 <g partID="34590">
  <line stroke="#404040" stroke-linecap="round" y1="182.522" x1="453.269" y2="182.56" stroke-width="2.4" x2="410.447"/>
 </g>
 <g partID="34600">
  <line stroke="#404040" stroke-linecap="round" y1="203.923" x1="452.963" y2="182.522" stroke-width="2.4" x2="453.269"/>
 </g>
 <g partID="34870">
  <line stroke="#404040" stroke-linecap="round" y1="395.442" x1="325.609" y2="395.159" stroke-width="2.4" x2="246.578"/>
 </g>
 <g partID="34880">
  <line stroke="#404040" stroke-linecap="round" y1="203.8" x1="261.509" y2="203.442" stroke-width="2.4" x2="325.609"/>
 </g>
 <g partID="34930">
  <line stroke="#404040" stroke-linecap="round" y1="203.442" x1="325.609" y2="395.442" stroke-width="2.4" x2="325.609"/>
 </g>
 <g partID="35560">
  <line stroke="#404040" stroke-linecap="round" y1="352.221" x1="70.0882" y2="352.139" stroke-width="2.4" x2="27.65"/>
 </g>
 <g partID="35460">
  <line stroke="#404040" stroke-linecap="round" y1="395.421" x1="70.0882" y2="352.221" stroke-width="2.4" x2="70.0882"/>
 </g>
 <g partID="35470">
  <line stroke="#404040" stroke-linecap="round" y1="395.159" x1="155.328" y2="395.421" stroke-width="2.4" x2="70.0882"/>
 </g>
 <g partID="35810">
  <line stroke="#404040" stroke-linecap="round" y1="267.761" x1="452.488" y2="288.82" stroke-width="2.4" x2="452.847"/>
 </g>
 <g partID="35820">
  <line stroke="#404040" stroke-linecap="round" y1="267.599" x1="452.967" y2="267.761" stroke-width="2.4" x2="452.488"/>
 </g>
 <g partID="35970">
  <line stroke="#404040" stroke-linecap="round" y1="437.639" x1="27.65" y2="458.899" stroke-width="2.4" x2="27.65"/>
 </g>
 <g id="partLabel" partID="24050">
  <g transform="translate(396.906,122.435)">
   <g fill="#000000" font-family="'DroidSans'" stroke="none" font-style="normal" fill-opacity="1" font-weight="normal" id="schematicLabel" font-size="9">
    <text x="0" y="6.75">LED1</text>
    <text x="0" y="15.75">Red (633nm)</text>
   </g>
  </g>
 </g>
 <g id="partLabel" partID="24080">
  <g transform="translate(246.398,356.57)">
   <g fill="#000000" font-family="'DroidSans'" stroke="none" font-style="normal" fill-opacity="1" font-weight="normal" id="schematicLabel" font-size="9">
    <text x="0" y="6.75">U1</text>
   </g>
  </g>
 </g>
 <g id="partLabel" partID="24160">
  <g transform="translate(54.3,329.989)">
   <g fill="#000000" font-family="'DroidSans'" stroke="none" font-style="normal" fill-opacity="1" font-weight="normal" id="schematicLabel" font-size="9">
    <text x="0" y="6.75">VCC1</text>
    <text x="0" y="15.75">9V</text>
   </g>
  </g>
 </g>
 <g id="partLabel" partID="19340">
  <g transform="translate(262.589,0)">
   <g fill="#000000" font-family="'DroidSans'" stroke="none" font-style="normal" fill-opacity="1" font-weight="normal" id="schematicLabel" font-size="9">
    <text x="0" y="6.75">PIC16F886</text>
   </g>
  </g>
 </g>
 <g id="partLabel" partID="27030">
  <g transform="translate(459.352,183.174)">
   <g fill="#000000" font-family="'DroidSans'" stroke="none" font-style="normal" fill-opacity="1" font-weight="normal" id="schematicLabel" font-size="9">
    <text x="0" y="6.75">R2</text>
    <text x="0" y="15.75">220&#x3a9;</text>
   </g>
  </g>
 </g>
</svg>
