<?xml version='1.0' encoding='UTF-8' standalone='no'?>
<!-- Created with Fritzing (http://www.fritzing.org/) -->
<svg xmlns="http://www.w3.org/2000/svg" width="2.0185in" x="0in" version="1.2" y="0in"  height="1.77222in" viewBox="0 0 145.332 127.6" baseProfile="tiny" xmlns:svg="http://www.w3.org/2000/svg">
 <g partID="19230">
  <g id="board">
   <rect width="144.756" x="0.288" y="0.288" fill="none" height="127.024" stroke="black" fill-opacity="0.5" id="boardoutline" stroke-width="0.5"/>
  </g>
 </g>
 <g partID="55950">
  <g transform="translate(2.88,2.88)">
   <g  id="groundplane">
    <polygon fill="black" points="0,0,0,112.752,13.968,112.752,13.968,112.608,13.536,112.608,13.536,112.464,13.248,112.464,13.248,112.32,12.96,112.32,12.96,112.176,12.816,112.176,12.816,112.032,12.528,112.032,12.528,111.888,12.384,111.888,12.384,111.744,12.24,111.744,12.24,111.6,12.096,111.6,12.096,111.456,11.952,111.456,11.952,111.312,11.808,111.312,11.808,111.168,11.664,111.168,11.664,110.88,11.52,110.88,11.52,110.736,7.2,110.736,7.2,110.592,6.768,110.592,6.768,110.448,6.624,110.448,6.624,110.304,6.336,110.304,6.336,110.016,6.192,110.016,6.192,109.872,6.048,109.872,6.048,109.44,5.904,109.44,5.904,0"  stroke="none" stroke-width="0"/>
    <polygon fill="black" points="95.472,0,95.472,19.296,108.864,19.296,108.864,19.44,109.44,19.44,109.44,19.584,109.728,19.584,109.728,19.728,109.872,19.728,109.872,19.872,110.16,19.872,110.16,20.016,110.304,20.016,110.304,20.16,110.448,20.16,110.448,20.304,110.592,20.304,110.592,20.448,110.736,20.448,110.736,20.592,110.88,20.592,110.88,20.736,111.024,20.736,111.024,20.88,111.168,20.88,111.168,21.168,111.312,21.168,111.312,21.312,111.456,21.312,111.456,21.6,111.6,21.6,111.6,22.176,111.744,22.176,111.744,23.328,111.6,23.328,111.6,23.76,111.456,23.76,111.456,24.048,111.312,24.048,111.312,24.336,111.168,24.336,111.168,24.48,111.024,24.48,111.024,24.768,110.88,24.768,110.88,24.912,110.736,24.912,110.736,25.056,110.592,25.056,110.592,25.2,110.448,25.2,110.448,25.344,110.304,25.344,110.304,25.488,110.016,25.488,110.016,25.632,109.872,25.632,109.872,27.072,110.16,27.072,110.16,27.216,110.304,27.216,110.304,27.36,110.448,27.36,110.448,27.504,110.592,27.504,110.592,27.648,110.736,27.648,110.736,27.792,110.88,27.792,110.88,27.936,111.024,27.936,111.024,28.08,111.168,28.08,111.168,28.368,111.312,28.368,111.312,28.512,111.456,28.512,111.456,28.8,111.6,28.8,111.6,29.376,111.744,29.376,111.744,30.528,111.6,30.528,111.6,30.96,111.456,30.96,111.456,31.248,111.312,31.248,111.312,31.536,111.168,31.536,111.168,31.68,111.024,31.68,111.024,31.968,110.88,31.968,110.88,32.112,110.736,32.112,110.736,32.256,110.592,32.256,110.592,32.4,110.448,32.4,110.448,32.544,110.304,32.544,110.304,32.688,110.016,32.688,110.016,32.832,109.872,32.832,109.872,34.272,110.16,34.272,110.16,34.416,110.304,34.416,110.304,34.56,110.448,34.56,110.448,34.704,110.592,34.704,110.592,34.848,110.736,34.848,110.736,34.992,110.88,34.992,110.88,35.136,111.024,35.136,111.024,35.28,111.168,35.28,111.168,35.568,111.312,35.568,111.312,35.712,111.456,35.712,111.456,36,111.6,36,111.6,36.576,111.744,36.576,111.744,37.728,111.6,37.728,111.6,38.16,111.456,38.16,111.456,38.448,111.312,38.448,111.312,38.736,111.168,38.736,111.168,38.88,111.024,38.88,111.024,39.168,110.88,39.168,110.88,39.312,110.736,39.312,110.736,39.456,110.592,39.456,110.592,39.6,110.448,39.6,110.448,39.744,110.304,39.744,110.304,39.888,110.016,39.888,110.016,40.032,109.872,40.032,109.872,41.472,110.16,41.472,110.16,41.616,110.304,41.616,110.304,41.76,110.448,41.76,110.448,41.904,110.592,41.904,110.592,42.048,110.736,42.048,110.736,42.192,110.88,42.192,110.88,42.336,111.024,42.336,111.024,42.48,111.168,42.48,111.168,42.768,111.312,42.768,111.312,42.912,111.456,42.912,111.456,43.2,111.6,43.2,111.6,43.776,111.744,43.776,111.744,44.928,111.6,44.928,111.6,45.36,111.456,45.36,111.456,45.648,111.312,45.648,111.312,45.936,111.168,45.936,111.168,46.08,111.024,46.08,111.024,46.368,110.88,46.368,110.88,46.512,110.736,46.512,110.736,46.656,110.592,46.656,110.592,46.8,110.448,46.8,110.448,46.944,110.304,46.944,110.304,47.088,110.016,47.088,110.016,47.232,109.872,47.232,109.872,48.672,110.16,48.672,110.16,48.816,110.304,48.816,110.304,48.96,110.448,48.96,110.448,49.104,110.592,49.104,110.592,49.248,110.736,49.248,110.736,49.392,110.88,49.392,110.88,49.536,111.024,49.536,111.024,49.68,111.168,49.68,111.168,49.968,111.312,49.968,111.312,50.112,111.456,50.112,111.456,50.4,111.6,50.4,111.6,50.976,111.744,50.976,111.744,52.128,111.6,52.128,111.6,52.56,111.456,52.56,111.456,52.848,111.312,52.848,111.312,53.136,111.168,53.136,111.168,53.28,111.024,53.28,111.024,53.568,110.88,53.568,110.88,53.712,110.736,53.712,110.736,53.856,110.592,53.856,110.592,54,110.448,54,110.448,54.144,110.304,54.144,110.304,54.288,110.016,54.288,110.016,54.432,109.872,54.432,109.872,55.872,110.16,55.872,110.16,56.016,110.304,56.016,110.304,56.16,110.448,56.16,110.448,56.304,110.592,56.304,110.592,56.448,110.736,56.448,110.736,56.592,110.88,56.592,110.88,56.736,111.024,56.736,111.024,56.88,111.168,56.88,111.168,57.168,111.312,57.168,111.312,57.312,111.456,57.312,111.456,57.6,111.6,57.6,111.6,58.176,111.744,58.176,111.744,59.328,111.6,59.328,111.6,59.76,111.456,59.76,111.456,60.048,111.312,60.048,111.312,60.336,111.168,60.336,111.168,60.48,111.024,60.48,111.024,60.768,110.88,60.768,110.88,60.912,110.736,60.912,110.736,61.056,110.592,61.056,110.592,61.2,110.448,61.2,110.448,61.344,110.304,61.344,110.304,61.488,110.016,61.488,110.016,61.632,109.872,61.632,109.872,63.072,110.16,63.072,110.16,63.216,110.304,63.216,110.304,63.36,110.448,63.36,110.448,63.504,110.592,63.504,110.592,63.648,110.736,63.648,110.736,63.792,110.88,63.792,110.88,63.936,111.024,63.936,111.024,64.08,111.168,64.08,111.168,64.368,111.312,64.368,111.312,64.512,111.456,64.512,111.456,64.8,111.6,64.8,111.6,65.376,111.744,65.376,111.744,66.528,111.6,66.528,111.6,66.96,111.456,66.96,111.456,67.248,111.312,67.248,111.312,67.536,111.168,67.536,111.168,67.68,111.024,67.68,111.024,67.968,110.88,67.968,110.88,68.112,110.736,68.112,110.736,68.256,110.592,68.256,110.592,68.4,110.448,68.4,110.448,68.544,110.304,68.544,110.304,68.688,110.016,68.688,110.016,68.832,109.872,68.832,109.872,70.272,132.912,70.272,132.912,76.176,130.896,76.176,130.896,77.616,131.184,77.616,131.184,77.76,131.472,77.76,131.472,77.904,131.616,77.904,131.616,78.048,131.76,78.048,131.76,78.192,131.904,78.192,131.904,78.336,132.048,78.336,132.048,78.48,132.192,78.48,132.192,78.624,132.336,78.624,132.336,78.768,132.48,78.768,132.48,79.056,132.624,79.056,132.624,79.344,132.768,79.344,132.768,79.776,132.912,79.776,132.912,80.928,132.768,80.928,132.768,81.36,132.624,81.36,132.624,81.648,132.48,81.648,132.48,81.792,132.336,81.792,132.336,82.08,132.192,82.08,132.192,82.224,132.048,82.224,132.048,82.368,131.904,82.368,131.904,82.512,131.76,82.512,131.76,82.656,131.472,82.656,131.472,82.8,131.328,82.8,131.328,82.944,131.04,82.944,131.04,84.384,131.328,84.384,131.328,84.528,131.472,84.528,131.472,84.672,131.76,84.672,131.76,84.816,131.904,84.816,131.904,84.96,132.048,84.96,132.048,85.104,132.192,85.104,132.192,85.248,132.336,85.248,132.336,85.392,132.48,85.392,132.48,85.536,132.624,85.536,132.624,85.68,132.768,85.68,132.768,85.968,132.912,85.968,132.912,86.112,133.056,86.112,133.056,86.4,133.2,86.4,133.2,86.976,133.344,86.976,133.344,88.128,133.2,88.128,133.2,88.56,133.056,88.56,133.056,88.848,132.912,88.848,132.912,89.136,132.768,89.136,132.768,89.28,132.624,89.28,132.624,89.568,132.48,89.568,132.48,89.712,132.336,89.712,132.336,89.856,132.192,89.856,132.192,90,132.048,90,132.048,90.144,131.904,90.144,131.904,90.288,131.616,90.288,131.616,90.432,131.472,90.432,131.472,90.576,131.184,90.576,131.184,90.72,130.752,90.72,130.752,90.864,130.032,90.864,130.032,91.008,139.536,91.008,139.536,0"  stroke="none" stroke-width="0"/>
    <polygon fill="black" points="95.472,19.296,95.472,72.144,95.616,72.144,95.616,72.288,95.904,72.288,95.904,72.432,96.192,72.432,96.192,72.576,96.48,72.576,96.48,72.72,96.768,72.72,96.768,72.864,97.056,72.864,97.056,73.008,97.344,73.008,97.344,73.152,97.632,73.152,97.632,73.296,97.92,73.296,97.92,73.44,98.208,73.44,98.208,73.584,98.496,73.584,98.496,73.728,98.784,73.728,98.784,73.872,99.072,73.872,99.072,74.016,99.36,74.016,99.36,74.16,99.648,74.16,99.648,74.304,99.936,74.304,99.936,74.448,100.224,74.448,100.224,74.592,100.512,74.592,100.512,74.736,100.8,74.736,100.8,74.88,101.088,74.88,101.088,75.024,101.376,75.024,101.376,75.168,101.664,75.168,101.664,75.312,101.952,75.312,101.952,75.456,102.24,75.456,102.24,75.6,102.528,75.6,102.528,75.744,102.816,75.744,102.816,75.888,103.104,75.888,103.104,76.032,103.392,76.032,103.392,76.176,103.68,76.176,103.68,76.32,103.968,76.32,103.968,76.464,104.256,76.464,104.256,76.608,104.544,76.608,104.544,76.752,104.832,76.752,104.832,76.896,105.12,76.896,105.12,77.04,106.704,77.04,106.704,76.032,106.56,76.032,106.56,75.888,106.416,75.888,106.416,75.744,106.272,75.744,106.272,75.6,105.984,75.6,105.984,75.456,105.84,75.456,105.84,75.168,105.696,75.168,105.696,75.024,105.552,75.024,105.552,74.88,105.408,74.88,105.408,74.592,105.264,74.592,105.264,74.304,105.12,74.304,105.12,74.016,104.976,74.016,104.976,73.296,104.832,73.296,104.832,73.008,104.976,73.008,104.976,72.288,105.12,72.288,105.12,71.856,105.264,71.856,105.264,71.568,105.408,71.568,105.408,71.424,105.552,71.424,105.552,71.136,105.696,71.136,105.696,70.992,105.84,70.992,105.84,70.848,105.984,70.848,105.984,70.704,106.128,70.704,106.128,70.56,106.272,70.56,106.272,70.416,106.416,70.416,106.416,70.272,106.704,70.272,106.704,68.832,106.56,68.832,106.56,68.688,106.416,68.688,106.416,68.544,106.272,68.544,106.272,68.4,105.984,68.4,105.984,68.256,105.84,68.256,105.84,67.968,105.696,67.968,105.696,67.824,105.552,67.824,105.552,67.68,105.408,67.68,105.408,67.392,105.264,67.392,105.264,67.104,105.12,67.104,105.12,66.816,104.976,66.816,104.976,66.096,104.832,66.096,104.832,65.808,104.976,65.808,104.976,65.088,105.12,65.088,105.12,64.656,105.264,64.656,105.264,64.368,105.408,64.368,105.408,64.224,105.552,64.224,105.552,63.936,105.696,63.936,105.696,63.792,105.84,63.792,105.84,63.648,105.984,63.648,105.984,63.504,106.128,63.504,106.128,63.36,106.272,63.36,106.272,63.216,106.416,63.216,106.416,63.072,106.704,63.072,106.704,61.632,106.56,61.632,106.56,61.488,106.416,61.488,106.416,61.344,106.272,61.344,106.272,61.2,105.984,61.2,105.984,61.056,105.84,61.056,105.84,60.768,105.696,60.768,105.696,60.624,105.552,60.624,105.552,60.48,105.408,60.48,105.408,60.192,105.264,60.192,105.264,59.904,105.12,59.904,105.12,59.616,104.976,59.616,104.976,58.896,104.832,58.896,104.832,58.608,104.976,58.608,104.976,57.888,105.12,57.888,105.12,57.456,105.264,57.456,105.264,57.168,105.408,57.168,105.408,57.024,105.552,57.024,105.552,56.736,105.696,56.736,105.696,56.592,105.84,56.592,105.84,56.448,105.984,56.448,105.984,56.304,106.128,56.304,106.128,56.16,106.272,56.16,106.272,56.016,106.416,56.016,106.416,55.872,106.704,55.872,106.704,54.432,106.56,54.432,106.56,54.288,106.416,54.288,106.416,54.144,106.272,54.144,106.272,54,105.984,54,105.984,53.856,105.84,53.856,105.84,53.568,105.696,53.568,105.696,53.424,105.552,53.424,105.552,53.28,105.408,53.28,105.408,52.992,105.264,52.992,105.264,52.704,105.12,52.704,105.12,52.416,104.976,52.416,104.976,51.696,104.832,51.696,104.832,51.408,104.976,51.408,104.976,50.688,105.12,50.688,105.12,50.256,105.264,50.256,105.264,49.968,105.408,49.968,105.408,49.824,105.552,49.824,105.552,49.536,105.696,49.536,105.696,49.392,105.84,49.392,105.84,49.248,105.984,49.248,105.984,49.104,106.128,49.104,106.128,48.96,106.272,48.96,106.272,48.816,106.416,48.816,106.416,48.672,106.704,48.672,106.704,47.232,106.56,47.232,106.56,47.088,106.416,47.088,106.416,46.944,106.272,46.944,106.272,46.8,105.984,46.8,105.984,46.656,105.84,46.656,105.84,46.368,105.696,46.368,105.696,46.224,105.552,46.224,105.552,46.08,105.408,46.08,105.408,45.792,105.264,45.792,105.264,45.504,105.12,45.504,105.12,45.216,104.976,45.216,104.976,44.496,104.832,44.496,104.832,44.208,104.976,44.208,104.976,43.488,105.12,43.488,105.12,43.056,105.264,43.056,105.264,42.768,105.408,42.768,105.408,42.624,105.552,42.624,105.552,42.336,105.696,42.336,105.696,42.192,105.84,42.192,105.84,42.048,105.984,42.048,105.984,41.904,106.128,41.904,106.128,41.76,106.272,41.76,106.272,41.616,106.416,41.616,106.416,41.472,106.704,41.472,106.704,40.032,106.56,40.032,106.56,39.888,106.416,39.888,106.416,39.744,106.272,39.744,106.272,39.6,105.984,39.6,105.984,39.456,105.84,39.456,105.84,39.168,105.696,39.168,105.696,39.024,105.552,39.024,105.552,38.88,105.408,38.88,105.408,38.592,105.264,38.592,105.264,38.304,105.12,38.304,105.12,38.016,104.976,38.016,104.976,37.296,104.832,37.296,104.832,37.008,104.976,37.008,104.976,36.288,105.12,36.288,105.12,35.856,105.264,35.856,105.264,35.568,105.408,35.568,105.408,35.424,105.552,35.424,105.552,35.136,105.696,35.136,105.696,34.992,105.84,34.992,105.84,34.848,105.984,34.848,105.984,34.704,106.128,34.704,106.128,34.56,106.272,34.56,106.272,34.416,106.416,34.416,106.416,34.272,106.704,34.272,106.704,32.832,106.56,32.832,106.56,32.688,106.416,32.688,106.416,32.544,106.272,32.544,106.272,32.4,105.984,32.4,105.984,32.256,105.84,32.256,105.84,31.968,105.696,31.968,105.696,31.824,105.552,31.824,105.552,31.68,105.408,31.68,105.408,31.392,105.264,31.392,105.264,31.104,105.12,31.104,105.12,30.816,104.976,30.816,104.976,30.096,104.832,30.096,104.832,29.808,104.976,29.808,104.976,29.088,105.12,29.088,105.12,28.656,105.264,28.656,105.264,28.368,105.408,28.368,105.408,28.224,105.552,28.224,105.552,27.936,105.696,27.936,105.696,27.792,105.84,27.792,105.84,27.648,105.984,27.648,105.984,27.504,106.128,27.504,106.128,27.36,106.272,27.36,106.272,27.216,106.416,27.216,106.416,27.072,106.704,27.072,106.704,25.632,106.56,25.632,106.56,25.488,106.416,25.488,106.416,25.344,106.272,25.344,106.272,25.2,105.984,25.2,105.984,25.056,105.84,25.056,105.84,24.768,105.696,24.768,105.696,24.624,105.552,24.624,105.552,24.48,105.408,24.48,105.408,24.192,105.264,24.192,105.264,23.904,105.12,23.904,105.12,23.616,104.976,23.616,104.976,22.896,104.832,22.896,104.832,22.608,104.976,22.608,104.976,21.888,105.12,21.888,105.12,21.456,105.264,21.456,105.264,21.168,105.408,21.168,105.408,21.024,105.552,21.024,105.552,20.736,105.696,20.736,105.696,20.592,105.84,20.592,105.84,20.448,105.984,20.448,105.984,20.304,106.128,20.304,106.128,20.16,106.272,20.16,106.272,20.016,106.416,20.016,106.416,19.872,106.704,19.872,106.704,19.728,106.992,19.728,106.992,19.584,107.28,19.584,107.28,19.44,107.712,19.44,107.712,19.296"  stroke="none" stroke-width="0"/>
    <polygon fill="black" points="61.488,62.208,61.488,62.352,61.2,62.352,61.2,62.496,60.912,62.496,60.912,62.64,60.624,62.64,60.624,62.784,60.336,62.784,60.336,62.928,60.048,62.928,60.048,63.072,59.76,63.072,59.76,63.216,59.472,63.216,59.472,63.36,59.184,63.36,59.184,63.504,58.896,63.504,58.896,63.648,58.608,63.648,58.608,63.792,58.32,63.792,58.32,63.936,58.032,63.936,58.032,64.08,57.744,64.08,57.744,64.224,57.456,64.224,57.456,64.368,57.168,64.368,57.168,64.512,56.88,64.512,56.88,64.656,56.592,64.656,56.592,64.8,56.304,64.8,56.304,64.944,56.016,64.944,56.016,65.088,55.728,65.088,55.728,65.232,55.44,65.232,55.44,65.376,55.152,65.376,55.152,65.52,54.864,65.52,54.864,65.664,54.576,65.664,54.576,65.808,54.288,65.808,54.288,65.952,54.144,65.952,54.144,69.408,52.272,69.408,52.272,91.152,54.288,91.152,54.288,98.208,52.272,98.208,52.272,102.528,52.128,102.528,52.128,102.816,51.984,102.816,51.984,102.96,51.84,102.96,51.84,103.104,51.696,103.104,51.696,103.248,51.408,103.248,51.408,103.392,51.12,103.392,51.12,103.536,17.856,103.536,17.856,103.824,17.712,103.824,17.712,103.968,17.568,103.968,17.568,104.112,17.424,104.112,17.424,104.256,17.28,104.256,17.28,104.4,17.136,104.4,17.136,104.544,16.992,104.544,16.992,104.688,16.848,104.688,16.848,106.272,16.992,106.272,16.992,106.416,17.136,106.416,17.136,106.56,17.28,106.56,17.28,106.704,17.424,106.704,17.424,106.848,17.568,106.848,17.568,106.992,17.712,106.992,17.712,107.28,17.856,107.28,17.856,107.424,18,107.424,18,107.712,18.144,107.712,18.144,108.144,18.288,108.144,18.288,108.72,18.432,108.72,18.432,109.584,18.288,109.584,18.288,110.16,18.144,110.16,18.144,110.448,18,110.448,18,110.736,17.856,110.736,17.856,111.024,17.712,111.024,17.712,111.168,17.568,111.168,17.568,111.312,17.424,111.312,17.424,111.456,17.28,111.456,17.28,111.6,17.136,111.6,17.136,111.744,16.992,111.744,16.992,111.888,16.848,111.888,16.848,112.032,16.704,112.032,16.704,112.176,16.416,112.176,16.416,112.32,16.272,112.32,16.272,112.464,15.984,112.464,15.984,112.608,15.552,112.608,15.552,112.752,85.104,112.752,85.104,112.032,84.96,112.032,84.96,111.888,84.816,111.888,84.816,111.744,84.672,111.744,84.672,111.6,84.384,111.6,84.384,111.456,84.24,111.456,84.24,111.168,84.096,111.168,84.096,111.024,83.952,111.024,83.952,110.88,83.808,110.88,83.808,110.592,83.664,110.592,83.664,110.304,83.52,110.304,83.52,110.016,83.376,110.016,83.376,109.296,83.232,109.296,83.232,109.008,83.376,109.008,83.376,108.288,83.52,108.288,83.52,107.856,83.664,107.856,83.664,107.568,83.808,107.568,83.808,107.424,83.952,107.424,83.952,107.136,84.096,107.136,84.096,106.992,84.24,106.992,84.24,106.848,84.384,106.848,84.384,106.704,84.528,106.704,84.528,106.56,84.672,106.56,84.672,106.416,84.816,106.416,84.816,106.272,85.104,106.272,85.104,104.832,84.96,104.832,84.96,104.688,84.816,104.688,84.816,104.544,84.672,104.544,84.672,104.4,84.384,104.4,84.384,104.256,84.24,104.256,84.24,103.968,84.096,103.968,84.096,103.824,83.952,103.824,83.952,103.68,83.808,103.68,83.808,103.392,83.664,103.392,83.664,103.104,83.52,103.104,83.52,102.816,83.376,102.816,83.376,102.096,83.232,102.096,83.232,101.808,83.376,101.808,83.376,101.088,83.52,101.088,83.52,100.656,83.664,100.656,83.664,100.368,83.808,100.368,83.808,100.224,83.952,100.224,83.952,99.936,84.096,99.936,84.096,99.792,84.24,99.792,84.24,99.648,84.384,99.648,84.384,99.504,84.528,99.504,84.528,99.36,84.672,99.36,84.672,99.216,84.816,99.216,84.816,99.072,85.104,99.072,85.104,97.632,84.96,97.632,84.96,97.488,84.816,97.488,84.816,97.344,84.672,97.344,84.672,97.2,84.384,97.2,84.384,97.056,84.24,97.056,84.24,96.768,84.096,96.768,84.096,96.624,83.952,96.624,83.952,96.48,83.808,96.48,83.808,96.192,83.664,96.192,83.664,95.904,83.52,95.904,83.52,95.616,83.376,95.616,83.376,94.896,83.232,94.896,83.232,94.608,83.376,94.608,83.376,93.888,83.52,93.888,83.52,93.456,83.664,93.456,83.664,93.168,83.808,93.168,83.808,93.024,83.952,93.024,83.952,92.736,84.096,92.736,84.096,92.592,84.24,92.592,84.24,92.448,84.384,92.448,84.384,92.304,84.528,92.304,84.528,92.16,84.672,92.16,84.672,92.016,84.816,92.016,84.816,91.872,85.104,91.872,85.104,90.432,84.96,90.432,84.96,90.288,84.816,90.288,84.816,90.144,84.672,90.144,84.672,90,84.384,90,84.384,89.856,84.24,89.856,84.24,89.568,84.096,89.568,84.096,89.424,83.952,89.424,83.952,89.28,83.808,89.28,83.808,88.992,83.664,88.992,83.664,88.704,83.52,88.704,83.52,88.416,83.376,88.416,83.376,87.696,83.232,87.696,83.232,87.408,83.376,87.408,83.376,86.688,83.52,86.688,83.52,86.256,83.664,86.256,83.664,85.968,83.808,85.968,83.808,85.824,83.952,85.824,83.952,85.536,84.096,85.536,84.096,85.392,84.24,85.392,84.24,85.248,84.384,85.248,84.384,85.104,84.528,85.104,84.528,84.96,84.672,84.96,84.672,84.816,84.816,84.816,84.816,84.672,85.104,84.672,85.104,83.232,84.96,83.232,84.96,83.088,84.816,83.088,84.816,82.944,84.672,82.944,84.672,82.8,84.384,82.8,84.384,82.656,84.24,82.656,84.24,82.368,84.096,82.368,84.096,82.224,83.952,82.224,83.952,82.08,83.808,82.08,83.808,81.792,83.664,81.792,83.664,81.504,83.52,81.504,83.52,81.216,83.376,81.216,83.376,80.496,83.232,80.496,83.232,80.208,83.376,80.208,83.376,79.488,83.52,79.488,83.52,79.056,83.664,79.056,83.664,78.768,83.808,78.768,83.808,78.624,83.952,78.624,83.952,78.336,84.096,78.336,84.096,78.192,84.24,78.192,84.24,78.048,84.384,78.048,84.384,77.904,84.528,77.904,84.528,77.76,84.672,77.76,84.672,77.616,84.816,77.616,84.816,77.472,85.104,77.472,85.104,76.032,84.96,76.032,84.96,75.888,84.816,75.888,84.816,75.744,84.672,75.744,84.672,75.6,84.384,75.6,84.384,75.456,84.24,75.456,84.24,75.168,84.096,75.168,84.096,75.024,83.952,75.024,83.952,74.88,83.808,74.88,83.808,74.592,83.664,74.592,83.664,74.304,83.52,74.304,83.52,74.016,83.376,74.016,83.376,73.296,83.232,73.296,83.232,72.72,83.088,72.72,83.088,72.576,82.944,72.576,82.944,72.432,82.656,72.432,82.656,72.288,82.512,72.288,82.512,72.144,82.224,72.144,82.224,72,82.08,72,82.08,71.856,81.792,71.856,81.792,71.712,81.648,71.712,81.648,71.568,81.36,71.568,81.36,71.424,81.216,71.424,81.216,71.28,80.928,71.28,80.928,71.136,80.784,71.136,80.784,70.992,80.496,70.992,80.496,70.848,80.352,70.848,80.352,70.704,80.064,70.704,80.064,70.56,79.92,70.56,79.92,70.416,79.632,70.416,79.632,70.272,79.488,70.272,79.488,70.128,79.2,70.128,79.2,69.984,79.056,69.984,79.056,69.84,78.768,69.84,78.768,69.696,78.624,69.696,78.624,69.552,78.336,69.552,78.336,69.408,78.192,69.408,78.192,69.264,77.904,69.264,77.904,69.12,77.76,69.12,77.76,68.976,77.472,68.976,77.472,68.832,77.328,68.832,77.328,68.688,77.04,68.688,77.04,68.544,76.896,68.544,76.896,68.4,76.608,68.4,76.608,68.256,76.464,68.256,76.464,68.112,76.176,68.112,76.176,67.968,76.032,67.968,76.032,67.824,75.744,67.824,75.744,67.68,75.6,67.68,75.6,67.536,75.312,67.536,75.312,67.392,75.168,67.392,75.168,67.248,74.88,67.248,74.88,67.104,74.736,67.104,74.736,66.96,74.448,66.96,74.448,66.816,74.304,66.816,74.304,66.672,74.016,66.672,74.016,66.528,73.872,66.528,73.872,66.384,73.584,66.384,73.584,66.24,73.44,66.24,73.44,66.096,73.152,66.096,73.152,65.952,73.008,65.952,73.008,65.808,72.72,65.808,72.72,65.664,72.576,65.664,72.576,65.52,72.288,65.52,72.288,65.376,72.144,65.376,72.144,65.232,71.856,65.232,71.856,65.088,71.712,65.088,71.712,64.944,71.424,64.944,71.424,64.8,71.28,64.8,71.28,64.656,70.992,64.656,70.992,64.512,70.848,64.512,70.848,64.368,70.56,64.368,70.56,64.224,70.416,64.224,70.416,64.08,70.128,64.08,70.128,63.936,69.984,63.936,69.984,63.792,69.696,63.792,69.696,63.648,69.552,63.648,69.552,63.504,69.264,63.504,69.264,63.36,69.12,63.36,69.12,63.216,68.832,63.216,68.832,63.072,68.688,63.072,68.688,62.928,68.4,62.928,68.4,62.784,68.256,62.784,68.256,62.64,67.968,62.64,67.968,62.496,67.824,62.496,67.824,62.352,67.536,62.352,67.536,62.208"  stroke="none" stroke-width="0"/>
    <polygon fill="black" points="110.16,70.272,110.16,70.416,110.304,70.416,110.304,70.56,110.448,70.56,110.448,70.704,110.592,70.704,110.592,70.848,110.736,70.848,110.736,70.992,110.88,70.992,110.88,71.136,111.024,71.136,111.024,71.28,111.168,71.28,111.168,71.568,126.864,71.568,126.864,70.272"  stroke="none" stroke-width="0"/>
    <polygon fill="black" points="111.168,74.736,111.168,74.88,111.024,74.88,111.024,75.168,110.88,75.168,110.88,75.312,110.736,75.312,110.736,75.456,110.592,75.456,110.592,75.6,110.448,75.6,110.448,75.744,110.304,75.744,110.304,75.888,110.016,75.888,110.016,76.032,109.872,76.032,109.872,77.472,110.16,77.472,110.16,77.616,110.304,77.616,110.304,77.76,110.448,77.76,110.448,77.904,110.592,77.904,110.592,78.048,110.736,78.048,110.736,78.192,110.88,78.192,110.88,78.336,111.024,78.336,111.024,78.48,111.168,78.48,111.168,78.768,111.312,78.768,111.312,78.912,111.456,78.912,111.456,79.2,111.6,79.2,111.6,79.776,111.744,79.776,111.744,80.928,111.6,80.928,111.6,81.36,111.456,81.36,111.456,81.648,111.312,81.648,111.312,81.936,111.168,81.936,111.168,82.08,111.024,82.08,111.024,82.368,110.88,82.368,110.88,82.512,110.736,82.512,110.736,82.656,110.592,82.656,110.592,82.8,110.448,82.8,110.448,82.944,110.304,82.944,110.304,83.088,110.016,83.088,110.016,83.232,109.872,83.232,109.872,84.672,110.16,84.672,110.16,84.816,110.304,84.816,110.304,84.96,110.448,84.96,110.448,85.104,110.592,85.104,110.592,85.248,110.736,85.248,110.736,85.392,110.88,85.392,110.88,85.536,111.024,85.536,111.024,85.68,111.168,85.68,111.168,85.968,111.312,85.968,111.312,86.112,111.456,86.112,111.456,86.4,111.6,86.4,111.6,86.976,111.744,86.976,111.744,89.568,111.888,89.568,111.888,89.712,112.032,89.712,112.032,89.856,112.176,89.856,112.176,90.144,112.32,90.144,112.32,90.288,112.464,90.288,112.464,90.432,112.608,90.432,112.608,90.72,112.752,90.72,112.752,90.864,112.896,90.864,112.896,91.008,129.888,91.008,129.888,90.864,129.024,90.864,129.024,90.72,128.736,90.72,128.736,90.576,128.448,90.576,128.448,90.432,128.16,90.432,128.16,90.288,128.016,90.288,128.016,90.144,127.872,90.144,127.872,90,127.584,90,127.584,89.856,127.44,89.856,127.44,89.568,127.296,89.568,127.296,89.424,127.152,89.424,127.152,89.28,127.008,89.28,127.008,88.992,126.864,88.992,126.864,88.704,126.72,88.704,126.72,88.416,126.576,88.416,126.576,87.696,126.432,87.696,126.432,87.408,126.576,87.408,126.576,86.688,126.72,86.688,126.72,86.256,126.864,86.256,126.864,85.968,127.008,85.968,127.008,85.824,127.152,85.824,127.152,85.536,127.296,85.536,127.296,85.392,127.44,85.392,127.44,85.248,127.584,85.248,127.584,85.104,127.728,85.104,127.728,84.96,127.872,84.96,127.872,84.816,128.016,84.816,128.016,84.672,128.304,84.672,128.304,84.528,128.592,84.528,128.592,84.384,128.736,84.384,128.736,82.944,128.448,82.944,128.448,82.8,128.304,82.8,128.304,82.656,128.16,82.656,128.16,82.512,128.016,82.512,128.016,82.368,127.872,82.368,127.872,82.224,127.728,82.224,127.728,82.08,127.584,82.08,127.584,81.936,127.44,81.936,127.44,81.792,127.296,81.792,127.296,81.504,127.152,81.504,127.152,81.072,127.008,81.072,127.008,80.496,126.864,80.496,126.864,80.208,127.008,80.208,127.008,79.488,127.152,79.488,127.152,79.2,127.296,79.2,127.296,78.912,127.44,78.912,127.44,78.624,127.584,78.624,127.584,78.48,127.728,78.48,127.728,78.336,127.872,78.336,127.872,78.192,128.016,78.192,128.016,78.048,128.16,78.048,128.16,77.904,128.448,77.904,128.448,77.76,128.592,77.76,128.592,77.616,128.88,77.616,128.88,76.176,126.864,76.176,126.864,74.736"  stroke="none" stroke-width="0"/>
    <polygon fill="black" points="88.848,77.328,88.848,77.904,88.992,77.904,88.992,78.048,89.136,78.048,89.136,78.192,89.28,78.192,89.28,78.336,89.424,78.336,89.424,78.48,89.568,78.48,89.568,78.768,89.712,78.768,89.712,78.912,89.856,78.912,89.856,79.2,90,79.2,90,79.776,90.144,79.776,90.144,80.928,90,80.928,90,81.36,89.856,81.36,89.856,81.648,89.712,81.648,89.712,81.936,89.568,81.936,89.568,82.08,89.424,82.08,89.424,82.368,89.28,82.368,89.28,82.512,89.136,82.512,89.136,82.656,88.992,82.656,88.992,82.8,88.848,82.8,88.848,82.944,88.704,82.944,88.704,83.088,88.416,83.088,88.416,83.232,88.272,83.232,88.272,84.672,88.56,84.672,88.56,84.816,88.704,84.816,88.704,84.96,88.848,84.96,88.848,85.104,88.992,85.104,88.992,85.248,89.136,85.248,89.136,85.392,89.28,85.392,89.28,85.536,89.424,85.536,89.424,85.68,89.568,85.68,89.568,85.968,89.712,85.968,89.712,86.112,89.856,86.112,89.856,86.4,90,86.4,90,86.976,90.144,86.976,90.144,88.128,90,88.128,90,88.56,89.856,88.56,89.856,88.848,89.712,88.848,89.712,89.136,89.568,89.136,89.568,89.28,89.424,89.28,89.424,89.568,89.28,89.568,89.28,89.712,89.136,89.712,89.136,89.856,88.992,89.856,88.992,90,88.848,90,88.848,90.144,88.704,90.144,88.704,90.288,88.416,90.288,88.416,90.432,88.272,90.432,88.272,91.872,88.56,91.872,88.56,92.016,88.704,92.016,88.704,92.16,88.848,92.16,88.848,92.304,88.992,92.304,88.992,92.448,89.136,92.448,89.136,92.592,89.28,92.592,89.28,92.736,89.424,92.736,89.424,92.88,89.568,92.88,89.568,93.168,89.712,93.168,89.712,93.312,89.856,93.312,89.856,93.6,90,93.6,90,94.176,90.144,94.176,90.144,95.328,90,95.328,90,95.76,89.856,95.76,89.856,96.048,89.712,96.048,89.712,96.336,89.568,96.336,89.568,96.48,89.424,96.48,89.424,96.768,89.28,96.768,89.28,96.912,89.136,96.912,89.136,97.056,88.992,97.056,88.992,97.2,88.848,97.2,88.848,97.344,88.704,97.344,88.704,97.488,88.416,97.488,88.416,97.632,88.272,97.632,88.272,99.072,88.56,99.072,88.56,99.216,88.704,99.216,88.704,99.36,88.848,99.36,88.848,99.504,88.992,99.504,88.992,99.648,89.136,99.648,89.136,99.792,89.28,99.792,89.28,99.936,89.424,99.936,89.424,100.08,89.568,100.08,89.568,100.368,89.712,100.368,89.712,100.512,89.856,100.512,89.856,100.8,90,100.8,90,101.376,90.144,101.376,90.144,102.528,90,102.528,90,102.96,89.856,102.96,89.856,103.248,89.712,103.248,89.712,103.536,89.568,103.536,89.568,103.68,89.424,103.68,89.424,103.968,89.28,103.968,89.28,104.112,89.136,104.112,89.136,104.256,88.992,104.256,88.992,104.4,88.848,104.4,88.848,104.544,88.704,104.544,88.704,104.688,88.416,104.688,88.416,104.832,88.272,104.832,88.272,106.272,88.56,106.272,88.56,106.416,88.704,106.416,88.704,106.56,88.848,106.56,88.848,106.704,88.992,106.704,88.992,106.848,89.136,106.848,89.136,106.992,89.28,106.992,89.28,107.136,89.424,107.136,89.424,107.28,89.568,107.28,89.568,107.568,89.712,107.568,89.712,107.712,89.856,107.712,89.856,108,90,108,90,108.576,90.144,108.576,90.144,109.728,90,109.728,90,110.16,89.856,110.16,89.856,110.448,89.712,110.448,89.712,110.736,89.568,110.736,89.568,110.88,89.424,110.88,89.424,111.168,89.28,111.168,89.28,111.312,89.136,111.312,89.136,111.456,88.992,111.456,88.992,111.6,88.848,111.6,88.848,111.744,88.704,111.744,88.704,111.888,88.416,111.888,88.416,112.032,88.272,112.032,88.272,113.472,88.56,113.472,88.56,113.616,88.704,113.616,88.704,113.76,88.848,113.76,88.848,113.904,88.992,113.904,88.992,114.048,89.136,114.048,89.136,114.192,89.28,114.192,89.28,114.336,89.424,114.336,89.424,114.48,89.568,114.48,89.568,114.768,89.712,114.768,89.712,114.912,89.856,114.912,89.856,115.2,90,115.2,90,115.776,90.144,115.776,90.144,116.928,90,116.928,90,117.36,89.856,117.36,89.856,117.648,89.712,117.648,89.712,117.936,89.568,117.936,89.568,118.08,89.424,118.08,89.424,118.368,89.28,118.368,89.28,118.512,89.136,118.512,89.136,118.656,88.992,118.656,88.992,118.8,88.848,118.8,88.848,118.944,88.704,118.944,88.704,119.088,88.416,119.088,88.416,119.232,88.272,119.232,88.272,119.376,87.984,119.376,87.984,119.52,87.552,119.52,87.552,119.664,86.832,119.664,86.832,119.808,108.288,119.808,108.288,119.664,107.424,119.664,107.424,119.52,107.136,119.52,107.136,119.376,106.848,119.376,106.848,119.232,106.56,119.232,106.56,119.088,106.416,119.088,106.416,118.944,106.272,118.944,106.272,118.8,105.984,118.8,105.984,118.656,105.84,118.656,105.84,118.368,105.696,118.368,105.696,118.224,105.552,118.224,105.552,118.08,105.408,118.08,105.408,117.792,105.264,117.792,105.264,117.504,105.12,117.504,105.12,117.216,104.976,117.216,104.976,116.496,104.832,116.496,104.832,116.208,104.976,116.208,104.976,115.488,105.12,115.488,105.12,115.056,105.264,115.056,105.264,114.768,105.408,114.768,105.408,114.624,105.552,114.624,105.552,114.336,105.696,114.336,105.696,114.192,105.84,114.192,105.84,114.048,105.984,114.048,105.984,113.904,106.128,113.904,106.128,113.76,106.272,113.76,106.272,113.616,106.416,113.616,106.416,113.472,106.704,113.472,106.704,112.032,106.56,112.032,106.56,111.888,106.416,111.888,106.416,111.744,106.272,111.744,106.272,111.6,105.984,111.6,105.984,111.456,105.84,111.456,105.84,111.168,105.696,111.168,105.696,111.024,105.552,111.024,105.552,110.88,105.408,110.88,105.408,110.592,105.264,110.592,105.264,110.304,105.12,110.304,105.12,110.016,104.976,110.016,104.976,109.296,104.832,109.296,104.832,109.008,104.976,109.008,104.976,108.288,105.12,108.288,105.12,107.856,105.264,107.856,105.264,107.568,105.408,107.568,105.408,107.424,105.552,107.424,105.552,107.136,105.696,107.136,105.696,106.992,105.84,106.992,105.84,106.848,105.984,106.848,105.984,106.704,106.128,106.704,106.128,106.56,106.272,106.56,106.272,106.416,106.416,106.416,106.416,106.272,106.704,106.272,106.704,104.832,106.56,104.832,106.56,104.688,106.416,104.688,106.416,104.544,106.272,104.544,106.272,104.4,105.984,104.4,105.984,104.256,105.84,104.256,105.84,103.968,105.696,103.968,105.696,103.824,105.552,103.824,105.552,103.68,105.408,103.68,105.408,103.392,105.264,103.392,105.264,103.104,105.12,103.104,105.12,102.816,104.976,102.816,104.976,102.096,104.832,102.096,104.832,101.808,104.976,101.808,104.976,101.088,105.12,101.088,105.12,100.656,105.264,100.656,105.264,100.368,105.408,100.368,105.408,100.224,105.552,100.224,105.552,99.936,105.696,99.936,105.696,99.792,105.84,99.792,105.84,99.648,105.984,99.648,105.984,99.504,106.128,99.504,106.128,99.36,106.272,99.36,106.272,99.216,106.416,99.216,106.416,99.072,106.704,99.072,106.704,97.632,106.56,97.632,106.56,97.488,106.416,97.488,106.416,97.344,106.272,97.344,106.272,97.2,105.984,97.2,105.984,97.056,105.84,97.056,105.84,96.768,105.696,96.768,105.696,96.624,105.552,96.624,105.552,96.48,105.408,96.48,105.408,96.192,105.264,96.192,105.264,95.904,105.12,95.904,105.12,95.616,104.976,95.616,104.976,94.896,104.832,94.896,104.832,94.608,104.976,94.608,104.976,93.888,105.12,93.888,105.12,93.456,105.264,93.456,105.264,93.168,105.408,93.168,105.408,93.024,105.552,93.024,105.552,92.736,105.696,92.736,105.696,92.592,105.84,92.592,105.84,92.448,105.984,92.448,105.984,92.304,106.128,92.304,106.128,92.16,106.272,92.16,106.272,92.016,106.416,92.016,106.416,91.872,106.704,91.872,106.704,90.432,106.56,90.432,106.56,90.288,106.416,90.288,106.416,90.144,106.272,90.144,106.272,90,105.984,90,105.984,89.856,105.84,89.856,105.84,89.568,105.696,89.568,105.696,89.424,105.552,89.424,105.552,89.28,105.408,89.28,105.408,88.992,105.264,88.992,105.264,88.704,105.12,88.704,105.12,88.416,104.976,88.416,104.976,87.696,104.832,87.696,104.832,87.12,104.688,87.12,104.688,86.976,104.544,86.976,104.544,86.832,104.256,86.832,104.256,86.688,104.112,86.688,104.112,86.544,103.824,86.544,103.824,86.4,103.68,86.4,103.68,86.256,103.392,86.256,103.392,86.112,103.248,86.112,103.248,85.968,102.96,85.968,102.96,85.824,102.816,85.824,102.816,85.68,102.528,85.68,102.528,85.536,102.384,85.536,102.384,85.392,102.096,85.392,102.096,85.248,101.952,85.248,101.952,85.104,101.664,85.104,101.664,84.96,101.52,84.96,101.52,84.816,101.232,84.816,101.232,84.672,101.088,84.672,101.088,84.528,100.8,84.528,100.8,84.384,100.656,84.384,100.656,84.24,100.368,84.24,100.368,84.096,100.224,84.096,100.224,83.952,99.936,83.952,99.936,83.808,99.792,83.808,99.792,83.664,99.504,83.664,99.504,83.52,99.36,83.52,99.36,83.376,99.072,83.376,99.072,83.232,98.928,83.232,98.928,83.088,98.64,83.088,98.64,82.944,98.496,82.944,98.496,82.8,98.208,82.8,98.208,82.656,98.064,82.656,98.064,82.512,97.776,82.512,97.776,82.368,97.632,82.368,97.632,82.224,97.344,82.224,97.344,82.08,97.2,82.08,97.2,81.936,96.912,81.936,96.912,81.792,96.768,81.792,96.768,81.648,96.48,81.648,96.48,81.504,96.336,81.504,96.336,81.36,96.048,81.36,96.048,81.216,95.904,81.216,95.904,81.072,95.616,81.072,95.616,80.928,95.472,80.928,95.472,80.784,95.184,80.784,95.184,80.64,95.04,80.64,95.04,80.496,94.752,80.496,94.752,80.352,94.608,80.352,94.608,80.208,94.32,80.208,94.32,80.064,94.176,80.064,94.176,79.92,93.888,79.92,93.888,79.776,93.744,79.776,93.744,79.632,93.456,79.632,93.456,79.488,93.312,79.488,93.312,79.344,93.024,79.344,93.024,79.2,92.88,79.2,92.88,79.056,92.592,79.056,92.592,78.912,92.448,78.912,92.448,78.768,92.16,78.768,92.16,78.624,92.016,78.624,92.016,78.48,91.728,78.48,91.728,78.336,91.584,78.336,91.584,78.192,91.296,78.192,91.296,78.048,91.152,78.048,91.152,77.904,90.864,77.904,90.864,77.76,90.72,77.76,90.72,77.616,90.432,77.616,90.432,77.472,90.288,77.472,90.288,77.328"  stroke="none" stroke-width="0"/>
    <polygon fill="black" points="113.04,91.008,113.04,91.152,139.536,91.152,139.536,91.008"  stroke="none" stroke-width="0"/>
    <polygon fill="black" points="113.04,91.008,113.04,91.152,139.536,91.152,139.536,91.008"  stroke="none" stroke-width="0"/>
    <polygon fill="black" points="113.04,91.152,113.04,91.296,113.184,91.296,113.184,91.44,113.328,91.44,113.328,91.584,113.472,91.584,113.472,91.872,113.616,91.872,113.616,92.016,113.76,92.016,113.76,92.16,113.904,92.16,113.904,92.448,114.048,92.448,114.048,92.592,114.192,92.592,114.192,92.736,114.336,92.736,114.336,93.024,114.48,93.024,114.48,93.168,114.624,93.168,114.624,93.312,114.768,93.312,114.768,93.6,114.912,93.6,114.912,93.744,115.056,93.744,115.056,93.888,115.2,93.888,115.2,94.176,115.344,94.176,115.344,94.32,115.488,94.32,115.488,94.464,115.632,94.464,115.632,94.752,115.776,94.752,115.776,94.896,115.92,94.896,115.92,95.04,116.064,95.04,116.064,95.328,116.208,95.328,116.208,95.472,116.352,95.472,116.352,95.616,116.496,95.616,116.496,95.904,116.64,95.904,116.64,96.048,116.784,96.048,116.784,96.192,116.928,96.192,116.928,96.48,117.072,96.48,117.072,96.624,117.216,96.624,117.216,96.768,117.36,96.768,117.36,97.056,117.504,97.056,117.504,97.2,117.648,97.2,117.648,97.344,117.792,97.344,117.792,97.632,117.936,97.632,117.936,97.776,118.08,97.776,118.08,97.92,118.224,97.92,118.224,98.208,118.368,98.208,118.368,98.352,118.512,98.352,118.512,98.496,118.656,98.496,118.656,98.784,118.8,98.784,118.8,98.928,118.944,98.928,118.944,99.072,119.088,99.072,119.088,99.36,119.232,99.36,119.232,99.504,119.376,99.504,119.376,99.648,119.52,99.648,119.52,99.936,119.664,99.936,119.664,100.08,119.808,100.08,119.808,100.224,119.952,100.224,119.952,100.512,120.096,100.512,120.096,100.656,120.24,100.656,120.24,100.8,120.384,100.8,120.384,101.088,120.528,101.088,120.528,101.232,120.672,101.232,120.672,101.376,120.816,101.376,120.816,101.664,120.96,101.664,120.96,101.808,121.104,101.808,121.104,101.952,121.248,101.952,121.248,102.24,121.392,102.24,121.392,102.384,121.536,102.384,121.536,102.528,121.68,102.528,121.68,102.816,121.824,102.816,121.824,102.96,121.968,102.96,121.968,103.104,122.112,103.104,122.112,103.392,122.256,103.392,122.256,103.536,122.4,103.536,122.4,103.68,122.544,103.68,122.544,103.968,122.688,103.968,122.688,104.112,122.832,104.112,122.832,104.256,122.976,104.256,122.976,104.544,123.12,104.544,123.12,104.688,123.264,104.688,123.264,104.832,123.408,104.832,123.408,105.12,123.552,105.12,123.552,105.264,123.696,105.264,123.696,105.408,123.84,105.408,123.84,105.696,123.984,105.696,123.984,105.84,124.128,105.84,124.128,105.984,124.272,105.984,124.272,106.272,124.416,106.272,124.416,106.416,124.56,106.416,124.56,106.56,124.704,106.56,124.704,106.848,124.848,106.848,124.848,106.992,124.992,106.992,124.992,107.136,125.136,107.136,125.136,107.424,125.28,107.424,125.28,107.568,125.424,107.568,125.424,107.712,125.568,107.712,125.568,108,125.712,108,125.712,108.144,125.856,108.144,125.856,108.288,126,108.288,126,108.576,126.144,108.576,126.144,108.72,126.288,108.72,126.288,108.864,126.432,108.864,126.432,109.152,126.576,109.152,126.576,109.296,126.72,109.296,126.72,109.44,126.864,109.44,126.864,109.728,127.008,109.728,127.008,109.872,127.152,109.872,127.152,110.016,127.296,110.016,127.296,110.304,127.44,110.304,127.44,110.448,127.584,110.448,127.584,110.592,127.728,110.592,127.728,110.88,127.872,110.88,127.872,111.024,128.016,111.024,128.016,111.168,128.16,111.168,128.16,111.456,128.304,111.456,128.304,111.6,128.448,111.6,128.448,111.744,128.592,111.744,128.592,112.032,128.736,112.032,128.736,112.176,128.88,112.176,128.88,112.32,129.024,112.32,129.024,112.608,129.168,112.608,129.168,112.752,129.312,112.752,129.312,112.896,133.344,112.896,133.344,119.808,139.536,119.808,139.536,91.152"  stroke="none" stroke-width="0"/>
    <polygon fill="black" points="111.312,96.048,111.312,96.336,111.168,96.336,111.168,96.48,111.024,96.48,111.024,96.768,110.88,96.768,110.88,96.912,110.736,96.912,110.736,97.056,110.592,97.056,110.592,97.2,110.448,97.2,110.448,97.344,110.304,97.344,110.304,97.488,110.016,97.488,110.016,97.632,109.872,97.632,109.872,99.072,110.16,99.072,110.16,99.216,110.304,99.216,110.304,99.36,110.448,99.36,110.448,99.504,110.592,99.504,110.592,99.648,110.736,99.648,110.736,99.792,110.88,99.792,110.88,99.936,111.024,99.936,111.024,100.08,111.168,100.08,111.168,100.368,111.312,100.368,111.312,100.512,111.456,100.512,111.456,100.8,111.6,100.8,111.6,101.376,111.744,101.376,111.744,102.528,111.6,102.528,111.6,102.96,111.456,102.96,111.456,103.248,111.312,103.248,111.312,103.536,111.168,103.536,111.168,103.68,111.024,103.68,111.024,103.968,110.88,103.968,110.88,104.112,110.736,104.112,110.736,104.256,110.592,104.256,110.592,104.4,110.448,104.4,110.448,104.544,110.304,104.544,110.304,104.688,110.016,104.688,110.016,104.832,109.872,104.832,109.872,106.272,110.16,106.272,110.16,106.416,110.304,106.416,110.304,106.56,110.448,106.56,110.448,106.704,110.592,106.704,110.592,106.848,110.736,106.848,110.736,106.992,110.88,106.992,110.88,107.136,111.024,107.136,111.024,107.28,111.168,107.28,111.168,107.568,111.312,107.568,111.312,107.712,111.456,107.712,111.456,108,111.6,108,111.6,108.576,111.744,108.576,111.744,109.728,111.6,109.728,111.6,110.16,111.456,110.16,111.456,110.448,111.312,110.448,111.312,110.736,111.168,110.736,111.168,110.88,111.024,110.88,111.024,111.168,110.88,111.168,110.88,111.312,110.736,111.312,110.736,111.456,110.592,111.456,110.592,111.6,110.448,111.6,110.448,111.744,110.304,111.744,110.304,111.888,110.016,111.888,110.016,112.032,109.872,112.032,109.872,113.472,110.16,113.472,110.16,113.616,110.304,113.616,110.304,113.76,110.448,113.76,110.448,113.904,110.592,113.904,110.592,114.048,110.736,114.048,110.736,114.192,110.88,114.192,110.88,114.336,111.024,114.336,111.024,114.48,111.168,114.48,111.168,114.768,111.312,114.768,111.312,114.912,111.456,114.912,111.456,115.2,111.6,115.2,111.6,115.776,111.744,115.776,111.744,116.928,111.6,116.928,111.6,117.36,111.456,117.36,111.456,117.648,111.312,117.648,111.312,117.936,111.168,117.936,111.168,118.08,111.024,118.08,111.024,118.368,110.88,118.368,110.88,118.512,110.736,118.512,110.736,118.656,110.592,118.656,110.592,118.8,110.448,118.8,110.448,118.944,110.304,118.944,110.304,119.088,110.016,119.088,110.016,119.232,109.872,119.232,109.872,119.376,109.584,119.376,109.584,119.52,109.152,119.52,109.152,119.664,108.432,119.664,108.432,119.808,126.576,119.808,126.576,119.664,126.432,119.664,126.432,114.192,126.288,114.192,126.288,114.048,126.144,114.048,126.144,113.76,126,113.76,126,113.616,125.856,113.616,125.856,113.472,125.712,113.472,125.712,113.184,125.568,113.184,125.568,113.04,125.424,113.04,125.424,112.896,125.28,112.896,125.28,112.608,125.136,112.608,125.136,112.464,124.992,112.464,124.992,112.32,124.848,112.32,124.848,112.032,124.704,112.032,124.704,111.888,124.56,111.888,124.56,111.744,124.416,111.744,124.416,111.456,124.272,111.456,124.272,111.312,124.128,111.312,124.128,111.168,123.984,111.168,123.984,110.88,123.84,110.88,123.84,110.736,123.696,110.736,123.696,110.592,123.552,110.592,123.552,110.304,123.408,110.304,123.408,110.16,123.264,110.16,123.264,110.016,123.12,110.016,123.12,109.728,122.976,109.728,122.976,109.584,122.832,109.584,122.832,109.44,122.688,109.44,122.688,109.152,122.544,109.152,122.544,109.008,122.4,109.008,122.4,108.864,122.256,108.864,122.256,108.576,122.112,108.576,122.112,108.432,121.968,108.432,121.968,108.288,121.824,108.288,121.824,108,121.68,108,121.68,107.856,121.536,107.856,121.536,107.712,121.392,107.712,121.392,107.424,121.248,107.424,121.248,107.28,121.104,107.28,121.104,107.136,120.96,107.136,120.96,106.848,120.816,106.848,120.816,106.704,120.672,106.704,120.672,106.56,120.528,106.56,120.528,106.272,120.384,106.272,120.384,106.128,120.24,106.128,120.24,105.984,120.096,105.984,120.096,105.696,119.952,105.696,119.952,105.552,119.808,105.552,119.808,105.408,119.664,105.408,119.664,105.12,119.52,105.12,119.52,104.976,119.376,104.976,119.376,104.832,119.232,104.832,119.232,104.544,119.088,104.544,119.088,104.4,118.944,104.4,118.944,104.256,118.8,104.256,118.8,103.968,118.656,103.968,118.656,103.824,118.512,103.824,118.512,103.68,118.368,103.68,118.368,103.392,118.224,103.392,118.224,103.248,118.08,103.248,118.08,103.104,117.936,103.104,117.936,102.816,117.792,102.816,117.792,102.672,117.648,102.672,117.648,102.528,117.504,102.528,117.504,102.24,117.36,102.24,117.36,102.096,117.216,102.096,117.216,101.952,117.072,101.952,117.072,101.664,116.928,101.664,116.928,101.52,116.784,101.52,116.784,101.376,116.64,101.376,116.64,101.088,116.496,101.088,116.496,100.944,116.352,100.944,116.352,100.8,116.208,100.8,116.208,100.512,116.064,100.512,116.064,100.368,115.92,100.368,115.92,100.224,115.776,100.224,115.776,99.936,115.632,99.936,115.632,99.792,115.488,99.792,115.488,99.648,115.344,99.648,115.344,99.36,115.2,99.36,115.2,99.216,115.056,99.216,115.056,99.072,114.912,99.072,114.912,98.784,114.768,98.784,114.768,98.64,114.624,98.64,114.624,98.496,114.48,98.496,114.48,98.208,114.336,98.208,114.336,98.064,114.192,98.064,114.192,97.92,114.048,97.92,114.048,97.632,113.904,97.632,113.904,97.488,113.76,97.488,113.76,97.344,113.616,97.344,113.616,97.056,113.472,97.056,113.472,96.912,113.328,96.912,113.328,96.768,113.184,96.768,113.184,96.48,113.04,96.48,113.04,96.336,112.896,96.336,112.896,96.192,112.752,96.192,112.752,96.048"  stroke="none" stroke-width="0"/>
    <polygon fill="black" points="0,112.752,0,112.896,85.104,112.896,85.104,112.752"  stroke="none" stroke-width="0"/>
    <polygon fill="black" points="0,112.752,0,112.896,85.104,112.896,85.104,112.752"  stroke="none" stroke-width="0"/>
    <polygon fill="black" points="0,112.896,0,119.808,86.688,119.808,86.688,119.664,85.824,119.664,85.824,119.52,85.536,119.52,85.536,119.376,85.248,119.376,85.248,119.232,84.96,119.232,84.96,119.088,84.816,119.088,84.816,118.944,84.672,118.944,84.672,118.8,84.384,118.8,84.384,118.656,84.24,118.656,84.24,118.368,84.096,118.368,84.096,118.224,83.952,118.224,83.952,118.08,83.808,118.08,83.808,117.792,83.664,117.792,83.664,117.504,83.52,117.504,83.52,117.216,83.376,117.216,83.376,116.496,83.232,116.496,83.232,116.208,83.376,116.208,83.376,115.488,83.52,115.488,83.52,115.056,83.664,115.056,83.664,114.768,83.808,114.768,83.808,114.624,83.952,114.624,83.952,114.336,84.096,114.336,84.096,114.192,84.24,114.192,84.24,114.048,84.384,114.048,84.384,113.904,84.528,113.904,84.528,113.76,84.672,113.76,84.672,113.616,84.816,113.616,84.816,113.472,85.104,113.472,85.104,112.896"  stroke="none" stroke-width="0"/>
    <polygon fill="black" points="0,119.808,0,119.952,139.536,119.952,139.536,119.808"  stroke="none" stroke-width="0"/>
    <polygon fill="black" points="0,119.808,0,119.952,139.536,119.952,139.536,119.808"  stroke="none" stroke-width="0"/>
    <polygon fill="black" points="0,119.808,0,119.952,139.536,119.952,139.536,119.808"  stroke="none" stroke-width="0"/>
    <polygon fill="black" points="0,119.808,0,119.952,139.536,119.952,139.536,119.808"  stroke="none" stroke-width="0"/>
    <polygon fill="black" points="0,119.952,0,121.824,139.536,121.824,139.536,119.952"  stroke="none" stroke-width="0"/>
    <g  id="connector0pad">
     <circle fill="black" cx="101.184"  cy="5.85529" stroke="none" r="2.7" stroke-width="0"/>
    </g>
   </g>
  </g>
 </g>
 <g partID="55980">
  <g transform="translate(11.952,5.616)">
   <g  id="groundplane">
    <polygon fill="black" points="0,0,0,5.328,19.008,5.328,19.008,5.472,19.44,5.472,19.44,5.616,19.728,5.616,19.728,5.76,20.016,5.76,20.016,5.904,20.16,5.904,20.16,6.048,20.448,6.048,20.448,6.192,20.592,6.192,20.592,6.336,20.736,6.336,20.736,6.48,20.88,6.48,20.88,6.624,21.024,6.624,21.024,6.768,21.168,6.768,21.168,7.056,21.312,7.056,21.312,7.2,21.456,7.2,21.456,7.488,21.6,7.488,21.6,7.92,21.744,7.92,21.744,8.64,21.888,8.64,21.888,8.928,21.744,8.928,21.744,9.648,21.6,9.648,21.6,9.936,21.456,9.936,21.456,10.224,21.312,10.224,21.312,10.512,21.168,10.512,21.168,10.656,21.024,10.656,21.024,10.944,20.88,10.944,20.88,11.088,20.736,11.088,20.736,11.232,20.592,11.232,20.592,11.376,20.304,11.376,20.304,11.52,20.16,11.52,20.16,11.664,19.872,11.664,19.872,11.808,19.584,11.808,19.584,11.952,19.296,11.952,19.296,12.096,18.576,12.096,18.576,12.24,83.232,12.24,83.232,0"  stroke="none" stroke-width="0"/>
    <polygon fill="black" points="0,5.328,0,12.24,5.472,12.24,5.472,12.096,4.752,12.096,4.752,11.952,4.464,11.952,4.464,11.808,4.176,11.808,4.176,11.664,3.888,11.664,3.888,11.52,3.744,11.52,3.744,11.376,3.456,11.376,3.456,11.232,3.312,11.232,3.312,11.088,3.168,11.088,3.168,10.944,3.024,10.944,3.024,10.656,2.88,10.656,2.88,10.512,2.736,10.512,2.736,10.224,2.592,10.224,2.592,9.936,2.448,9.936,2.448,9.648,2.304,9.648,2.304,8.784,2.16,8.784,2.16,8.64,2.304,8.64,2.304,7.92,2.448,7.92,2.448,7.488,2.592,7.488,2.592,7.2,2.736,7.2,2.736,7.056,2.88,7.056,2.88,6.768,3.024,6.768,3.024,6.624,3.168,6.624,3.168,6.48,3.312,6.48,3.312,6.336,3.456,6.336,3.456,6.192,3.6,6.192,3.6,6.048,3.888,6.048,3.888,5.904,4.032,5.904,4.032,5.76,4.32,5.76,4.32,5.616,4.608,5.616,4.608,5.472,5.04,5.472,5.04,5.328"  stroke="none" stroke-width="0"/>
    <polygon fill="black" points="6.192,5.328,6.192,5.472,6.624,5.472,6.624,5.616,7.056,5.616,7.056,5.76,7.2,5.76,7.2,5.904,7.488,5.904,7.488,6.048,7.632,6.048,7.632,6.192,7.776,6.192,7.776,6.336,7.92,6.336,7.92,6.48,8.064,6.48,8.064,6.624,8.208,6.624,8.208,6.768,8.352,6.768,8.352,6.912,8.496,6.912,8.496,7.2,8.64,7.2,8.64,7.344,8.784,7.344,8.784,7.776,8.928,7.776,8.928,8.208,9.072,8.208,9.072,9.36,8.928,9.36,8.928,9.792,8.784,9.792,8.784,10.08,8.64,10.08,8.64,10.368,8.496,10.368,8.496,10.656,8.352,10.656,8.352,10.8,8.208,10.8,8.208,10.944,8.064,10.944,8.064,11.088,7.92,11.088,7.92,11.232,7.776,11.232,7.776,11.376,7.632,11.376,7.632,11.52,7.344,11.52,7.344,11.664,7.2,11.664,7.2,11.808,6.912,11.808,6.912,11.952,6.48,11.952,6.48,12.096,5.904,12.096,5.904,12.24,18.144,12.24,18.144,12.096,17.568,12.096,17.568,11.952,17.136,11.952,17.136,11.808,16.848,11.808,16.848,11.664,16.704,11.664,16.704,11.52,16.416,11.52,16.416,11.376,16.272,11.376,16.272,11.232,16.128,11.232,16.128,11.088,15.984,11.088,15.984,10.944,15.84,10.944,15.84,10.8,15.696,10.8,15.696,10.656,15.552,10.656,15.552,10.368,15.408,10.368,15.408,10.08,15.264,10.08,15.264,9.792,15.12,9.792,15.12,9.36,14.976,9.36,14.976,8.208,15.12,8.208,15.12,7.776,15.264,7.776,15.264,7.344,15.408,7.344,15.408,7.2,15.552,7.2,15.552,6.912,15.696,6.912,15.696,6.768,15.84,6.768,15.84,6.624,15.984,6.624,15.984,6.48,16.128,6.48,16.128,6.336,16.272,6.336,16.272,6.192,16.416,6.192,16.416,6.048,16.56,6.048,16.56,5.904,16.848,5.904,16.848,5.76,16.992,5.76,16.992,5.616,17.424,5.616,17.424,5.472,17.856,5.472,17.856,5.328"  stroke="none" stroke-width="0"/>
    <polygon fill="black" points="0,12.24,0,12.384,83.232,12.384,83.232,12.24"  stroke="none" stroke-width="0"/>
    <polygon fill="black" points="0,12.24,0,12.384,83.232,12.384,83.232,12.24"  stroke="none" stroke-width="0"/>
    <polygon fill="black" points="0,12.24,0,12.384,83.232,12.384,83.232,12.24"  stroke="none" stroke-width="0"/>
    <polygon fill="black" points="0,12.384,0,16.56,81.072,16.56,81.072,23.472,79.92,23.472,79.92,24.912,80.064,24.912,80.064,25.056,80.208,25.056,80.208,25.2,80.352,25.2,80.352,25.344,80.496,25.344,80.496,25.632,80.64,25.632,80.64,25.776,80.784,25.776,80.784,26.064,80.928,26.064,80.928,26.64,81.072,26.64,81.072,27.792,80.928,27.792,80.928,28.224,80.784,28.224,80.784,28.512,80.64,28.512,80.64,28.8,80.496,28.8,80.496,28.944,80.352,28.944,80.352,29.232,80.208,29.232,80.208,29.376,80.064,29.376,80.064,29.52,79.92,29.52,79.92,29.664,79.776,29.664,79.776,29.808,79.632,29.808,79.632,29.952,79.344,29.952,79.344,30.096,79.2,30.096,79.2,31.536,79.488,31.536,79.488,31.68,79.632,31.68,79.632,31.824,79.776,31.824,79.776,31.968,79.92,31.968,79.92,32.112,80.064,32.112,80.064,32.256,80.208,32.256,80.208,32.4,80.352,32.4,80.352,32.544,80.496,32.544,80.496,32.832,80.64,32.832,80.64,32.976,80.784,32.976,80.784,33.264,80.928,33.264,80.928,33.84,81.072,33.84,81.072,34.992,80.928,34.992,80.928,35.424,80.784,35.424,80.784,35.712,80.64,35.712,80.64,36,80.496,36,80.496,36.144,80.352,36.144,80.352,36.432,80.208,36.432,80.208,36.576,80.064,36.576,80.064,36.72,79.92,36.72,79.92,36.864,79.776,36.864,79.776,37.008,79.632,37.008,79.632,37.152,79.344,37.152,79.344,37.296,79.2,37.296,79.2,38.736,79.488,38.736,79.488,38.88,79.632,38.88,79.632,39.024,79.776,39.024,79.776,39.168,79.92,39.168,79.92,39.312,80.064,39.312,80.064,39.456,80.208,39.456,80.208,39.6,80.352,39.6,80.352,39.744,80.496,39.744,80.496,40.032,80.64,40.032,80.64,40.176,80.784,40.176,80.784,40.464,80.928,40.464,80.928,41.04,81.072,41.04,81.072,42.192,80.928,42.192,80.928,42.624,80.784,42.624,80.784,42.912,80.64,42.912,80.64,43.2,80.496,43.2,80.496,43.344,80.352,43.344,80.352,43.632,80.208,43.632,80.208,43.776,80.064,43.776,80.064,43.92,79.92,43.92,79.92,44.064,79.776,44.064,79.776,44.208,79.632,44.208,79.632,44.352,79.344,44.352,79.344,44.496,79.2,44.496,79.2,45.936,79.488,45.936,79.488,46.08,79.632,46.08,79.632,46.224,79.776,46.224,79.776,46.368,79.92,46.368,79.92,46.512,80.064,46.512,80.064,46.656,80.208,46.656,80.208,46.8,80.352,46.8,80.352,46.944,80.496,46.944,80.496,47.232,80.64,47.232,80.64,47.376,80.784,47.376,80.784,47.664,80.928,47.664,80.928,48.24,81.072,48.24,81.072,49.392,80.928,49.392,80.928,49.824,80.784,49.824,80.784,50.112,80.64,50.112,80.64,50.4,80.496,50.4,80.496,50.544,80.352,50.544,80.352,50.832,80.208,50.832,80.208,50.976,80.064,50.976,80.064,51.12,79.92,51.12,79.92,51.264,79.776,51.264,79.776,51.408,79.632,51.408,79.632,51.552,79.344,51.552,79.344,51.696,79.2,51.696,79.2,53.136,79.488,53.136,79.488,53.28,79.632,53.28,79.632,53.424,79.776,53.424,79.776,53.568,79.92,53.568,79.92,53.712,80.064,53.712,80.064,53.856,80.208,53.856,80.208,54,80.352,54,80.352,54.144,80.496,54.144,80.496,54.432,80.64,54.432,80.64,54.576,80.784,54.576,80.784,54.864,80.928,54.864,80.928,55.44,81.072,55.44,81.072,56.592,80.928,56.592,80.928,57.024,80.784,57.024,80.784,57.312,80.64,57.312,80.64,57.6,80.496,57.6,80.496,57.744,80.352,57.744,80.352,58.032,80.208,58.032,80.208,58.176,80.064,58.176,80.064,58.32,79.92,58.32,79.92,58.464,79.776,58.464,79.776,58.608,79.632,58.608,79.632,58.752,79.344,58.752,79.344,58.896,79.2,58.896,79.2,60.336,79.488,60.336,79.488,60.48,79.632,60.48,79.632,60.624,79.776,60.624,79.776,60.768,79.92,60.768,79.92,60.912,80.064,60.912,80.064,61.056,80.208,61.056,80.208,61.2,80.352,61.2,80.352,61.344,80.496,61.344,80.496,61.632,80.64,61.632,80.64,61.776,80.784,61.776,80.784,62.064,80.928,62.064,80.928,62.64,81.072,62.64,81.072,63.792,80.928,63.792,80.928,64.224,80.784,64.224,80.784,64.512,80.64,64.512,80.64,64.8,80.496,64.8,80.496,64.944,80.352,64.944,80.352,65.232,80.208,65.232,80.208,65.376,80.064,65.376,80.064,65.52,79.92,65.52,79.92,65.664,79.776,65.664,79.776,65.808,79.632,65.808,79.632,65.952,79.344,65.952,79.344,66.096,79.2,66.096,79.2,67.536,79.488,67.536,79.488,67.68,79.632,67.68,79.632,67.824,79.776,67.824,79.776,67.968,79.92,67.968,79.92,68.112,80.064,68.112,80.064,68.256,80.208,68.256,80.208,68.4,80.352,68.4,80.352,68.544,80.496,68.544,80.496,68.832,80.64,68.832,80.64,68.976,80.784,68.976,80.784,69.264,80.928,69.264,80.928,69.84,81.072,69.84,81.072,70.848,81.36,70.848,81.36,70.992,81.504,70.992,81.504,71.136,81.792,71.136,81.792,71.28,81.936,71.28,81.936,71.424,83.376,71.424,83.376,70.704,83.232,70.704,83.232,12.384"  stroke="none" stroke-width="0"/>
    <polygon fill="black" points="0,16.56,0,23.76,56.592,23.76,56.592,23.904,57.168,23.904,57.168,24.048,57.456,24.048,57.456,24.192,57.6,24.192,57.6,24.336,57.888,24.336,57.888,24.48,58.032,24.48,58.032,24.624,58.176,24.624,58.176,24.768,58.32,24.768,58.32,24.912,58.464,24.912,58.464,25.056,58.608,25.056,58.608,25.2,58.752,25.2,58.752,25.344,58.896,25.344,58.896,25.632,74.736,25.632,74.736,25.488,74.88,25.488,74.88,25.2,75.024,25.2,75.024,25.056,75.168,25.056,75.168,24.912,75.312,24.912,75.312,23.472,74.304,23.472,74.304,23.328,74.16,23.328,74.16,16.56"  stroke="none" stroke-width="0"/>
    <polygon fill="black" points="0,23.76,0,41.04,5.472,41.04,5.472,40.896,4.752,40.896,4.752,40.752,4.464,40.752,4.464,40.608,4.176,40.608,4.176,40.464,3.888,40.464,3.888,40.32,3.744,40.32,3.744,40.176,3.456,40.176,3.456,40.032,3.312,40.032,3.312,39.888,3.168,39.888,3.168,39.744,3.024,39.744,3.024,39.456,2.88,39.456,2.88,39.312,2.736,39.312,2.736,39.024,2.592,39.024,2.592,38.736,2.448,38.736,2.448,38.448,2.304,38.448,2.304,37.728,2.16,37.728,2.16,37.44,2.304,37.44,2.304,36.72,2.448,36.72,2.448,36.288,2.592,36.288,2.592,36,2.736,36,2.736,35.856,2.88,35.856,2.88,35.568,3.024,35.568,3.024,35.424,3.168,35.424,3.168,35.28,3.312,35.28,3.312,35.136,3.456,35.136,3.456,34.992,3.6,34.992,3.6,34.848,3.888,34.848,3.888,34.704,4.032,34.704,4.032,30.096,3.888,30.096,3.888,29.952,3.744,29.952,3.744,29.808,3.6,29.808,3.6,29.664,3.312,29.664,3.312,29.52,3.168,29.52,3.168,29.232,3.024,29.232,3.024,29.088,2.88,29.088,2.88,28.944,2.736,28.944,2.736,28.656,2.592,28.656,2.592,28.368,2.448,28.368,2.448,28.08,2.304,28.08,2.304,27.36,2.16,27.36,2.16,27.072,2.304,27.072,2.304,26.352,2.448,26.352,2.448,25.92,2.592,25.92,2.592,25.632,2.736,25.632,2.736,25.488,2.88,25.488,2.88,25.2,3.024,25.2,3.024,25.056,3.168,25.056,3.168,24.912,3.312,24.912,3.312,24.768,3.456,24.768,3.456,24.624,3.6,24.624,3.6,24.48,3.744,24.48,3.744,24.336,4.032,24.336,4.032,24.192,4.32,24.192,4.32,24.048,4.608,24.048,4.608,23.904,5.04,23.904,5.04,23.76"  stroke="none" stroke-width="0"/>
    <polygon fill="black" points="6.192,23.76,6.192,23.904,6.768,23.904,6.768,24.048,7.056,24.048,7.056,24.192,7.2,24.192,7.2,24.336,7.488,24.336,7.488,24.48,7.632,24.48,7.632,24.624,7.776,24.624,7.776,24.768,7.92,24.768,7.92,24.912,8.064,24.912,8.064,25.056,8.208,25.056,8.208,25.2,8.352,25.2,8.352,25.344,8.496,25.344,8.496,25.632,8.64,25.632,8.64,25.776,8.784,25.776,8.784,26.064,8.928,26.064,8.928,26.64,9.072,26.64,9.072,27.792,8.928,27.792,8.928,28.224,8.784,28.224,8.784,28.512,8.64,28.512,8.64,28.8,8.496,28.8,8.496,28.944,8.352,28.944,8.352,29.232,8.208,29.232,8.208,29.376,8.064,29.376,8.064,29.52,7.92,29.52,7.92,29.664,7.776,29.664,7.776,29.808,7.632,29.808,7.632,29.952,7.344,29.952,7.344,30.096,7.2,30.096,7.2,30.672,18.288,30.672,18.288,30.528,17.568,30.528,17.568,30.384,17.136,30.384,17.136,30.24,16.848,30.24,16.848,30.096,16.704,30.096,16.704,29.952,16.416,29.952,16.416,29.808,16.272,29.808,16.272,29.664,16.128,29.664,16.128,29.52,15.984,29.52,15.984,29.376,15.84,29.376,15.84,29.232,15.696,29.232,15.696,28.944,15.552,28.944,15.552,28.8,15.408,28.8,15.408,28.512,15.264,28.512,15.264,28.224,15.12,28.224,15.12,27.792,14.976,27.792,14.976,26.64,15.12,26.64,15.12,26.064,15.264,26.064,15.264,25.776,15.408,25.776,15.408,25.632,15.552,25.632,15.552,25.344,15.696,25.344,15.696,25.2,15.84,25.2,15.84,25.056,15.984,25.056,15.984,24.912,16.128,24.912,16.128,24.768,16.272,24.768,16.272,24.624,16.416,24.624,16.416,24.48,16.56,24.48,16.56,24.336,16.848,24.336,16.848,24.192,16.992,24.192,16.992,24.048,17.28,24.048,17.28,23.904,17.856,23.904,17.856,23.76"  stroke="none" stroke-width="0"/>
    <polygon fill="black" points="19.008,23.76,19.008,23.904,19.44,23.904,19.44,24.048,19.728,24.048,19.728,24.192,20.016,24.192,20.016,24.336,20.304,24.336,20.304,24.48,20.448,24.48,20.448,24.624,20.592,24.624,20.592,24.768,20.736,24.768,20.736,24.912,20.88,24.912,20.88,25.056,21.024,25.056,21.024,25.2,21.168,25.2,21.168,25.488,21.312,25.488,21.312,25.632,53.136,25.632,53.136,25.488,53.28,25.488,53.28,25.2,53.424,25.2,53.424,25.056,53.568,25.056,53.568,24.912,53.712,24.912,53.712,24.768,53.856,24.768,53.856,24.624,54,24.624,54,24.48,54.144,24.48,54.144,24.336,54.432,24.336,54.432,24.192,54.72,24.192,54.72,24.048,55.008,24.048,55.008,23.904,55.44,23.904,55.44,23.76"  stroke="none" stroke-width="0"/>
    <polygon fill="black" points="21.312,28.8,21.312,28.944,21.168,28.944,21.168,29.088,21.024,29.088,21.024,29.232,20.88,29.232,20.88,29.52,20.736,29.52,20.736,29.664,20.448,29.664,20.448,29.808,20.304,29.808,20.304,29.952,20.16,29.952,20.16,30.096,19.872,30.096,19.872,30.24,19.584,30.24,19.584,30.384,19.296,30.384,19.296,30.528,18.432,30.528,18.432,30.672,56.016,30.672,56.016,30.528,55.152,30.528,55.152,30.384,54.864,30.384,54.864,30.24,54.576,30.24,54.576,30.096,54.288,30.096,54.288,29.952,54.144,29.952,54.144,29.808,54,29.808,54,29.664,53.712,29.664,53.712,29.52,53.568,29.52,53.568,29.232,53.424,29.232,53.424,29.088,53.28,29.088,53.28,28.944,53.136,28.944,53.136,28.8"  stroke="none" stroke-width="0"/>
    <polygon fill="black" points="58.896,28.8,58.896,28.944,58.752,28.944,58.752,29.232,58.608,29.232,58.608,29.376,58.464,29.376,58.464,29.52,58.32,29.52,58.32,29.664,58.176,29.664,58.176,29.808,58.032,29.808,58.032,29.952,57.744,29.952,57.744,30.096,57.6,30.096,57.6,30.24,57.312,30.24,57.312,30.384,56.88,30.384,56.88,30.528,56.16,30.528,56.16,30.672,76.032,30.672,76.032,30.096,75.888,30.096,75.888,29.952,75.744,29.952,75.744,29.808,75.6,29.808,75.6,29.664,75.312,29.664,75.312,29.52,75.168,29.52,75.168,29.232,75.024,29.232,75.024,29.088,74.88,29.088,74.88,28.944,74.736,28.944,74.736,28.8"  stroke="none" stroke-width="0"/>
    <polygon fill="black" points="7.2,30.672,7.2,30.816,76.032,30.816,76.032,30.672"  stroke="none" stroke-width="0"/>
    <polygon fill="black" points="7.2,30.672,7.2,30.816,76.032,30.816,76.032,30.672"  stroke="none" stroke-width="0"/>
    <polygon fill="black" points="7.2,30.672,7.2,30.816,76.032,30.816,76.032,30.672"  stroke="none" stroke-width="0"/>
    <polygon fill="black" points="7.2,30.816,7.2,30.96,42.192,30.96,42.192,31.104,42.768,31.104,42.768,31.248,43.056,31.248,43.056,31.392,43.2,31.392,43.2,31.536,43.488,31.536,43.488,31.68,43.632,31.68,43.632,31.824,43.776,31.824,43.776,31.968,43.92,31.968,43.92,32.112,44.064,32.112,44.064,32.256,44.208,32.256,44.208,32.4,44.352,32.4,44.352,32.544,44.496,32.544,44.496,32.832,74.736,32.832,74.736,32.688,74.88,32.688,74.88,32.4,75.024,32.4,75.024,32.256,75.168,32.256,75.168,32.112,75.312,32.112,75.312,31.968,75.456,31.968,75.456,31.824,75.6,31.824,75.6,31.68,75.744,31.68,75.744,31.536,76.032,31.536,76.032,30.816"  stroke="none" stroke-width="0"/>
    <polygon fill="black" points="7.2,30.96,7.2,34.128,19.008,34.128,19.008,34.272,19.44,34.272,19.44,34.416,19.728,34.416,19.728,34.56,20.016,34.56,20.016,34.704,20.16,34.704,20.16,34.848,20.448,34.848,20.448,34.992,20.592,34.992,20.592,35.136,20.736,35.136,20.736,35.28,20.88,35.28,20.88,35.424,22.896,35.424,22.896,35.28,23.904,35.28,23.904,35.136,24.912,35.136,24.912,34.992,26.064,34.992,26.064,34.848,27.072,34.848,27.072,34.704,28.08,34.704,28.08,34.56,29.232,34.56,29.232,34.416,30.24,34.416,30.24,34.272,31.248,34.272,31.248,34.128,32.4,34.128,32.4,33.984,33.408,33.984,33.408,33.84,34.416,33.84,34.416,33.696,35.568,33.696,35.568,33.552,36.576,33.552,36.576,33.408,37.584,33.408,37.584,33.264,38.448,33.264,38.448,33.12,38.592,33.12,38.592,32.832,38.736,32.832,38.736,32.688,38.88,32.688,38.88,32.4,39.024,32.4,39.024,32.256,39.168,32.256,39.168,32.112,39.312,32.112,39.312,31.968,39.456,31.968,39.456,31.824,39.6,31.824,39.6,31.68,39.744,31.68,39.744,31.536,40.032,31.536,40.032,31.392,40.32,31.392,40.32,31.248,40.608,31.248,40.608,31.104,41.04,31.104,41.04,30.96"  stroke="none" stroke-width="0"/>
    <polygon fill="black" points="7.2,34.128,7.2,34.704,7.488,34.704,7.488,34.848,7.632,34.848,7.632,34.992,7.776,34.992,7.776,35.136,7.92,35.136,7.92,35.28,8.064,35.28,8.064,35.424,8.208,35.424,8.208,35.568,8.352,35.568,8.352,35.712,8.496,35.712,8.496,36,8.64,36,8.64,36.144,8.784,36.144,8.784,36.576,8.928,36.576,8.928,37.008,9.072,37.008,9.072,38.16,8.928,38.16,8.928,38.592,8.784,38.592,8.784,38.88,8.64,38.88,8.64,39.168,8.496,39.168,8.496,39.456,8.352,39.456,8.352,39.6,8.208,39.6,8.208,39.744,8.064,39.744,8.064,39.888,7.92,39.888,7.92,40.032,7.776,40.032,7.776,40.176,7.632,40.176,7.632,40.32,7.344,40.32,7.344,40.464,7.2,40.464,7.2,40.608,6.912,40.608,6.912,40.752,6.48,40.752,6.48,40.896,5.904,40.896,5.904,41.04,18.144,41.04,18.144,40.896,17.568,40.896,17.568,40.752,17.136,40.752,17.136,40.608,16.848,40.608,16.848,40.464,16.704,40.464,16.704,40.32,16.416,40.32,16.416,40.176,16.272,40.176,16.272,40.032,16.128,40.032,16.128,39.888,15.984,39.888,15.984,39.744,15.84,39.744,15.84,39.6,15.696,39.6,15.696,39.456,15.552,39.456,15.552,39.168,15.408,39.168,15.408,38.88,15.264,38.88,15.264,38.592,15.12,38.592,15.12,38.16,14.976,38.16,14.976,37.008,15.12,37.008,15.12,36.576,15.264,36.576,15.264,36.144,15.408,36.144,15.408,36,15.552,36,15.552,35.712,15.696,35.712,15.696,35.568,15.84,35.568,15.84,35.424,15.984,35.424,15.984,35.28,16.128,35.28,16.128,35.136,16.272,35.136,16.272,34.992,16.416,34.992,16.416,34.848,16.56,34.848,16.56,34.704,16.848,34.704,16.848,34.56,16.992,34.56,16.992,34.416,17.424,34.416,17.424,34.272,17.856,34.272,17.856,34.128"  stroke="none" stroke-width="0"/>
    <polygon fill="black" points="44.496,36,44.496,36.144,44.352,36.144,44.352,36.432,44.208,36.432,44.208,36.576,44.064,36.576,44.064,36.72,43.92,36.72,43.92,36.864,43.776,36.864,43.776,37.008,43.632,37.008,43.632,37.152,43.344,37.152,43.344,37.296,43.2,37.296,43.2,37.44,42.912,37.44,42.912,37.584,42.48,37.584,42.48,37.728,41.76,37.728,41.76,37.872,76.032,37.872,76.032,37.296,75.888,37.296,75.888,37.152,75.744,37.152,75.744,37.008,75.6,37.008,75.6,36.864,75.312,36.864,75.312,36.72,75.168,36.72,75.168,36.432,75.024,36.432,75.024,36.288,74.88,36.288,74.88,36.144,74.736,36.144,74.736,36"  stroke="none" stroke-width="0"/>
    <polygon fill="black" points="36.72,36.576,36.72,36.72,35.712,36.72,35.712,36.864,34.704,36.864,34.704,37.008,33.552,37.008,33.552,37.152,32.544,37.152,32.544,37.296,31.536,37.296,31.536,37.44,30.384,37.44,30.384,37.584,29.376,37.584,29.376,37.728,28.368,37.728,28.368,37.872,41.616,37.872,41.616,37.728,40.752,37.728,40.752,37.584,40.464,37.584,40.464,37.44,40.176,37.44,40.176,37.296,39.888,37.296,39.888,37.152,39.744,37.152,39.744,37.008,39.6,37.008,39.6,36.864,39.312,36.864,39.312,36.72,39.168,36.72,39.168,36.576"  stroke="none" stroke-width="0"/>
    <polygon fill="black" points="27.216,37.872,27.216,38.016,76.032,38.016,76.032,37.872"  stroke="none" stroke-width="0"/>
    <polygon fill="black" points="27.216,37.872,27.216,38.016,76.032,38.016,76.032,37.872"  stroke="none" stroke-width="0"/>
    <polygon fill="black" points="26.208,38.016,26.208,38.16,25.2,38.16,25.2,38.304,24.192,38.304,24.192,38.448,23.04,38.448,23.04,38.592,22.032,38.592,22.032,38.736,21.456,38.736,21.456,39.024,21.312,39.024,21.312,39.312,21.168,39.312,21.168,39.456,21.024,39.456,21.024,39.744,20.88,39.744,20.88,39.888,20.736,39.888,20.736,40.032,20.592,40.032,20.592,40.176,20.304,40.176,20.304,40.32,20.16,40.32,20.16,40.464,19.872,40.464,19.872,40.608,19.584,40.608,19.584,40.752,19.296,40.752,19.296,40.896,18.576,40.896,18.576,41.04,74.304,41.04,74.304,40.752,74.448,40.752,74.448,40.32,74.592,40.32,74.592,40.032,74.736,40.032,74.736,39.888,74.88,39.888,74.88,39.6,75.024,39.6,75.024,39.456,75.168,39.456,75.168,39.312,75.312,39.312,75.312,39.168,75.456,39.168,75.456,39.024,75.6,39.024,75.6,38.88,75.744,38.88,75.744,38.736,76.032,38.736,76.032,38.016"  stroke="none" stroke-width="0"/>
    <polygon fill="black" points="0,41.04,0,41.184,74.304,41.184,74.304,41.04"  stroke="none" stroke-width="0"/>
    <polygon fill="black" points="0,41.04,0,41.184,74.304,41.184,74.304,41.04"  stroke="none" stroke-width="0"/>
    <polygon fill="black" points="0,41.04,0,41.184,74.304,41.184,74.304,41.04"  stroke="none" stroke-width="0"/>
    <polygon fill="black" points="0,41.184,0,52.56,59.472,52.56,59.472,56.448,59.76,56.448,59.76,56.592,59.904,56.592,59.904,56.736,60.192,56.736,60.192,56.88,60.336,56.88,60.336,57.024,60.624,57.024,60.624,57.168,60.768,57.168,60.768,57.312,61.056,57.312,61.056,57.456,61.2,57.456,61.2,57.6,61.488,57.6,61.488,57.744,61.632,57.744,61.632,57.888,61.92,57.888,61.92,58.032,62.064,58.032,62.064,58.176,62.352,58.176,62.352,58.32,62.496,58.32,62.496,58.464,62.784,58.464,62.784,58.608,62.928,58.608,62.928,58.752,63.216,58.752,63.216,58.896,63.36,58.896,63.36,59.04,63.648,59.04,63.648,59.184,63.792,59.184,63.792,59.328,64.08,59.328,64.08,59.472,64.224,59.472,64.224,59.616,64.512,59.616,64.512,59.76,64.656,59.76,64.656,59.904,64.944,59.904,64.944,60.048,65.088,60.048,65.088,60.192,65.376,60.192,65.376,60.336,65.52,60.336,65.52,60.48,65.808,60.48,65.808,60.624,65.952,60.624,65.952,60.768,66.24,60.768,66.24,60.912,66.384,60.912,66.384,61.056,66.672,61.056,66.672,61.2,66.816,61.2,66.816,61.344,67.104,61.344,67.104,61.488,67.248,61.488,67.248,61.632,67.536,61.632,67.536,61.776,67.68,61.776,67.68,61.92,67.968,61.92,67.968,62.064,68.112,62.064,68.112,62.208,68.4,62.208,68.4,62.352,68.544,62.352,68.544,62.496,68.832,62.496,68.832,62.64,68.976,62.64,68.976,62.784,69.264,62.784,69.264,62.928,69.408,62.928,69.408,63.072,69.696,63.072,69.696,63.216,69.84,63.216,69.84,63.36,70.128,63.36,70.128,63.504,70.272,63.504,70.272,63.648,70.56,63.648,70.56,63.792,70.704,63.792,70.704,63.936,70.992,63.936,70.992,64.08,71.136,64.08,71.136,64.224,71.424,64.224,71.424,64.368,71.568,64.368,71.568,64.512,71.856,64.512,71.856,64.656,72,64.656,72,64.8,72.288,64.8,72.288,64.944,72.432,64.944,72.432,65.088,72.72,65.088,72.72,65.232,72.864,65.232,72.864,65.376,73.152,65.376,73.152,65.52,73.296,65.52,73.296,65.664,73.584,65.664,73.584,65.808,73.728,65.808,73.728,65.952,75.168,65.952,75.168,65.232,75.024,65.232,75.024,65.088,74.88,65.088,74.88,64.944,74.736,64.944,74.736,64.656,74.592,64.656,74.592,64.368,74.448,64.368,74.448,64.08,74.304,64.08,74.304,63.36,74.16,63.36,74.16,63.072,74.304,63.072,74.304,62.352,74.448,62.352,74.448,61.92,74.592,61.92,74.592,61.632,74.736,61.632,74.736,61.488,74.88,61.488,74.88,61.2,75.024,61.2,75.024,61.056,75.168,61.056,75.168,60.912,75.312,60.912,75.312,60.768,75.456,60.768,75.456,60.624,75.6,60.624,75.6,60.48,75.744,60.48,75.744,60.336,76.032,60.336,76.032,58.896,75.888,58.896,75.888,58.752,75.744,58.752,75.744,58.608,75.6,58.608,75.6,58.464,75.312,58.464,75.312,58.32,75.168,58.32,75.168,58.032,75.024,58.032,75.024,57.888,74.88,57.888,74.88,57.744,74.736,57.744,74.736,57.456,74.592,57.456,74.592,57.168,74.448,57.168,74.448,56.88,74.304,56.88,74.304,56.16,74.16,56.16,74.16,55.872,74.304,55.872,74.304,55.152,74.448,55.152,74.448,54.72,74.592,54.72,74.592,54.432,74.736,54.432,74.736,54.288,74.88,54.288,74.88,54,75.024,54,75.024,53.856,75.168,53.856,75.168,53.712,75.312,53.712,75.312,53.568,75.456,53.568,75.456,53.424,75.6,53.424,75.6,53.28,75.744,53.28,75.744,53.136,76.032,53.136,76.032,51.696,75.888,51.696,75.888,51.552,75.744,51.552,75.744,51.408,75.6,51.408,75.6,51.264,75.312,51.264,75.312,51.12,75.168,51.12,75.168,50.832,75.024,50.832,75.024,50.688,74.88,50.688,74.88,50.544,74.736,50.544,74.736,50.256,74.592,50.256,74.592,49.968,74.448,49.968,74.448,49.68,74.304,49.68,74.304,48.96,74.16,48.96,74.16,48.672,74.304,48.672,74.304,47.952,74.448,47.952,74.448,47.52,74.592,47.52,74.592,47.232,74.736,47.232,74.736,47.088,74.88,47.088,74.88,46.8,75.024,46.8,75.024,46.656,75.168,46.656,75.168,46.512,75.312,46.512,75.312,46.368,75.456,46.368,75.456,46.224,75.6,46.224,75.6,46.08,75.744,46.08,75.744,45.936,76.032,45.936,76.032,44.496,75.888,44.496,75.888,44.352,75.744,44.352,75.744,44.208,75.6,44.208,75.6,44.064,75.312,44.064,75.312,43.92,75.168,43.92,75.168,43.632,75.024,43.632,75.024,43.488,74.88,43.488,74.88,43.344,74.736,43.344,74.736,43.056,74.592,43.056,74.592,42.768,74.448,42.768,74.448,42.48,74.304,42.48,74.304,41.76,74.16,41.76,74.16,41.472,74.304,41.472,74.304,41.184"  stroke="none" stroke-width="0"/>
    <polygon fill="black" points="0,52.56,0,54.432,2.736,54.432,2.736,54.288,2.88,54.288,2.88,54,3.024,54,3.024,53.856,3.168,53.856,3.168,53.712,3.312,53.712,3.312,53.568,3.456,53.568,3.456,53.424,3.6,53.424,3.6,53.28,3.744,53.28,3.744,53.136,4.032,53.136,4.032,52.992,4.32,52.992,4.32,52.848,4.608,52.848,4.608,52.704,5.04,52.704,5.04,52.56"  stroke="none" stroke-width="0"/>
    <polygon fill="black" points="6.192,52.56,6.192,52.704,6.768,52.704,6.768,52.848,7.056,52.848,7.056,52.992,7.2,52.992,7.2,53.136,7.488,53.136,7.488,53.28,7.632,53.28,7.632,53.424,7.776,53.424,7.776,53.568,7.92,53.568,7.92,53.712,8.064,53.712,8.064,53.856,8.208,53.856,8.208,54,8.352,54,8.352,54.144,8.496,54.144,8.496,54.432,8.64,54.432,8.64,54.576,8.784,54.576,8.784,54.864,8.928,54.864,8.928,55.44,9.072,55.44,9.072,56.592,8.928,56.592,8.928,57.024,8.784,57.024,8.784,57.312,8.64,57.312,8.64,57.6,8.496,57.6,8.496,57.744,8.352,57.744,8.352,58.032,8.208,58.032,8.208,58.176,8.064,58.176,8.064,58.32,7.92,58.32,7.92,58.464,7.776,58.464,7.776,58.608,7.632,58.608,7.632,58.752,7.344,58.752,7.344,58.896,7.2,58.896,7.2,59.04,6.912,59.04,6.912,59.184,6.48,59.184,6.48,59.328,5.76,59.328,5.76,59.472,18.288,59.472,18.288,59.328,17.568,59.328,17.568,59.184,17.136,59.184,17.136,59.04,16.848,59.04,16.848,58.896,16.704,58.896,16.704,58.752,16.416,58.752,16.416,58.608,16.272,58.608,16.272,58.464,16.128,58.464,16.128,58.32,15.984,58.32,15.984,58.176,15.84,58.176,15.84,58.032,15.696,58.032,15.696,57.744,15.552,57.744,15.552,57.6,15.408,57.6,15.408,57.312,15.264,57.312,15.264,57.024,15.12,57.024,15.12,56.592,14.976,56.592,14.976,55.44,15.12,55.44,15.12,54.864,15.264,54.864,15.264,54.576,15.408,54.576,15.408,54.432,15.552,54.432,15.552,54.144,15.696,54.144,15.696,54,15.84,54,15.84,53.856,15.984,53.856,15.984,53.712,16.128,53.712,16.128,53.568,16.272,53.568,16.272,53.424,16.416,53.424,16.416,53.28,16.56,53.28,16.56,53.136,16.848,53.136,16.848,52.992,16.992,52.992,16.992,52.848,17.28,52.848,17.28,52.704,17.856,52.704,17.856,52.56"  stroke="none" stroke-width="0"/>
    <polygon fill="black" points="19.008,52.56,19.008,52.704,19.44,52.704,19.44,52.848,19.728,52.848,19.728,52.992,20.016,52.992,20.016,53.136,20.304,53.136,20.304,53.28,20.448,53.28,20.448,53.424,20.592,53.424,20.592,53.568,20.736,53.568,20.736,53.712,20.88,53.712,20.88,53.856,21.024,53.856,21.024,54,21.168,54,21.168,54.288,21.312,54.288,21.312,54.432,21.456,54.432,21.456,54.72,21.6,54.72,21.6,55.152,21.744,55.152,21.744,55.872,21.888,55.872,21.888,56.16,21.744,56.16,21.744,56.88,21.6,56.88,21.6,57.168,21.456,57.168,21.456,57.456,21.312,57.456,21.312,57.744,21.168,57.744,21.168,57.888,21.024,57.888,21.024,58.032,20.88,58.032,20.88,58.32,20.736,58.32,20.736,58.464,20.448,58.464,20.448,58.608,20.304,58.608,20.304,58.752,20.16,58.752,20.16,58.896,19.872,58.896,19.872,59.04,19.584,59.04,19.584,59.184,19.296,59.184,19.296,59.328,18.432,59.328,18.432,59.472,45.648,59.472,45.648,59.328,45.936,59.328,45.936,59.184,46.224,59.184,46.224,59.04,46.512,59.04,46.512,58.896,46.8,58.896,46.8,58.752,47.088,58.752,47.088,58.608,47.376,58.608,47.376,58.464,47.664,58.464,47.664,58.32,47.952,58.32,47.952,58.176,48.24,58.176,48.24,58.032,48.528,58.032,48.528,57.888,48.816,57.888,48.816,57.744,49.104,57.744,49.104,57.6,49.392,57.6,49.392,57.456,49.68,57.456,49.68,57.312,49.968,57.312,49.968,57.168,50.256,57.168,50.256,57.024,50.544,57.024,50.544,56.88,50.832,56.88,50.832,56.736,51.12,56.736,51.12,56.592,51.408,56.592,51.408,56.448,51.696,56.448,51.696,56.304,51.984,56.304,51.984,56.16,52.272,56.16,52.272,56.016,52.56,56.016,52.56,52.56"  stroke="none" stroke-width="0"/>
    <polygon fill="black" points="0,57.6,0,59.472,5.616,59.472,5.616,59.328,4.752,59.328,4.752,59.184,4.464,59.184,4.464,59.04,4.176,59.04,4.176,58.896,3.888,58.896,3.888,58.752,3.744,58.752,3.744,58.608,3.6,58.608,3.6,58.464,3.312,58.464,3.312,58.32,3.168,58.32,3.168,58.032,3.024,58.032,3.024,57.888,2.88,57.888,2.88,57.744,2.736,57.744,2.736,57.6"  stroke="none" stroke-width="0"/>
    <polygon fill="black" points="0,59.472,0,59.616,45.36,59.616,45.36,59.472"  stroke="none" stroke-width="0"/>
    <polygon fill="black" points="0,59.472,0,59.616,45.36,59.616,45.36,59.472"  stroke="none" stroke-width="0"/>
    <polygon fill="black" points="0,59.472,0,59.616,45.36,59.616,45.36,59.472"  stroke="none" stroke-width="0"/>
    <polygon fill="black" points="0,59.616,0,88.272,9.36,88.272,9.36,88.416,34.848,88.416,34.848,88.56,35.424,88.56,35.424,88.704,35.712,88.704,35.712,88.848,36,88.848,36,88.992,36.288,88.992,36.288,89.136,36.432,89.136,36.432,89.28,36.576,89.28,36.576,89.424,38.16,89.424,38.16,88.416,40.032,88.416,40.032,66.672,38.304,66.672,38.304,66.528,38.16,66.528,38.16,59.76,45.072,59.76,45.072,59.616"  stroke="none" stroke-width="0"/>
    <polygon fill="black" points="0,88.272,0,104.832,2.448,104.832,2.448,104.688,2.592,104.688,2.592,104.4,2.736,104.4,2.736,104.256,2.88,104.256,2.88,104.112,3.024,104.112,3.024,103.824,3.168,103.824,3.168,103.68,3.456,103.68,3.456,103.536,3.6,103.536,3.6,102.096,3.456,102.096,3.456,101.952,3.312,101.952,3.312,101.808,3.168,101.808,3.168,101.664,3.024,101.664,3.024,101.52,2.88,101.52,2.88,101.376,2.736,101.376,2.736,101.232,2.592,101.232,2.592,100.944,2.448,100.944,2.448,100.656,2.304,100.656,2.304,100.368,2.16,100.368,2.16,99.936,2.016,99.936,2.016,98.352,2.16,98.352,2.16,97.92,2.304,97.92,2.304,97.632,2.448,97.632,2.448,97.488,2.592,97.488,2.592,97.2,2.736,97.2,2.736,97.056,2.88,97.056,2.88,95.616,2.016,95.616,2.016,88.272"  stroke="none" stroke-width="0"/>
    <polygon fill="black" points="9.36,88.416,9.36,90.432,31.392,90.432,31.392,90.288,31.536,90.288,31.536,90,31.68,90,31.68,89.856,31.824,89.856,31.824,89.712,31.968,89.712,31.968,89.568,32.112,89.568,32.112,89.424,32.256,89.424,32.256,89.28,32.4,89.28,32.4,89.136,32.688,89.136,32.688,88.992,32.832,88.992,32.832,88.848,33.12,88.848,33.12,88.704,33.408,88.704,33.408,88.56,33.984,88.56,33.984,88.416"  stroke="none" stroke-width="0"/>
    <g  id="connector0pad">
     <circle fill="black" cx="25.6003"  cy="4.4874" stroke="none" r="2.7" stroke-width="0"/>
    </g>
   </g>
  </g>
 </g>
 <g partID="20850">
  <g transform="translate(58.64,92.56)">
   <g transform="matrix(0,1,-1,0,0,0)">
    <g  id="copper0">
     <rect width="4.176" x="2.952" y="2.952" fill="none"  height="4.176" stroke="black" id="square" stroke-width="1.44"/>
     <circle fill="none" cx="5.04"  cy="5.04" stroke="black" id="connector0pin" r="2.088" stroke-width="1.44"/>
     <circle fill="none" cx="5.04"  cy="12.24" stroke="black" id="connector1pin" r="2.088" stroke-width="1.44"/>
    </g>
   </g>
  </g>
 </g>
 <g partID="20910">
  <g transform="translate(129.704,121.9)">
   <g transform="matrix(0,-1,1,0,0,0)">
    <g  id="copper0">
     <g  id="copper1">
      <rect width="3.96" x="0.72" y="1.116" fill="none"  height="3.96" stroke="black" stroke-width="1.44"/>
      <circle fill="none" cx="2.7"  cy="3.096" stroke="black" r="1.98" id="connector0pin" stroke-width="1.44"/>
      <circle fill="none" cx="31.5"  cy="3.096" stroke="black" r="1.98" id="connector1pin" stroke-width="1.44"/>
     </g>
    </g>
   </g>
  </g>
 </g>
 <g partID="19270">
  <g transform="translate(14.7538,64.0206)">
   <g transform="matrix(0,-1,1,0,0,0)">
    <g  id="copper0">
     <circle fill="none" cx="20.8462"  cy="15.6024" stroke="black" id="connector0pad" r="1.98" stroke-width="1.44"/>
     <circle fill="none" cx="2.42064"  cy="15.6024" stroke="black" id="connector1pad" r="1.98" stroke-width="1.44"/>
     <circle fill="none" cx="20.8462"  cy="2.84616" stroke="black" id="connector2pad" r="1.98" stroke-width="1.44"/>
     <circle fill="none" cx="2.42064"  cy="2.84616" stroke="black" id="connector3pad" r="1.98" stroke-width="1.44"/>
    </g>
   </g>
  </g>
 </g>
 <g partID="19410">
  <g transform="translate(14.7538,35.2206)">
   <g transform="matrix(0,-1,1,0,0,0)">
    <g  id="copper0">
     <circle fill="none" cx="20.8462"  cy="15.6024" stroke="black" id="connector0pad" r="1.98" stroke-width="1.44"/>
     <circle fill="none" cx="2.42064"  cy="15.6024" stroke="black" id="connector1pad" r="1.98" stroke-width="1.44"/>
     <circle fill="none" cx="20.8462"  cy="2.84616" stroke="black" id="connector2pad" r="1.98" stroke-width="1.44"/>
     <circle fill="none" cx="2.42064"  cy="2.84616" stroke="black" id="connector3pad" r="1.98" stroke-width="1.44"/>
    </g>
   </g>
  </g>
 </g>
 <g partID="19430">
  <g transform="translate(64.904,64.3)">
   <g transform="matrix(0,-1,1,0,0,0)">
    <g  id="copper0">
     <g  id="copper1">
      <rect width="3.96" x="0.72" y="1.116" fill="none"  height="3.96" stroke="black" stroke-width="1.44"/>
      <circle fill="none" cx="2.7"  cy="3.096" stroke="black" r="1.98" id="connector0pin" stroke-width="1.44"/>
      <circle fill="none" cx="31.5"  cy="3.096" stroke="black" r="1.98" id="connector1pin" stroke-width="1.44"/>
     </g>
    </g>
   </g>
  </g>
 </g>
 <g partID="19500">
  <g transform="translate(50.504,71.5)">
   <g transform="matrix(0,-1,1,0,0,0)">
    <g  id="copper0">
     <g  id="copper1">
      <rect width="3.96" x="0.72" y="1.116" fill="none"  height="3.96" stroke="black" stroke-width="1.44"/>
      <circle fill="none" cx="2.7"  cy="3.096" stroke="black" r="1.98" id="connector0pin" stroke-width="1.44"/>
      <circle fill="none" cx="31.5"  cy="3.096" stroke="black" r="1.98" id="connector1pin" stroke-width="1.44"/>
     </g>
    </g>
   </g>
  </g>
 </g>
 <g partID="19740">
  <g transform="translate(85.28,21.28)">
   <g  id="copper0">
    <rect width="3.96" x="2.34" y="2.34" fill="none"  height="3.96" stroke="black" id="square" stroke-width="1.44"/>
    <circle fill="none" cx="4.32"  cy="4.32" stroke="black" id="connector0pin" r="1.98" stroke-width="1.44"/>
    <circle fill="none" cx="25.92"  cy="4.32" stroke="black" id="connector27pin" r="1.98" stroke-width="1.44"/>
    <circle fill="none" cx="4.32"  cy="11.52" stroke="black" id="connector1pin" r="1.98" stroke-width="1.44"/>
    <circle fill="none" cx="25.92"  cy="11.52" stroke="black" id="connector26pin" r="1.98" stroke-width="1.44"/>
    <circle fill="none" cx="4.32"  cy="18.72" stroke="black" id="connector2pin" r="1.98" stroke-width="1.44"/>
    <circle fill="none" cx="25.92"  cy="18.72" stroke="black" id="connector25pin" r="1.98" stroke-width="1.44"/>
    <circle fill="none" cx="4.32"  cy="25.92" stroke="black" id="connector3pin" r="1.98" stroke-width="1.44"/>
    <circle fill="none" cx="25.92"  cy="25.92" stroke="black" id="connector24pin" r="1.98" stroke-width="1.44"/>
    <circle fill="none" cx="4.32"  cy="33.12" stroke="black" id="connector4pin" r="1.98" stroke-width="1.44"/>
    <circle fill="none" cx="25.92"  cy="33.12" stroke="black" id="connector23pin" r="1.98" stroke-width="1.44"/>
    <circle fill="none" cx="4.32"  cy="40.32" stroke="black" id="connector5pin" r="1.98" stroke-width="1.44"/>
    <circle fill="none" cx="25.92"  cy="40.32" stroke="black" id="connector22pin" r="1.98" stroke-width="1.44"/>
    <circle fill="none" cx="4.32"  cy="47.52" stroke="black" id="connector6pin" r="1.98" stroke-width="1.44"/>
    <circle fill="none" cx="25.92"  cy="47.52" stroke="black" id="connector21pin" r="1.98" stroke-width="1.44"/>
    <circle fill="none" cx="4.32"  cy="54.72" stroke="black" id="connector7pin" r="1.98" stroke-width="1.44"/>
    <circle fill="none" cx="25.92"  cy="54.72" stroke="black" id="connector20pin" r="1.98" stroke-width="1.44"/>
    <circle fill="none" cx="4.32"  cy="61.92" stroke="black" id="connector8pin" r="1.98" stroke-width="1.44"/>
    <circle fill="none" cx="25.92"  cy="61.92" stroke="black" id="connector19pin" r="1.98" stroke-width="1.44"/>
    <circle fill="none" cx="4.32"  cy="69.12" stroke="black" id="connector9pin" r="1.98" stroke-width="1.44"/>
    <circle fill="none" cx="25.92"  cy="69.12" stroke="black" id="connector18pin" r="1.98" stroke-width="1.44"/>
    <circle fill="none" cx="4.32"  cy="76.32" stroke="black" id="connector10pin" r="1.98" stroke-width="1.44"/>
    <circle fill="none" cx="25.92"  cy="76.32" stroke="black" id="connector17pin" r="1.98" stroke-width="1.44"/>
    <circle fill="none" cx="4.32"  cy="83.52" stroke="black" id="connector11pin" r="1.98" stroke-width="1.44"/>
    <circle fill="none" cx="25.92"  cy="83.52" stroke="black" id="connector16pin" r="1.98" stroke-width="1.44"/>
    <circle fill="none" cx="4.32"  cy="90.72" stroke="black" id="connector12pin" r="1.98" stroke-width="1.44"/>
    <circle fill="none" cx="25.92"  cy="90.72" stroke="black" id="connector15pin" r="1.98" stroke-width="1.44"/>
    <circle fill="none" cx="4.32"  cy="97.92" stroke="black" id="connector13pin" r="1.98" stroke-width="1.44"/>
    <circle fill="none" cx="25.92"  cy="97.92" stroke="black" id="connector14pin" r="1.98" stroke-width="1.44"/>
   </g>
  </g>
 </g>
 <g partID="19760">
  <g transform="translate(141.588,86.7464)">
   <g transform="matrix(-1,0,0,-1,0,0)">
    <g  id="copper0">
     <g  id="copper1">
      <circle fill="none" cx="8.7876"  cy="10.6336" stroke="black" id="connector1pad" r="1.7008" stroke-width="1.13384"/>
      <rect width="3.4016" x="7.0868" y="8.9328" fill="none"  height="3.4016" stroke="black" stroke-width="1.13384"/>
      <circle fill="none" cx="8.7876"  cy="3.5464" stroke="black" id="connector0pad" r="1.7008" stroke-width="1.13384"/>
     </g>
    </g>
   </g>
  </g>
 </g>
 <g partID="19840">
  <g transform="translate(32,88.96)">
   <g transform="matrix(0,1,-1,0,0,0)">
    <g  id="copper0">
     <rect width="4.464" x="6.408" y="12.168" fill="none"  height="4.464" stroke="black" stroke-width="1.44"/>
     <circle fill="none" cx="8.64"  cy="14.4" stroke="black" id="connector0pad" r="2.232" stroke-width="1.44"/>
     <circle fill="none" cx="15.84"  cy="14.4" stroke="black" id="connector1pad" r="2.232" stroke-width="1.44"/>
     <circle fill="none" cx="23.04"  cy="14.4" stroke="black" id="connector2pad" r="2.232" stroke-width="1.44"/>
    </g>
   </g>
  </g>
 </g>
 <g partID="53970">
  <line stroke="black" stroke-linecap="round" y1="40" x1="87.54" y2="40" stroke-width="1.728" x2="55.66"/>
 </g>
 <g partID="54030">
  <line stroke="black" stroke-linecap="round" y1="67.8787" x1="55.4425" y2="62.5213" stroke-width="1.728" x2="66.1575"/>
 </g>
 <g partID="54110">
  <line stroke="black" stroke-linecap="round" y1="74.8573" x1="87.886" y2="62.7427" stroke-width="1.728" x2="69.714"/>
 </g>
 <g partID="54250">
  <line stroke="black" stroke-linecap="round" y1="89.2573" x1="109.486" y2="77.1427" stroke-width="1.728" x2="91.314"/>
 </g>
 <g partID="54430">
  <line stroke="black" stroke-linecap="round" y1="117.552" x1="131.564" y2="92.048" stroke-width="1.728" x2="112.436"/>
 </g>
 <g partID="54590">
  <line stroke="black" stroke-linecap="round" y1="95.432" x1="53.6" y2="70.86" stroke-width="1.728" x2="53.6"/>
 </g>
 <g partID="53790">
  <line stroke="black" stroke-linecap="round" y1="42.8957" x1="32.3973" y2="40.2788" stroke-width="1.728" x2="51.5589"/>
 </g>
 <g partID="54770">
  <line stroke="black" stroke-linecap="round" y1="34.86" x1="17.6" y2="41.1145" stroke-width="1.728" x2="17.6"/>
 </g>
 <g partID="53670">
  <line stroke="black" stroke-linecap="round" y1="32.8" x1="32.4162" y2="32.8" stroke-width="1.728" x2="65.94"/>
 </g>
 <g partID="53610">
  <line stroke="black" stroke-linecap="round" y1="32.8" x1="87.54" y2="32.8" stroke-width="1.728" x2="70.06"/>
 </g>
 <g partID="55790">
  <line stroke="black" stroke-linecap="round" y1="61.6" x1="10.4" y2="61.6" stroke-width="1.728" x2="15.54"/>
 </g>
 <g partID="55860">
  <line stroke="black" stroke-linecap="round" y1="4" x1="96.8" y2="4" stroke-width="1.728" x2="10.4"/>
 </g>
 <g partID="55890">
  <line stroke="black" stroke-linecap="round" y1="76" x1="96.8" y2="4" stroke-width="1.728" x2="96.8"/>
 </g>
 <g partID="55800">
  <line stroke="black" stroke-linecap="round" y1="82.2787" x1="109.357" y2="76" stroke-width="1.728" x2="96.8"/>
 </g>
 <g partID="55830">
  <line stroke="black" stroke-linecap="round" y1="4" x1="10.4" y2="61.6" stroke-width="1.728" x2="10.4"/>
 </g>
 <g partID="55530">
  <line stroke="black" stroke-linecap="round" y1="112" x1="10.4" y2="61.6" stroke-width="1.728" x2="10.4"/>
 </g>
 <g partID="55560">
  <line stroke="black" stroke-linecap="round" y1="61.6" x1="10.4" y2="61.6" stroke-width="1.728" x2="15.54"/>
 </g>
 <g partID="54890">
  <line stroke="black" stroke-linecap="round" y1="112" x1="15.288" y2="112" stroke-width="1.728" x2="10.4"/>
 </g>
 <g partID="54710">
  <line stroke="black" stroke-linecap="round" y1="104.8" x1="19.912" y2="104.8" stroke-width="1.728" x2="53.6"/>
 </g>
 <g partID="55590">
  <line stroke="black" stroke-linecap="round" y1="104.8" x1="53.6" y2="99.768" stroke-width="1.728" x2="53.6"/>
 </g>
 <g partID="53550">
  <line stroke="black" stroke-linecap="round" y1="97.6" x1="19.912" y2="97.6" stroke-width="1.728" x2="44.232"/>
 </g>
 <g partID="53410">
  <line stroke="black" stroke-linecap="round" y1="76.0108" x1="113.26" y2="76.1027" stroke-width="1.728" x2="130.866"/>
 </g>
</svg>
