<?xml version='1.0' encoding='UTF-8' standalone='no'?>
<!-- Created with Fritzing (http://www.fritzing.org/) -->
<svg xmlns="http://www.w3.org/2000/svg" width="2.0185in" x="0in" version="1.2" y="0in"  height="1.77222in" viewBox="0 0 145.332 127.6" baseProfile="tiny" xmlns:svg="http://www.w3.org/2000/svg">
 <g transform="matrix(-1, 0, 0, 1, 145.332, 0)">
  <g partID="19232">
   <g id="silkscreen">
    <rect width="144.756" x="0.288" y="0.288" fill="none" height="127.024" stroke="black" stroke-width="0.576"/>
   </g>
  </g>
  <g partID="19230">
   <g id="board">
    <rect width="144.756" x="0.288" y="0.288" fill="none" height="127.024" stroke="black" fill-opacity="0.5" id="boardoutline" stroke-width="0.5"/>
   </g>
  </g>
  <g partID="20912">
   <g transform="translate(129.704,121.9)">
    <g transform="matrix(0,-1,1,0,0,0)">
     <g id="silkscreen">
      <line stroke="black" y1="3.096" x1="5.4" y2="3.096" stroke-width="0.72" x2="10.584"/>
      <line stroke="black" y1="3.096" x1="24.984" y2="3.096" stroke-width="0.72" x2="28.8"/>
      <line stroke="black" y1="0.72" x1="10.584" y2="0.72" stroke-width="0.72" x2="24.984"/>
      <line stroke="black" y1="0.72" x1="24.984" y2="5.472" stroke-width="0.72" x2="24.984"/>
      <line stroke="black" y1="5.472" x1="24.984" y2="5.472" stroke-width="0.72" x2="10.584"/>
      <line stroke="black" y1="5.472" x1="10.584" y2="0.72" stroke-width="0.72" x2="10.584"/>
     </g>
    </g>
   </g>
  </g>
  <g partID="19272">
   <g transform="translate(14.7538,64.0206)">
    <g transform="matrix(0,-1,1,0,0,0)">
     <g id="silkscreen">
      <line stroke="black" y1="6.38928" stroke-width="0.72" x1="20.137" y2="12.0586" x2="20.137"/>
      <line stroke="black" y1="0.72" stroke-width="0.72" x1="5.96376" y2="0.72" x2="18.0115"/>
      <line stroke="black" y1="17.7278" stroke-width="0.72" x1="5.96376" y2="17.7278" x2="18.0115"/>
      <line stroke="black" y1="6.38928" stroke-width="0.72" x1="3.12912" y2="12.0586" x2="3.12912"/>
      <line stroke="black" y1="7.80696" stroke-width="0.72" x1="11.633" y2="10.6416" x2="11.633"/>
      <line stroke="black" y1="9.22392" stroke-width="0.72" x1="13.0507" y2="9.22392" x2="10.2161"/>
     </g>
    </g>
   </g>
  </g>
  <g partID="19232">
   <g id="silkscreen">
    <rect width="144.756" x="0.288" y="0.288" fill="none" height="127.024" stroke="black" stroke-width="0.576"/>
   </g>
  </g>
  <g partID="19412">
   <g transform="translate(14.7538,35.2206)">
    <g transform="matrix(0,-1,1,0,0,0)">
     <g id="silkscreen">
      <line stroke="black" y1="6.38928" stroke-width="0.72" x1="20.137" y2="12.0586" x2="20.137"/>
      <line stroke="black" y1="0.72" stroke-width="0.72" x1="5.96376" y2="0.72" x2="18.0115"/>
      <line stroke="black" y1="17.7278" stroke-width="0.72" x1="5.96376" y2="17.7278" x2="18.0115"/>
      <line stroke="black" y1="6.38928" stroke-width="0.72" x1="3.12912" y2="12.0586" x2="3.12912"/>
      <line stroke="black" y1="7.80696" stroke-width="0.72" x1="11.633" y2="10.6416" x2="11.633"/>
      <line stroke="black" y1="9.22392" stroke-width="0.72" x1="13.0507" y2="9.22392" x2="10.2161"/>
     </g>
    </g>
   </g>
  </g>
  <g partID="19432">
   <g transform="translate(64.904,64.3)">
    <g transform="matrix(0,-1,1,0,0,0)">
     <g id="silkscreen">
      <line stroke="black" y1="3.096" x1="5.4" y2="3.096" stroke-width="0.72" x2="10.584"/>
      <line stroke="black" y1="3.096" x1="24.984" y2="3.096" stroke-width="0.72" x2="28.8"/>
      <line stroke="black" y1="0.72" x1="10.584" y2="0.72" stroke-width="0.72" x2="24.984"/>
      <line stroke="black" y1="0.72" x1="24.984" y2="5.472" stroke-width="0.72" x2="24.984"/>
      <line stroke="black" y1="5.472" x1="24.984" y2="5.472" stroke-width="0.72" x2="10.584"/>
      <line stroke="black" y1="5.472" x1="10.584" y2="0.72" stroke-width="0.72" x2="10.584"/>
     </g>
    </g>
   </g>
  </g>
  <g partID="19502">
   <g transform="translate(50.504,71.5)">
    <g transform="matrix(0,-1,1,0,0,0)">
     <g id="silkscreen">
      <line stroke="black" y1="3.096" x1="5.4" y2="3.096" stroke-width="0.72" x2="10.584"/>
      <line stroke="black" y1="3.096" x1="24.984" y2="3.096" stroke-width="0.72" x2="28.8"/>
      <line stroke="black" y1="0.72" x1="10.584" y2="0.72" stroke-width="0.72" x2="24.984"/>
      <line stroke="black" y1="0.72" x1="24.984" y2="5.472" stroke-width="0.72" x2="24.984"/>
      <line stroke="black" y1="5.472" x1="24.984" y2="5.472" stroke-width="0.72" x2="10.584"/>
      <line stroke="black" y1="5.472" x1="10.584" y2="0.72" stroke-width="0.72" x2="10.584"/>
     </g>
    </g>
   </g>
  </g>
  <g partID="19762">
   <g transform="translate(141.588,86.7464)">
    <g transform="matrix(-1,0,0,-1,0,0)">
     <g id="silkscreen">
      <path fill="none" stroke="black" stroke-linejoin="round" id="path2820" stroke-linecap="round" stroke-width="0.56696" d="M13.912,0.3048c3.748,2.8296,4.4912,8.1624,1.6608,11.9112c-2.8304,3.748,-8.1632,4.4912,-11.9112,1.6608S-0.8288,5.7128,2.0016,1.9656C2.4824,1.328,3.0504,0.7616,3.6904,0.2832"/>
      <path fill="none" stroke="black" id="path3707" stroke-linecap="round" stroke-width="0.56696" d="M13.8896,0.2872L3.6848,0.2872"/>
     </g>
    </g>
   </g>
  </g>
  <g partID="19842">
   <g transform="translate(32,88.96)">
    <g transform="matrix(0,1,-1,0,0,0)">
     <g id="silkscreen">
      <line stroke="black" y1="5.76" stroke-width="0.72" x1="1.44" y2="5.76" x2="30.24"/>
      <line stroke="black" y1="5.76" stroke-width="0.72" x1="30.24" y2="18.72" x2="30.24"/>
      <line stroke="black" y1="18.72" stroke-width="0.72" x1="30.24" y2="18.72" x2="1.44"/>
      <line stroke="black" y1="18.72" stroke-width="0.72" x1="1.44" y2="5.76" x2="1.44"/>
      <line stroke="black" y1="5.76" stroke-width="0.72" x1="1.44" y2="5.76" x2="30.24"/>
      <line stroke="black" y1="5.76" stroke-width="0.72" x1="30.24" y2="10.08" x2="30.24"/>
      <line stroke="black" y1="10.08" stroke-width="0.72" x1="30.24" y2="10.08" x2="1.44"/>
      <line stroke="black" y1="10.08" stroke-width="0.72" x1="1.44" y2="5.76" x2="1.44"/>
      <line stroke="black" y1="5.76" stroke-width="0.36" x1="10.8" y2="10.08" x2="10.8"/>
      <line stroke="black" y1="5.76" stroke-width="0.36" x1="20.88" y2="10.08" x2="20.88"/>
     </g>
    </g>
   </g>
  </g>
  <g partID="19742">
   <g transform="translate(85.28,21.28)">
    <g id="silkscreen">
     <line stroke="black" y1="0.72" stroke-width="0.72" x1="0.72" y2="101.52" x2="0.72"/>
     <line stroke="black" y1="101.52" stroke-width="0.72" x1="0.72" y2="101.52" x2="29.52"/>
     <line stroke="black" y1="101.52" stroke-width="0.72" x1="29.52" y2="0.72" x2="29.52"/>
     <line stroke="black" y1="0.72" stroke-width="0.72" x1="0.72" y2="0.72" x2="11.52"/>
     <line stroke="black" y1="0.72" stroke-width="0.72" x1="18.72" y2="0.72" x2="29.52"/>
    </g>
   </g>
  </g>
  <g partID="20852">
   <g transform="translate(58.64,92.56)">
    <g transform="matrix(0,1,-1,0,0,0)">
     <g id="silkscreen">
      <line stroke="black" y1="1.44" stroke-width="0.72" x1="1.44" y2="15.84" x2="1.44"/>
      <line stroke="black" y1="15.84" stroke-width="0.72" x1="1.44" y2="15.84" x2="8.64"/>
      <line stroke="black" y1="15.84" stroke-width="0.72" x1="8.64" y2="1.44" x2="8.64"/>
      <line stroke="black" y1="1.44" stroke-width="0.72" x1="8.64" y2="1.44" x2="1.44"/>
      <line stroke="black" y1="3.96" stroke-width="0.36" x1="1.44" y2="1.44" x2="3.96"/>
      <!-- 120 -->
     </g>
    </g>
   </g>
  </g>
  <g id="partLabel" partID="19270">
   <g transform="translate(34.8112,49.5633)">
    <g fill="#000000" font-family="'OCRA'" stroke="none" font-style="normal" fill-opacity="1" font-weight="normal" id="silkscreenLabel" font-size="5">
     <text x="0" y="3.75">S1</text>
    </g>
   </g>
  </g>
  <g id="partLabel" partID="19410">
   <g transform="translate(34.0111,20.7633)">
    <g fill="#000000" font-family="'OCRA'" stroke="none" font-style="normal" fill-opacity="1" font-weight="normal" id="silkscreenLabel" font-size="5">
     <text x="0" y="3.75">S2</text>
    </g>
   </g>
  </g>
  <g id="partLabel" partID="19500">
   <g transform="translate(57.5,43.704)">
    <g fill="#000000" font-family="'OCRA'" stroke="none" font-style="normal" fill-opacity="1" font-weight="normal" id="silkscreenLabel" font-size="5">
     <text x="0" y="3.75">R2</text>
    </g>
   </g>
  </g>
  <g id="partLabel" partID="19430">
   <g transform="translate(72.3,34.504)">
    <g fill="#000000" font-family="'OCRA'" stroke="none" font-style="normal" fill-opacity="1" font-weight="normal" id="silkscreenLabel" font-size="5">
     <text x="0" y="3.75">R1</text>
    </g>
   </g>
  </g>
  <g id="partLabel" partID="19840">
   <g transform="translate(19.76,122.72)">
    <g fill="#000000" font-family="'OCRA'" stroke="none" font-style="normal" fill-opacity="1" font-weight="normal" id="silkscreenLabel" font-size="5">
     <text x="0" y="3.75">U1</text>
    </g>
   </g>
  </g>
  <g id="partLabel" partID="19760">
   <g transform="translate(125.988,62.3712)">
    <g fill="#000000" font-family="'OCRA'" stroke="none" font-style="normal" fill-opacity="1" font-weight="normal" id="silkscreenLabel" font-size="5">
     <text x="0" y="3.75">LED1</text>
    </g>
   </g>
  </g>
  <g id="partLabel" partID="20910">
   <g transform="translate(136.3,91.704)">
    <g fill="#000000" font-family="'OCRA'" stroke="none" font-style="normal" fill-opacity="1" font-weight="normal" id="silkscreenLabel" font-size="5">
     <text x="0" y="3.75">R3</text>
    </g>
   </g>
  </g>
  <g id="partLabel" partID="19740">
   <g transform="translate(84.32,14.88)">
    <g fill="#000000" font-family="'OCRA'" stroke="none" font-style="normal" fill-opacity="1" font-weight="normal" id="silkscreenLabel" font-size="5">
     <text x="0" y="3.75">PIC16F886</text>
    </g>
   </g>
  </g>
  <g id="partLabel" partID="20850">
   <g transform="translate(55.04,83.36)">
    <g fill="#000000" font-family="'OCRA'" stroke="none" font-style="normal" fill-opacity="1" font-weight="normal" id="silkscreenLabel" font-size="5">
     <text x="0" y="3.75">VCC1</text>
    </g>
   </g>
  </g>
  <g partID="20911">
   <g transform="translate(129.704,121.9)">
    <g transform="matrix(0,-1,1,0,0,0)">
     <g id="copper1">
      <rect width="3.96" x="0.72" y="1.116" fill="white" height="3.96" stroke="white" stroke-width="2.16"/>
      <circle fill="white" cx="2.7" cy="3.096" stroke="white" r="1.98" id="connector0pin" stroke-width="2.16"/>
      <circle fill="white" cx="31.5" cy="3.096" stroke="white" r="1.98" id="connector1pin" stroke-width="2.16"/>
     </g>
    </g>
   </g>
  </g>
  <g partID="19271">
   <g transform="translate(14.7538,64.0206)">
    <g transform="matrix(0,-1,1,0,0,0)">
     <g id="copper1">
      <g id="copper0">
       <circle fill="white" cx="20.8462" cy="15.6024" stroke="white" id="connector0pad" r="1.98" stroke-width="2.16"/>
       <circle fill="white" cx="2.42064" cy="15.6024" stroke="white" id="connector1pad" r="1.98" stroke-width="2.16"/>
       <circle fill="white" cx="20.8462" cy="2.84616" stroke="white" id="connector2pad" r="1.98" stroke-width="2.16"/>
       <circle fill="white" cx="2.42064" cy="2.84616" stroke="white" id="connector3pad" r="1.98" stroke-width="2.16"/>
      </g>
     </g>
    </g>
   </g>
  </g>
  <g partID="19411">
   <g transform="translate(14.7538,35.2206)">
    <g transform="matrix(0,-1,1,0,0,0)">
     <g id="copper1">
      <g id="copper0">
       <circle fill="white" cx="20.8462" cy="15.6024" stroke="white" id="connector0pad" r="1.98" stroke-width="2.16"/>
       <circle fill="white" cx="2.42064" cy="15.6024" stroke="white" id="connector1pad" r="1.98" stroke-width="2.16"/>
       <circle fill="white" cx="20.8462" cy="2.84616" stroke="white" id="connector2pad" r="1.98" stroke-width="2.16"/>
       <circle fill="white" cx="2.42064" cy="2.84616" stroke="white" id="connector3pad" r="1.98" stroke-width="2.16"/>
      </g>
     </g>
    </g>
   </g>
  </g>
  <g partID="19431">
   <g transform="translate(64.904,64.3)">
    <g transform="matrix(0,-1,1,0,0,0)">
     <g id="copper1">
      <rect width="3.96" x="0.72" y="1.116" fill="white" height="3.96" stroke="white" stroke-width="2.16"/>
      <circle fill="white" cx="2.7" cy="3.096" stroke="white" r="1.98" id="connector0pin" stroke-width="2.16"/>
      <circle fill="white" cx="31.5" cy="3.096" stroke="white" r="1.98" id="connector1pin" stroke-width="2.16"/>
     </g>
    </g>
   </g>
  </g>
  <g partID="19501">
   <g transform="translate(50.504,71.5)">
    <g transform="matrix(0,-1,1,0,0,0)">
     <g id="copper1">
      <rect width="3.96" x="0.72" y="1.116" fill="white" height="3.96" stroke="white" stroke-width="2.16"/>
      <circle fill="white" cx="2.7" cy="3.096" stroke="white" r="1.98" id="connector0pin" stroke-width="2.16"/>
      <circle fill="white" cx="31.5" cy="3.096" stroke="white" r="1.98" id="connector1pin" stroke-width="2.16"/>
     </g>
    </g>
   </g>
  </g>
  <g partID="19761">
   <g transform="translate(141.588,86.7464)">
    <g transform="matrix(-1,0,0,-1,0,0)">
     <g id="copper1">
      <circle fill="white" cx="8.7876" cy="10.6336" stroke="white" id="connector1pad" r="1.7008" stroke-width="1.85384"/>
      <rect width="3.4016" x="7.0868" y="8.9328" fill="white" height="3.4016" stroke="white" stroke-width="1.85384"/>
      <circle fill="white" cx="8.7876" cy="3.5464" stroke="white" id="connector0pad" r="1.7008" stroke-width="1.85384"/>
     </g>
    </g>
   </g>
  </g>
  <g partID="19841">
   <g transform="translate(32,88.96)">
    <g transform="matrix(0,1,-1,0,0,0)">
     <g id="copper1">
      <g id="copper0">
       <rect width="4.464" x="6.408" y="12.168" fill="white" height="4.464" stroke="white" stroke-width="2.16"/>
       <circle fill="white" cx="8.64" cy="14.4" stroke="white" id="connector0pad" r="2.232" stroke-width="2.16"/>
       <circle fill="white" cx="15.84" cy="14.4" stroke="white" id="connector1pad" r="2.232" stroke-width="2.16"/>
       <circle fill="white" cx="23.04" cy="14.4" stroke="white" id="connector2pad" r="2.232" stroke-width="2.16"/>
      </g>
     </g>
    </g>
   </g>
  </g>
  <g partID="19741">
   <g transform="translate(85.28,21.28)">
    <g id="copper1">
     <g id="copper0">
      <rect width="3.96" x="2.34" y="2.34" fill="white" height="3.96" stroke="white" id="square" stroke-width="2.16"/>
      <circle fill="white" cx="4.32" cy="4.32" stroke="white" id="connector0pin" r="1.98" stroke-width="2.16"/>
      <circle fill="white" cx="25.92" cy="4.32" stroke="white" id="connector27pin" r="1.98" stroke-width="2.16"/>
      <circle fill="white" cx="4.32" cy="11.52" stroke="white" id="connector1pin" r="1.98" stroke-width="2.16"/>
      <circle fill="white" cx="25.92" cy="11.52" stroke="white" id="connector26pin" r="1.98" stroke-width="2.16"/>
      <circle fill="white" cx="4.32" cy="18.72" stroke="white" id="connector2pin" r="1.98" stroke-width="2.16"/>
      <circle fill="white" cx="25.92" cy="18.72" stroke="white" id="connector25pin" r="1.98" stroke-width="2.16"/>
      <circle fill="white" cx="4.32" cy="25.92" stroke="white" id="connector3pin" r="1.98" stroke-width="2.16"/>
      <circle fill="white" cx="25.92" cy="25.92" stroke="white" id="connector24pin" r="1.98" stroke-width="2.16"/>
      <circle fill="white" cx="4.32" cy="33.12" stroke="white" id="connector4pin" r="1.98" stroke-width="2.16"/>
      <circle fill="white" cx="25.92" cy="33.12" stroke="white" id="connector23pin" r="1.98" stroke-width="2.16"/>
      <circle fill="white" cx="4.32" cy="40.32" stroke="white" id="connector5pin" r="1.98" stroke-width="2.16"/>
      <circle fill="white" cx="25.92" cy="40.32" stroke="white" id="connector22pin" r="1.98" stroke-width="2.16"/>
      <circle fill="white" cx="4.32" cy="47.52" stroke="white" id="connector6pin" r="1.98" stroke-width="2.16"/>
      <circle fill="white" cx="25.92" cy="47.52" stroke="white" id="connector21pin" r="1.98" stroke-width="2.16"/>
      <circle fill="white" cx="4.32" cy="54.72" stroke="white" id="connector7pin" r="1.98" stroke-width="2.16"/>
      <circle fill="white" cx="25.92" cy="54.72" stroke="white" id="connector20pin" r="1.98" stroke-width="2.16"/>
      <circle fill="white" cx="4.32" cy="61.92" stroke="white" id="connector8pin" r="1.98" stroke-width="2.16"/>
      <circle fill="white" cx="25.92" cy="61.92" stroke="white" id="connector19pin" r="1.98" stroke-width="2.16"/>
      <circle fill="white" cx="4.32" cy="69.12" stroke="white" id="connector9pin" r="1.98" stroke-width="2.16"/>
      <circle fill="white" cx="25.92" cy="69.12" stroke="white" id="connector18pin" r="1.98" stroke-width="2.16"/>
      <circle fill="white" cx="4.32" cy="76.32" stroke="white" id="connector10pin" r="1.98" stroke-width="2.16"/>
      <circle fill="white" cx="25.92" cy="76.32" stroke="white" id="connector17pin" r="1.98" stroke-width="2.16"/>
      <circle fill="white" cx="4.32" cy="83.52" stroke="white" id="connector11pin" r="1.98" stroke-width="2.16"/>
      <circle fill="white" cx="25.92" cy="83.52" stroke="white" id="connector16pin" r="1.98" stroke-width="2.16"/>
      <circle fill="white" cx="4.32" cy="90.72" stroke="white" id="connector12pin" r="1.98" stroke-width="2.16"/>
      <circle fill="white" cx="25.92" cy="90.72" stroke="white" id="connector15pin" r="1.98" stroke-width="2.16"/>
      <circle fill="white" cx="4.32" cy="97.92" stroke="white" id="connector13pin" r="1.98" stroke-width="2.16"/>
      <circle fill="white" cx="25.92" cy="97.92" stroke="white" id="connector14pin" r="1.98" stroke-width="2.16"/>
     </g>
    </g>
   </g>
  </g>
  <g partID="20851">
   <g transform="translate(58.64,92.56)">
    <g transform="matrix(0,1,-1,0,0,0)">
     <g id="copper1">
      <g id="copper0">
       <rect width="4.176" x="2.952" y="2.952" fill="white" height="4.176" stroke="white" id="square" stroke-width="2.16"/>
       <circle fill="white" cx="5.04" cy="5.04" stroke="white" id="connector0pin" r="2.088" stroke-width="2.16"/>
       <circle fill="white" cx="5.04" cy="12.24" stroke="white" id="connector1pin" r="2.088" stroke-width="2.16"/>
      </g>
     </g>
    </g>
   </g>
  </g>
 </g>
</svg>
